<svg width="139" height="139" viewBox="0 0 139 139" fill="none" xmlns="http://www.w3.org/2000/svg">
<g clip-path="url(#clip0_1219_1015)">
<path d="M69.2129 138.426C107.438 138.426 138.426 107.438 138.426 69.2129C138.426 30.9877 107.438 0 69.2129 0C30.9877 0 0 30.9877 0 69.2129C0 107.438 30.9877 138.426 69.2129 138.426Z" fill="url(#paint0_linear_1219_1015)"/>
<g clip-path="url(#clip1_1219_1015)">
<path d="M69.2529 88.2959C74.2351 88.2419 80.2739 88.5368 85.7715 88.9688C85.9892 91.4184 86.1486 94.2756 86.1279 96.4902H86.127L86.1279 96.4951C86.1707 100.405 85.6498 106.318 85.2256 108.423V108.424C84.8978 110.111 83.958 111.782 82.6689 113.129C81.3808 114.474 79.758 115.48 78.0771 115.854C75.975 116.289 73.1175 116.718 69.2129 116.725C65.3093 116.719 62.4533 116.293 60.3584 115.85H60.3594C58.6774 115.479 57.0527 114.475 55.7637 113.129C54.4748 111.783 53.5358 110.109 53.208 108.42V108.418L53.1279 107.981C52.7238 105.586 52.2656 100.158 52.3057 96.4912V95.6035C52.3235 93.5485 52.4668 91.1059 52.6572 88.9727C58.1679 88.5382 64.223 88.2419 69.2217 88.2959V88.2949C69.2321 88.2954 69.2425 88.2953 69.2529 88.2949V88.2959ZM72.9814 92.584C71.1824 91.8388 69.2028 91.6436 67.293 92.0234C65.3832 92.4033 63.6289 93.341 62.252 94.7178C60.8751 96.0947 59.9366 97.849 59.5566 99.7588C59.1767 101.669 59.372 103.649 60.1172 105.448C60.8623 107.247 62.1243 108.784 63.7432 109.866C65.261 110.88 67.0292 111.452 68.8486 111.52L69.2139 111.526C71.8242 111.523 74.3271 110.484 76.1729 108.639C78.0183 106.793 79.0565 104.291 79.0596 101.681V101.68C79.0595 99.7325 78.4822 97.829 77.4004 96.21C76.3185 94.5908 74.7805 93.3292 72.9814 92.584Z" fill="#2F4F2F" stroke="#FFD700" stroke-width="0.505121"/>
<path fill-rule="evenodd" clip-rule="evenodd" d="M85.4708 85.129C84.7937 81.6395 81.6059 78.2657 78.1258 77.5003C76.0129 77.0563 73.1388 76.626 69.2147 76.6191C65.2906 76.626 62.4166 77.0572 60.3002 77.496C56.8202 78.2675 53.6324 81.6404 52.9552 85.129C52.8644 85.5833 52.7692 86.2116 52.6758 86.9565C58.3485 86.5194 64.4558 86.2356 69.2353 86.2879C73.7397 86.2391 79.5787 86.4739 85.746 86.9505C85.656 86.2082 85.5617 85.5825 85.4708 85.129ZM64.4341 83.5015C64.7442 83.7087 65.1088 83.8193 65.4818 83.8193C65.9819 83.8193 66.4616 83.6206 66.8152 83.267C67.1689 82.9133 67.3675 82.4337 67.3675 81.9335C67.3675 81.5606 67.2569 81.196 67.0497 80.8859C66.8425 80.5758 66.548 80.3341 66.2034 80.1913C65.8589 80.0486 65.4797 80.0113 65.1139 80.084C64.7481 80.1568 64.4121 80.3364 64.1484 80.6001C63.8846 80.8638 63.705 81.1999 63.6323 81.5657C63.5595 81.9315 63.5968 82.3106 63.7396 82.6552C63.8823 82.9998 64.124 83.2943 64.4341 83.5015Z" fill="#2F4F2F"/>
<path d="M65.4818 83.8193C65.1088 83.8193 64.7442 83.7087 64.4341 83.5015C64.124 83.2943 63.8823 82.9998 63.7396 82.6552C63.5968 82.3106 63.5595 81.9315 63.6323 81.5657C63.705 81.1999 63.8846 80.8638 64.1484 80.6001C64.4121 80.3364 64.7481 80.1568 65.1139 80.084C65.4797 80.0113 65.8589 80.0486 66.2034 80.1913C66.548 80.3341 66.8425 80.5758 67.0497 80.8859C67.2569 81.196 67.3675 81.5606 67.3675 81.9335C67.3675 82.4337 67.1689 82.9133 66.8152 83.267C66.4616 83.6206 65.9819 83.8193 65.4818 83.8193Z" fill="#FFD700"/>
<path d="M69.2139 76.8721C73.1169 76.8789 75.9734 77.3054 78.0713 77.7461V77.7471C79.7533 78.117 81.378 79.1213 82.667 80.4678C83.9559 81.8141 84.8947 83.4875 85.2227 85.1768L85.2236 85.1787C85.3001 85.5602 85.3764 86.0704 85.4541 86.6748C79.3986 86.214 73.6738 85.9862 69.2363 86.0342C64.5347 85.9828 58.556 86.2578 52.9688 86.6816C53.0489 86.0742 53.1266 85.5614 53.2031 85.1787V85.1768C53.531 83.4879 54.4699 81.8146 55.7588 80.4678C57.0468 79.1219 58.6698 78.1158 60.3506 77.7422L60.3516 77.7432C62.4535 77.3073 65.31 76.879 69.2139 76.8721ZM67.1152 81.9336C67.1152 82.3126 66.9833 82.6781 66.7451 82.9688L66.6367 83.0889C66.3305 83.395 65.9145 83.5664 65.4814 83.5664C65.1585 83.5663 64.8427 83.4704 64.5742 83.291C64.3058 83.1116 64.0962 82.8569 63.9727 82.5586L63.9307 82.4453C63.8552 82.2165 63.831 81.9736 63.8604 81.7344L63.8799 81.6152C63.935 81.3379 64.0614 81.0803 64.2451 80.8672L64.3271 80.7783C64.527 80.5785 64.7748 80.4344 65.0459 80.3594L65.1631 80.332C65.4798 80.269 65.8081 80.3013 66.1064 80.4248C66.4049 80.5484 66.6604 80.7578 66.8398 81.0264C67.0192 81.2949 67.1152 81.6106 67.1152 81.9336ZM67.6201 81.9336C67.6201 81.5107 67.4947 81.0968 67.2598 80.7451L67.167 80.6172C66.9403 80.327 66.6416 80.0996 66.2998 79.958L66.1514 79.9033C65.8017 79.788 65.4273 79.7638 65.0645 79.8359C64.7017 79.9081 64.3648 80.0732 64.0859 80.3135L63.9697 80.4219C63.7082 80.6835 63.5192 81.0076 63.4209 81.3623L63.3848 81.5166C63.3023 81.9313 63.3441 82.3613 63.5059 82.752C63.6677 83.1427 63.9423 83.477 64.2939 83.7119C64.6454 83.9467 65.0588 84.0722 65.4814 84.0723C65.9776 84.0723 66.4564 83.8996 66.8369 83.5879L66.9941 83.4453C67.3449 83.0944 67.5609 82.634 67.6094 82.1445L67.6201 81.9336Z" stroke="#FFD700" stroke-width="0.505121"/>
<path d="M58.7365 83.8346C59.0466 84.0418 59.4112 84.1524 59.7842 84.1524C60.0318 84.1524 60.2771 84.1036 60.5058 84.0088C60.7346 83.9141 60.9425 83.7752 61.1176 83.6C61.2927 83.4249 61.4316 83.2171 61.5264 82.9883C61.6212 82.7595 61.67 82.5143 61.67 82.2666C61.67 81.8936 61.5594 81.5291 61.3521 81.2189C61.1449 80.9088 60.8504 80.6671 60.5058 80.5244C60.1613 80.3817 59.7821 80.3443 59.4163 80.4171C59.0505 80.4899 58.7145 80.6695 58.4508 80.9332C58.187 81.1969 58.0074 81.5329 57.9347 81.8987C57.8619 82.2645 57.8993 82.6437 58.042 82.9883C58.1847 83.3328 58.4264 83.6274 58.7365 83.8346Z" fill="#2F4F2F"/>
<path d="M59.4658 80.665C59.7826 80.6021 60.1108 80.6342 60.4092 80.7578C60.7076 80.8814 60.9631 81.0908 61.1426 81.3594C61.3219 81.6279 61.417 81.9437 61.417 82.2666C61.417 82.4811 61.375 82.6935 61.293 82.8916C61.2109 83.0897 61.0911 83.2702 60.9395 83.4219C60.7878 83.5735 60.6073 83.6933 60.4092 83.7754C60.211 83.8575 59.9987 83.8994 59.7842 83.8994C59.4613 83.8994 59.1455 83.8043 58.877 83.625C58.6084 83.4455 58.399 83.19 58.2754 82.8916C58.1518 82.5932 58.1197 82.265 58.1826 81.9482C58.2456 81.6314 58.4005 81.3397 58.6289 81.1113C58.8573 80.8829 59.149 80.7281 59.4658 80.665Z" stroke="white" stroke-width="0.505121"/>
<path d="M59.1895 116.981C59.4308 117.056 59.6752 117.123 59.9219 117.178L59.9248 117.179L59.9453 117.183C61.5607 117.516 63.1941 117.755 64.8369 117.9C64.6369 118.366 64.1889 118.774 63.7188 118.879C62.6496 119.091 61.5496 119.091 60.4805 118.879C60.2044 118.817 59.9292 118.651 59.707 118.419C59.4845 118.187 59.327 117.902 59.2725 117.621V117.62C59.2459 117.485 59.2163 117.255 59.1895 116.981ZM79.2344 116.979C79.2072 117.253 79.1798 117.483 79.1533 117.617C79.0988 117.897 78.9413 118.183 78.7188 118.416C78.5237 118.62 78.2882 118.775 78.0479 118.85L77.9482 118.876C77.011 119.062 76.0497 119.085 75.1064 118.945L74.7031 118.876C74.2344 118.77 73.7874 118.363 73.5879 117.897C75.0146 117.771 76.4341 117.574 77.8408 117.306L78.4805 117.179L78.501 117.174H78.5039C78.75 117.119 78.9936 117.053 79.2344 116.979Z" fill="#2F4F2F" stroke="white" stroke-width="0.422181"/>
<path fill-rule="evenodd" clip-rule="evenodd" d="M69.2104 94.4629C67.2967 94.4652 65.462 95.2264 64.1088 96.5795C62.7557 97.9327 61.9945 99.7674 61.9922 101.681C61.993 101.955 62.009 102.228 62.0402 102.501C62.8804 103.338 64.0186 103.809 65.2053 103.809C66.3919 103.809 67.5301 103.338 68.3703 102.501C69.4062 101.466 70.7461 100.79 72.1939 100.571C73.6418 100.353 75.1215 100.604 76.4165 101.287C76.3139 99.4443 75.5101 97.7109 74.1702 96.442C72.8303 95.1732 71.0557 94.4651 69.2104 94.4629ZM66.188 98.7237C66.5163 98.3935 66.9078 98.1329 67.3392 97.9575C67.5254 97.8805 67.6736 97.733 67.7516 97.5472C67.8295 97.3614 67.8309 97.1523 67.7554 96.9655C67.6798 96.7787 67.5335 96.6293 67.3483 96.5498C67.1631 96.4704 66.954 96.4674 66.7666 96.5415C66.144 96.7946 65.5789 97.1707 65.1051 97.6473C64.6313 98.1239 64.2585 98.6912 64.0091 99.3153C63.9363 99.5031 63.9406 99.7121 64.0212 99.8967C64.1017 100.081 64.252 100.227 64.4392 100.301C64.6264 100.375 64.8354 100.373 65.0207 100.294C65.206 100.215 65.3526 100.066 65.4286 99.8793C65.6014 99.447 65.8597 99.0539 66.188 98.7237Z" fill="#FFD700"/>
<path d="M69.21 94.6738C71.0014 94.6759 72.7246 95.3639 74.0254 96.5957C75.2368 97.743 75.9948 99.2817 76.1738 100.933C74.9233 100.357 73.529 100.156 72.1621 100.362C70.6701 100.587 69.2893 101.284 68.2217 102.351C67.421 103.149 66.3358 103.598 65.2051 103.598C64.099 103.598 63.0383 103.167 62.2432 102.401C62.2183 102.162 62.2039 101.922 62.2031 101.682C62.2053 99.8239 62.9442 98.0422 64.2578 96.7285C65.5713 95.415 67.3524 94.6762 69.21 94.6738ZM67.4316 96.3555C67.1954 96.2542 66.9285 96.2504 66.6895 96.3447L66.6875 96.3457C66.0386 96.6095 65.4489 97.0013 64.9551 97.498C64.4612 97.9948 64.0734 98.5869 63.8135 99.2373L63.8125 99.2393C63.7196 99.479 63.7253 99.7458 63.8281 99.9814C63.931 100.217 64.1225 100.402 64.3613 100.497C64.6003 100.592 64.867 100.589 65.1035 100.488C65.34 100.387 65.5271 100.197 65.624 99.959L65.625 99.958C65.7873 99.552 66.0296 99.1821 66.3379 98.8721C66.6461 98.5622 67.0141 98.318 67.4189 98.1533L67.4199 98.1523C67.6575 98.054 67.8468 97.866 67.9463 97.6289C68.0457 97.3918 68.0474 97.1251 67.9512 96.8867C67.8548 96.6483 67.668 96.4568 67.4316 96.3555Z" stroke="#FFD700" stroke-width="0.422181"/>
</g>
<path d="M61.6523 73.6318V60.9414L69.1975 67.0008H66.7966C63.7784 67.0008 62.1095 71.4214 61.6523 73.6318Z" fill="#FFD700"/>
<path d="M37.9121 34.0762H105.058C106.441 34.0762 107.671 34.505 108.541 35.1709C109.411 35.8364 109.896 36.7123 109.896 37.6318V63.1094C109.896 64.029 109.411 64.9049 108.541 65.5703C107.671 66.2361 106.441 66.665 105.058 66.665H37.9121C36.5293 66.665 35.3001 66.236 34.4297 65.5703C33.5598 64.9048 33.0742 64.0289 33.0742 63.1094V37.6318C33.0742 36.7123 33.559 35.8363 34.4287 35.1709C35.299 34.505 36.5288 34.0762 37.9121 34.0762Z" fill="#2F4F2F" stroke="#FFD700" stroke-width="1.24137"/>
<path d="M75.3164 44.4792V55.1758H74.0629L68.2341 46.7773H68.1296V55.1758H66.8343V44.4792H68.0879L73.9375 52.8986H74.042V44.4792H75.3164ZM77.9083 55.1758V44.4792H84.3638V45.6283H79.2035V49.2425H84.0295V50.3916H79.2035V54.0267H84.4474V55.1758H77.9083ZM88.6414 55.1758L85.7165 44.4792H87.0327L89.2681 53.1911H89.3726L91.6498 44.4792H93.1122L95.3894 53.1911H95.4939L97.7293 44.4792H99.0455L96.1206 55.1758H94.7835L92.4228 46.652H92.3392L89.9785 55.1758H88.6414Z" fill="white"/>
<path d="M50.3945 42.9199V57.5303" stroke="#FFD700" stroke-width="1.24137"/>
<path d="M57.6992 50.2266H43.0888" stroke="#FFD700" stroke-width="1.24137"/>
</g>
<defs>
<linearGradient id="paint0_linear_1219_1015" x1="20.2718" y1="20.2718" x2="118.154" y2="118.154" gradientUnits="userSpaceOnUse">
<stop stop-color="#2F4F2F"/>
<stop offset="1" stop-color="#2F4F2F"/>
</linearGradient>
<clipPath id="clip0_1219_1015">
<rect width="138.426" height="138.426" fill="white"/>
</clipPath>
<clipPath id="clip1_1219_1015">
<rect width="43.8867" height="43.8867" fill="white" transform="translate(47.2695 76)"/>
</clipPath>
</defs>
</svg>
