<svg xmlns="http://www.w3.org/2000/svg" width="2977" height="2972" viewBox="0 0 2977 2972" fill="none"><path d="M1522.64 24.5537L1566.85 26.9346C1591 27.9549 1630.11 31.3558 1653.58 34.7568C1677.05 37.8178 1713.78 43.9397 1735.21 48.7012C1756.63 53.1226 1791.32 61.6254 1811.73 67.4072C1832.14 73.1891 1863.77 83.3927 1881.45 89.5146C1899.13 95.9729 1914.43 101.072 1915.46 101.418H1915.46C1916.48 101.418 1919.55 96.9968 1927.03 82.3721L1928.73 95.9766C1930.09 105.5 1932.47 109.921 1936.89 110.261C1939.95 110.941 1946.75 108.221 1952.2 104.479C1957.3 100.738 1961.72 98.0173 1962.4 98.3574C1962.74 99.0383 1961.38 103.459 1959 108.561C1956.62 113.662 1955.26 118.423 1956.28 118.764C1957.3 119.444 1981.79 131.688 2010.7 145.973C2039.6 160.597 2080.42 183.045 2100.82 195.969C2121.23 208.893 2156.26 233.041 2178.71 249.366C2200.82 266.032 2234.49 293.581 2287.88 341.876L2303.87 327.251L2301.83 341.876C2300.47 351.399 2301.15 356.84 2304.21 358.541C2306.25 359.901 2313.05 360.582 2318.49 359.901C2328.36 358.881 2328.36 359.221 2322.92 365.003C2317.13 371.125 2317.13 371.805 2325.64 379.968C2330.74 384.729 2349.44 406.156 2367.47 427.583C2385.5 449.01 2411.34 482.001 2424.61 500.707C2437.87 519.413 2459.98 553.083 2473.24 575.53C2486.51 597.977 2507.25 636.07 2519.16 660.558C2539.9 703.071 2541.27 704.772 2559.97 702.392L2552.49 710.214C2546.37 717.016 2545.69 719.397 2549.09 726.199C2552.15 731.641 2556.23 734.022 2573.58 733.682L2557.93 745.585L2571.2 784.698C2578.68 806.125 2589.22 841.496 2595 862.923C2600.78 884.35 2608.61 918.021 2612.69 937.747C2616.43 957.473 2621.87 991.144 2624.59 1012.57C2627.31 1034 2630.71 1070.39 2634.8 1135.01H2644.32C2649.42 1135.01 2653.5 1136.37 2653.5 1138.41C2653.5 1140.45 2649.42 1143.85 2644.32 1145.89C2639.22 1148.28 2634.46 1153.04 2634.12 1156.1C2633.44 1160.18 2637.18 1164.26 2655.2 1174.12L2634.8 1176.16L2632.08 1221.06C2630.71 1245.89 2626.63 1286.7 2622.89 1311.87C2619.49 1337.04 2613.37 1373.09 2609.29 1391.79C2605.21 1410.5 2597.38 1442.47 2591.6 1463.22C2585.82 1483.96 2575.96 1515.59 2569.83 1533.96C2562.01 1556.41 2559.29 1568.31 2561.67 1571.37C2564.05 1574.09 2562.69 1576.47 2557.25 1579.19C2553.17 1581.23 2548.75 1586 2547.39 1590.08C2545.35 1595.18 2546.37 1598.92 2549.77 1601.98C2552.83 1604.02 2555.21 1607.08 2554.87 1608.78C2554.87 1610.14 2551.81 1610.48 2548.07 1609.46C2542.29 1608.1 2539.22 1612.18 2528 1635.65C2520.86 1651.3 2506.23 1679.87 2495.35 1699.59C2484.47 1719.32 2463.04 1754.35 2447.74 1777.82C2432.43 1801.28 2409.3 1833.93 2396.04 1850.94C2382.77 1867.95 2359.99 1895.16 2317.47 1942.77L2326.32 1951.95C2331.42 1957.05 2334.48 1962.5 2332.78 1963.86C2331.42 1965.22 2324.62 1963.86 2317.47 1960.46C2310.67 1957.06 2303.53 1955.69 2301.83 1957.05C2300.47 1958.42 2300.81 1964.88 2302.85 1970.66C2304.89 1976.78 2305.57 1982.56 2304.21 1983.58C2302.51 1984.26 2298.77 1982.22 2295.71 1978.48C2289.59 1971.68 2288.9 1972.02 2258.29 1999.23C2240.95 2014.53 2213.06 2037.66 2196.05 2050.92C2179.05 2063.85 2150.14 2084.94 2131.43 2097.52C2112.73 2110.1 2079.06 2130.85 2056.61 2143.43C2034.16 2156.36 2002.87 2172.68 1986.89 2179.83C1970.9 2187.31 1957.64 2193.77 1957.3 2194.79C1956.62 2195.47 1957.98 2199.21 1959.68 2202.95C1961.38 2206.7 1962.4 2210.78 1961.38 2212.48C1960.36 2213.84 1956.28 2211.46 1951.86 2207.04C1945.73 2200.23 1943.01 2199.55 1936.89 2202.61C1930.77 2205.33 1928.73 2209.76 1927.03 2235.26L1921.93 2224.04C1919.21 2217.92 1916.14 2213.16 1914.78 2213.16C1913.08 2213.16 1889.62 2220.64 1862.07 2229.82C1834.18 2239.01 1792.68 2251.25 1769.22 2257.03C1745.75 2262.47 1712.76 2269.62 1696.09 2272.34C1679.43 2275.4 1644.06 2280.16 1617.87 2282.88C1591.68 2285.6 1559.03 2287.98 1520.94 2287.98L1519.24 2313.49L1512.43 2300.57C1508.69 2293.76 1503.59 2287.98 1501.55 2287.98C1499.17 2287.98 1493.73 2294.44 1481.83 2316.89L1479.78 2289.68L1434.89 2286.96C1410.06 2285.6 1368.57 2281.52 1342.38 2277.44C1316.19 2273.7 1277.08 2266.89 1255.65 2262.13C1234.23 2257.37 1198.85 2247.85 1177.43 2241.39C1156 2234.92 1124.71 2224.72 1108.38 2218.94L1107.39 2218.58C1079.12 2208.39 1078.41 2208.13 1074.71 2214.86C1070.97 2221.32 1070.63 2220.98 1067.91 2210.78C1065.87 2202.27 1063.49 2199.55 1057.71 2199.55C1053.29 2199.55 1047.16 2202.27 1043.42 2205.67C1037.3 2211.12 1037.3 2211.12 1039 2201.25C1041.01 2191.2 1040.71 2191.05 993.211 2167.63L991.047 2166.56C963.498 2152.96 919.964 2128.47 894.456 2112.14C868.948 2095.48 829.836 2068.27 807.729 2050.92C785.621 2033.58 755.351 2008.07 713.178 1968.62L704.675 1976.78C699.913 1981.54 695.151 1984.26 693.791 1983.58C692.091 1982.56 693.452 1976.1 696.513 1969.3C699.914 1960.12 700.594 1955.35 698.213 1952.97C695.719 1950.71 690.73 1950.93 683.248 1953.65C677.466 1955.69 671.344 1956.37 669.644 1955.35C668.283 1953.99 670.664 1949.57 682.567 1938.01L658.42 1911.48C645.156 1896.86 625.089 1873.39 613.865 1859.44C602.642 1845.5 581.896 1816.93 567.951 1796.52C553.667 1776.12 531.56 1740.74 518.976 1718.3C506.051 1695.85 488.025 1660.82 478.502 1641.09C465.578 1613.55 460.137 1605.04 456.396 1606.4C453.675 1607.76 448.232 1609.46 444.491 1610.48C438.369 1612.18 438.709 1611.16 446.872 1600.62C451.633 1594.16 454.694 1587.36 453.674 1584.98C452.313 1582.59 445.172 1579.53 424.085 1574.43L446.191 1566.95L434.628 1535.66C428.506 1518.31 418.302 1487.36 412.521 1466.62C406.739 1445.87 398.236 1411.52 393.814 1390.09C389.053 1368.67 382.931 1331.93 379.87 1308.47C376.469 1285 373.068 1245.89 369.667 1177.52L345.859 1174.12L357.083 1169.02C364.225 1165.62 368.306 1161.54 368.307 1157.12C368.307 1153.38 364.565 1148.62 359.464 1145.89C354.703 1143.85 350.961 1140.45 350.961 1138.41C350.961 1136.37 355.383 1135.01 371.368 1135.01V1108.82C371.368 1094.2 372.728 1066.31 374.769 1046.58C376.809 1026.86 381.571 991.825 385.312 968.357C389.054 944.89 398.237 903.056 405.379 874.827C412.521 846.938 424.765 806.124 446.191 745.585L430.887 734.361L442.11 732.321C449.593 730.961 453.674 727.9 455.034 722.458C456.055 718.037 454.695 712.595 451.634 708.854C448.573 705.793 447.213 702.391 448.913 701.711C450.274 700.691 453.675 701.371 456.396 703.071C460.477 705.452 467.619 694.228 492.106 645.934C509.112 612.943 532.58 570.429 544.483 551.723C556.387 533.017 576.793 503.087 590.058 485.401C603.322 467.716 625.089 440.167 638.693 424.182C651.958 408.197 667.943 390.851 673.725 385.069C679.506 379.287 684.269 373.165 684.269 371.465C684.268 369.764 681.547 365.343 678.146 361.942C672.705 355.82 672.705 355.48 684.269 357.86C692.431 359.561 697.533 358.881 700.594 355.479C703.654 352.419 703.654 348.677 701.273 341.535C699.006 335.414 699.007 331.786 701.273 330.652C703.314 329.632 706.715 331.332 708.756 334.053C711.137 337.114 714.538 339.495 716.579 339.495C718.62 339.494 724.401 334.393 730.183 328.611C735.964 322.83 753.311 306.845 769.296 293.24C785.281 279.636 815.891 255.828 837.317 240.183C858.744 224.538 893.095 201.41 913.842 189.166C934.589 176.582 973.021 155.836 999.55 142.231C1041.72 121.145 1047.85 117.403 1044.78 112.302C1043.08 108.901 1042.74 105.16 1044.1 103.459C1045.46 102.099 1048.87 103.459 1051.59 106.18C1054.31 109.241 1059.75 111.282 1063.49 110.602C1068.59 109.921 1070.63 106.52 1070.97 98.3574C1071.65 92.5756 1073.01 87.4736 1074.37 87.4736C1076.07 87.1339 1079.48 90.5357 1087.3 101.759L1131.51 86.4531C1155.66 77.9504 1197.15 65.7062 1223.34 59.2441C1249.53 52.7821 1290 44.2795 1313.47 40.1982C1336.94 36.457 1371.97 31.6959 1391.7 29.6553C1411.42 27.6146 1439.31 26.2539 1480.12 26.2539V14.3506C1480.12 7.88851 1480.8 2.44629 1481.83 2.44629C1482.85 2.44742 1485.91 6.8684 1488.63 12.6494C1491.69 18.7714 1496.45 22.8525 1500.53 22.8525C1504.61 22.8523 1509.71 18.771 1518.9 0.746094L1522.64 24.5537ZM1679.77 2062.83C1679.09 2062.83 1676.03 2068.27 1672.97 2074.73C1669.91 2081.19 1661.4 2093.1 1654.6 2100.92C1647.46 2108.74 1628.75 2125.75 1612.77 2138.67C1596.78 2151.94 1575.02 2170.98 1564.13 2181.53C1553.25 2192.07 1542.71 2203.63 1540.67 2207.37C1536.92 2214.18 1537.6 2214.18 1577.4 2211.46C1599.84 2210.09 1637.94 2206.01 1662.08 2202.27C1686.57 2198.53 1724.67 2191.05 1747.11 2185.61C1769.56 2180.16 1807.65 2169.62 1831.46 2161.8C1855.27 2154.32 1874.65 2147.17 1874.65 2146.15C1874.65 2145.13 1867.51 2140.71 1858.67 2136.29C1849.82 2131.87 1823.98 2122.69 1801.53 2115.88C1779.08 2108.74 1749.15 2099.22 1735.21 2094.12C1721.26 2089.36 1703.24 2080.17 1695.42 2074.05C1687.25 2067.93 1680.45 2062.83 1679.77 2062.83ZM1321.64 2059.77C1319.94 2059.77 1314.15 2063.51 1308.37 2068.27C1302.93 2073.03 1291.37 2080.51 1282.86 2084.93C1274.36 2089.01 1243.75 2099.9 1214.84 2108.74C1185.93 2117.24 1153.28 2128.81 1142.4 2133.57C1131.85 2138.67 1124.03 2143.77 1125.39 2145.13C1127.1 2146.49 1144.1 2152.62 1163.82 2159.08C1183.55 2165.54 1211.1 2174.04 1225.04 2178.12C1238.99 2181.87 1269.6 2189.01 1293.07 2193.77C1316.53 2198.19 1355.65 2204.65 1379.79 2207.37C1404.28 2210.09 1432.85 2212.47 1443.73 2212.47C1454.28 2212.47 1463.12 2211.45 1463.12 2210.09C1463.46 2208.73 1451.56 2195.81 1436.93 2181.87C1422.31 2167.92 1397.14 2145.47 1380.81 2131.87C1364.49 2118.26 1345.44 2099.9 1338.98 2091.06C1332.52 2082.21 1326.74 2071.33 1326.06 2067.25C1325.38 2062.83 1323.34 2059.43 1321.64 2059.77ZM1646.78 2018.61C1611.41 2021.67 1591 2024.73 1578.76 2027.46C1565.15 2030.52 1546.79 2038.34 1531.14 2047.52C1517.2 2056.02 1503.25 2062.83 1500.53 2062.83C1497.81 2062.83 1483.87 2056.02 1469.92 2047.52C1454.28 2038.34 1435.91 2030.52 1422.31 2027.46C1410.06 2024.73 1390 2021.67 1377.75 2020.31C1355.65 2017.93 1355.31 2017.93 1354.97 2026.09C1354.63 2030.52 1358.03 2041.74 1362.45 2050.92C1366.87 2060.45 1378.77 2075.75 1388.98 2085.27C1398.84 2094.8 1419.93 2113.16 1435.57 2126.09C1451.56 2139.01 1472.64 2158.74 1482.51 2169.96L1500.53 2190.37C1536.24 2152.62 1557.33 2132.89 1570.25 2122.35C1583.52 2111.46 1603.25 2094.12 1614.13 2083.57C1625.35 2073.37 1636.92 2058.41 1640.32 2050.92C1644.06 2043.44 1646.78 2033.24 1646.78 2028.14V2018.61ZM2009 1919.98C2007.98 1919.98 2007.3 1925.76 2007.3 1932.91C2007.3 1939.71 2005.6 1951.61 2003.55 1959.09C2001.51 1966.58 1987.91 1997.19 1973.29 2027.12C1958.66 2057.04 1944.38 2090.04 1941.31 2100.24C1938.59 2110.44 1936.89 2119.28 1937.57 2119.96C1938.59 2120.3 1959.68 2110.44 1984.51 2097.52C2009.34 2084.93 2045.39 2064.53 2064.43 2052.62C2083.82 2040.38 2114.43 2019.29 2132.46 2005.69C2150.82 1992.08 2179.05 1969.3 2195.72 1954.67C2224.29 1929.84 2225.65 1928.48 2217.82 1925.76C2213.4 1924.06 2191.64 1923.72 2169.87 1924.74C2147.76 1925.76 2111.71 1927.8 2089.94 1929.16C2057.97 1930.86 2045.73 1930.18 2030.42 1925.76C2019.54 1922.7 2010.02 1919.98 2009 1919.98ZM984.927 1920.32C983.225 1920.66 974.383 1923.04 964.86 1925.76C952.616 1929.16 937.992 1930.18 912.144 1928.82C892.417 1927.8 854.665 1925.76 828.137 1924.4C790.046 1922.36 779.502 1922.7 779.501 1926.1C779.501 1928.48 789.024 1938.69 800.928 1949.23C812.491 1959.77 842.081 1983.24 866.229 2001.61C890.716 2019.97 926.428 2044.8 946.154 2057.04C965.881 2068.95 999.212 2087.65 1020.3 2098.2C1043.09 2109.42 1058.39 2115.54 1058.39 2113.16C1058.39 2110.78 1055.67 2100.24 1052.27 2090.04C1048.53 2079.83 1035.94 2051.6 1023.7 2027.12C1011.46 2002.97 999.211 1975.42 996.15 1965.9C993.43 1956.71 990.029 1942.43 989.349 1934.61C988.328 1926.44 986.287 1920.32 984.927 1920.32ZM1963.08 1898.21C1962.06 1897.53 1944.04 1907.06 1922.95 1918.96C1887.58 1939.37 1883.84 1942.43 1865.47 1968.28C1846.76 1993.78 1845.4 1995.14 1835.54 1993.44C1830.1 1992.08 1813.09 1990.38 1798.13 1989.02C1774.66 1987.32 1765.82 1988.68 1731.13 1997.87L1690.99 2008.41C1700.18 2024.73 1707.66 2033.24 1713.1 2037.32C1718.88 2041.74 1729.77 2048.2 1737.93 2052.28C1745.75 2056.36 1771.94 2064.87 1795.75 2071.67C1819.56 2078.47 1851.53 2089.7 1867.17 2097.18C1882.47 2104.66 1895.74 2109.42 1896.42 2108.06C1897.1 2106.7 1900.16 2096.84 1903.56 2086.63C1906.62 2076.43 1921.59 2042.76 1936.21 2011.81C1951.18 1980.86 1964.44 1948.21 1966.14 1938.69C1967.84 1929.5 1968.18 1916.58 1967.16 1910.46C1965.8 1904 1964.1 1898.55 1963.08 1898.21ZM1042.75 1897.19C1038.67 1894.47 1034.92 1893.79 1033.9 1895.83C1033.22 1897.53 1031.18 1905.7 1029.82 1913.86C1028.12 1922.7 1028.8 1934.61 1031.18 1943.79C1033.22 1952.29 1046.49 1982.22 1060.09 2010.11C1074.04 2038.34 1088.32 2071.67 1092.4 2084.25C1096.14 2096.84 1100.56 2107.04 1101.92 2107.04C1103.29 2107.38 1115.87 2101.94 1129.81 2095.48C1143.76 2089.36 1175.39 2078.47 1199.54 2071.33C1224.02 2064.53 1251.57 2055.34 1260.76 2050.92C1270.28 2046.5 1283.54 2036.64 1290.69 2029.16C1297.49 2021.67 1302.93 2013.51 1302.25 2011.13C1301.57 2008.75 1286.6 2002.63 1268.92 1997.53C1247.83 1991.74 1229.13 1988.68 1213.14 1988.68C1200.22 1988.68 1180.49 1989.7 1169.27 1991.06L1149.54 1993.1C1129.13 1962.83 1117.91 1949.23 1111.79 1943.11C1105.67 1936.99 1089.34 1925.08 1075.4 1916.92C1061.45 1908.76 1046.83 1899.91 1042.75 1897.19ZM962.479 1783.94C959.419 1783.94 959.419 1785.64 963.16 1789.72C965.881 1792.78 982.887 1806.04 1000.57 1819.65C1018.26 1832.91 1040.36 1848.22 1049.89 1853.66C1059.07 1858.76 1081.52 1872.03 1099.2 1882.57C1116.89 1893.45 1145.12 1908.42 1162.12 1915.9C1178.79 1923.38 1206.34 1934.27 1223.34 1940.39C1240.01 1946.17 1271.64 1955.69 1293.07 1961.13C1314.49 1966.92 1351.9 1974.4 1376.39 1978.14C1400.54 1981.54 1424.69 1984.6 1429.79 1984.6C1434.89 1984.6 1438.63 1983.24 1437.61 1981.2C1436.59 1979.5 1411.08 1969.98 1380.47 1960.79C1350.2 1951.27 1316.19 1939.71 1304.97 1935.29C1293.75 1930.86 1277.08 1922.02 1267.9 1915.9C1258.72 1909.78 1246.81 1898.55 1241.37 1891.07C1235.93 1883.59 1229.13 1870.66 1226.06 1862.16C1223.34 1854 1220.28 1845.16 1219.6 1842.78C1218.58 1839.72 1214.16 1840.74 1203.62 1846.86C1195.79 1851.28 1180.83 1857.06 1170.63 1859.1C1156 1862.16 1146.82 1862.16 1128.11 1858.76C1109.41 1855.36 1089 1846.52 1035.26 1819.31C997.512 1799.92 964.52 1783.94 962.479 1783.94ZM2036.21 1788.02C2034.16 1788.02 2030.42 1788.7 2027.7 1789.72C2024.98 1790.74 1998.79 1804.34 1969.88 1819.99C1940.97 1835.29 1907.3 1851.28 1895.06 1855.36C1878.05 1861.14 1866.83 1862.5 1847.44 1861.82C1829.08 1860.8 1816.83 1858.08 1804.25 1851.96C1789.97 1845.16 1786.22 1844.48 1786.22 1848.56C1786.22 1851.62 1782.48 1861.48 1778.06 1870.67C1773.64 1880.19 1763.1 1894.13 1754.25 1902.29C1745.75 1910.12 1731.13 1920.32 1722.28 1924.74C1713.44 1929.16 1677.05 1942.09 1641.68 1953.65C1605.97 1964.87 1574 1976.44 1570.25 1979.5L1563.45 1984.6C1574 1984.6 1595.42 1982.22 1617.87 1979.5C1640.32 1976.44 1682.49 1967.94 1711.4 1960.45C1740.31 1952.97 1781.8 1939.71 1803.23 1931.2C1824.66 1922.7 1847.79 1913.18 1854.25 1909.78C1860.71 1906.72 1879.07 1895.49 1895.06 1885.29C1911.04 1874.75 1934.51 1861.14 1947.78 1854.68C1960.7 1847.88 1981.79 1834.27 1994.03 1824.41C2006.62 1814.21 2021.92 1801.96 2028.04 1796.86C2034.5 1791.76 2037.91 1787.68 2036.21 1788.02ZM1745.41 1834.95C1704.6 1848.22 1675.69 1855.7 1655.28 1860.46C1634.54 1864.88 1608.01 1869.64 1595.76 1871C1583.52 1872.37 1562.09 1877.81 1548.15 1883.59C1534.2 1889.03 1517.54 1898.21 1511.42 1904.34L1500.53 1914.88C1483.19 1898.21 1469.24 1889.37 1458.02 1884.61C1446.8 1879.85 1425.37 1874.07 1410.4 1872.37C1395.44 1870.32 1366.19 1864.88 1345.78 1860.46C1325.04 1856.04 1296.81 1848.22 1282.86 1843.8L1257.35 1835.29L1260.42 1842.78C1261.78 1846.86 1265.18 1854.34 1267.56 1858.76C1269.94 1863.52 1276.74 1871.69 1283.2 1877.13C1289.67 1882.57 1300.21 1889.71 1306.67 1892.77C1313.13 1896.17 1343.74 1906.72 1374.69 1916.24C1405.64 1926.1 1441.35 1939.03 1454.62 1945.49C1467.54 1951.95 1483.87 1960.45 1490.33 1964.54L1502.23 1972.02C1531.14 1953.65 1548.83 1944.13 1560.05 1939.71C1571.28 1934.95 1607.33 1922.36 1639.98 1912.16C1672.63 1901.61 1706.3 1888.69 1714.8 1883.59C1723.3 1878.15 1733.51 1868.62 1737.59 1862.16C1741.67 1855.7 1745.07 1846.86 1745.41 1842.78V1834.95ZM2215.1 1661.5C2213.4 1661.5 2201.5 1675.78 2188.23 1693.13C2174.97 1710.47 2162.05 1729.86 2159.33 1736.32C2156.6 1743.12 2151.84 1759.11 2148.78 1772.03L2143.34 1795.84C2118.17 1802.98 2103.21 1807.06 2094.02 1809.79C2084.5 1812.17 2068.52 1820.67 2058.31 1828.49C2048.11 1836.31 2032.12 1847.88 2023.28 1854C2014.44 1860.46 2007.3 1867.26 2007.3 1868.96C2007.3 1871.01 2016.14 1876.45 2026.68 1881.55L2046.41 1890.73C2128.03 1885.97 2169.53 1884.61 2190.96 1884.61L2230.07 1884.95C2230.07 1821.35 2231.43 1779.86 2233.13 1751.63L2236.53 1700.61C2222.24 1670.34 2216.8 1661.5 2215.1 1661.5ZM788.004 1662.52C785.283 1658.44 783.583 1658.78 778.821 1663.88C775.76 1667.28 770.998 1675.44 768.277 1681.9C765.557 1688.71 762.155 1699.93 760.795 1707.41C759.775 1714.89 761.136 1747.21 763.856 1778.84C766.577 1810.81 767.937 1847.54 766.917 1860.46L764.876 1884.27C832.898 1884.27 872.351 1885.63 896.839 1887.33C929.489 1889.71 945.135 1889.37 956.358 1886.65C964.861 1884.27 976.084 1878.83 981.866 1874.41L992.069 1866.24C976.764 1854 964.52 1844.48 954.997 1836.99C945.474 1829.85 929.829 1820.33 920.646 1815.91C911.124 1811.83 892.418 1805.7 878.813 1802.98L854.325 1797.54C848.543 1775.1 845.482 1762.51 843.441 1755.03C841.401 1747.55 835.959 1733.94 831.197 1724.42C826.436 1715.23 815.552 1698.23 807.05 1687.35C798.547 1676.12 789.704 1664.9 788.004 1662.52ZM2462.02 1590.42C2459.64 1590.42 2451.82 1592.46 2444.34 1594.84C2436.85 1597.22 2421.55 1604.02 2410.33 1609.46C2399.1 1614.9 2372.91 1628.17 2352.51 1638.37C2331.76 1648.91 2308.97 1659.12 2301.49 1661.16C2294.01 1663.2 2282.79 1664.9 2276.66 1664.9C2267.82 1664.9 2266.12 1666.26 2267.48 1671.02C2268.5 1674.08 2271.22 1683.94 2273.26 1692.11C2275.64 1701.63 2275.98 1721.36 2274.62 1743.12C2273.6 1762.85 2271.56 1798.9 2270.2 1823.05C2269.18 1847.88 2269.52 1869.99 2271.22 1873.73C2273.94 1878.83 2277.34 1876.11 2297.75 1853.32C2310.67 1838.35 2334.48 1809.1 2350.47 1787.34C2366.79 1765.91 2388.9 1733.94 2399.78 1715.92C2411.01 1698.23 2430.39 1663.88 2442.98 1639.39C2455.9 1615.24 2466.1 1594.16 2466.44 1592.8C2466.44 1591.44 2464.4 1590.42 2462.02 1590.42ZM539.724 1590.08C538.704 1590.08 538.024 1591.78 538.023 1593.48C538.023 1595.52 548.227 1616.6 560.471 1640.41C572.715 1664.22 593.801 1700.61 606.726 1721.02C619.99 1741.76 641.076 1772.37 653.66 1789.04C666.244 1806.04 687.331 1831.89 699.915 1846.86L723.043 1874.07C728.825 1854.34 728.485 1833.93 725.764 1800.94C723.383 1774.07 721.683 1738.7 721.683 1722.72C721.343 1705.37 723.383 1688.03 726.784 1679.52L731.886 1664.9C717.261 1664.9 704.677 1662.52 694.474 1659.8C684.27 1656.74 655.701 1643.81 631.554 1631.23C607.066 1618.64 576.796 1604.36 564.212 1599.26C551.628 1594.16 540.744 1590.08 539.724 1590.08ZM956.358 1352.68C888.34 1352.68 850.927 1353.7 850.924 1356.08C850.924 1357.78 855.345 1372.06 861.127 1387.37C866.909 1402.67 879.834 1431.58 890.377 1451.31C900.92 1470.7 921.667 1506.41 936.972 1530.22C952.277 1554.02 975.404 1587.01 988.668 1603.34C1001.93 1619.66 1027.1 1645.85 1044.79 1661.5C1062.47 1676.8 1090.36 1699.25 1106.69 1710.81C1123.01 1722.38 1153.62 1741.42 1174.71 1752.99C1195.79 1764.89 1228.45 1780.54 1247.15 1787.68C1265.86 1795.16 1297.83 1805.7 1318.57 1811.49C1338.98 1816.93 1369.59 1824.07 1386.6 1827.13C1403.26 1829.85 1427.75 1833.25 1441.01 1834.61L1464.82 1836.65C1417.89 1776.46 1394.08 1745.5 1381.83 1729.18L1359.39 1699.59C1103.63 1699.59 1095.8 1699.25 1097.5 1693.47C1098.86 1690.07 1120.97 1652.99 1146.82 1611.16C1172.67 1568.99 1194.09 1532.6 1194.09 1530.22C1194.43 1526.81 1167.23 1525.79 1072 1525.11L949.896 1524.43C1031.52 1400.29 1056.69 1361.86 1058.39 1358.46C1061.45 1353.02 1055.67 1352.68 956.358 1352.68ZM1996.07 1437.37C2027.02 1484.3 2052.19 1523.41 2051.85 1524.09C2051.51 1525.11 1996.41 1525.79 1929.07 1525.79C1861.73 1525.79 1806.64 1526.81 1806.29 1528.51C1806.29 1529.88 1829.42 1568.31 1857.65 1614.22L1908.66 1697.55L1643.38 1699.25C1564.14 1801.95 1541.35 1832.57 1541.35 1833.59C1541.35 1834.61 1544.75 1835.29 1548.83 1835.29C1552.91 1835.29 1570.94 1832.91 1588.96 1829.85C1606.65 1826.79 1645.08 1818.29 1674.67 1811.15C1704.26 1804 1741.67 1792.78 1758 1786.32C1774.32 1780.2 1796.09 1770.67 1806.63 1765.57C1816.84 1760.47 1838.94 1747.89 1855.95 1737.34C1872.61 1727.14 1897.78 1710.13 1912.07 1699.59C1926.01 1689.39 1953.22 1665.24 1972.95 1646.53C1992.33 1627.83 2017.16 1600.28 2028.38 1585.31C2039.61 1570.35 2060.69 1539.06 2074.98 1515.59C2089.6 1492.12 2109.67 1457.09 2119.53 1437.37C2129.4 1417.64 2140.96 1391.11 2145.38 1377.85C2149.8 1364.92 2153.54 1353.7 2153.54 1353.36C2153.53 1352.68 2105.24 1352.34 2046.41 1352.34H1939.61L1996.07 1437.37ZM2160 1471.72C2154.9 1464.23 2154.56 1464.57 2136.54 1497.22C2126.67 1515.59 2111.03 1542.12 2101.51 1556.06C2091.98 1570.35 2078.04 1590.08 2070.22 1600.28C2062.39 1610.82 2051.85 1629.19 2046.75 1641.09C2041.99 1653.33 2037.91 1669.66 2037.91 1677.82V1692.11C2010.02 1695.51 1993.35 1699.93 1982.47 1704.35C1971.92 1709.11 1948.8 1723.06 1931.45 1735.64C1914.11 1748.57 1892.34 1763.53 1883.16 1769.65C1873.63 1775.43 1853.23 1787 1837.24 1795.5L1808.33 1810.81C1831.46 1820.33 1842.34 1821.69 1857.99 1821.01C1879.07 1819.99 1886.22 1816.93 1953.22 1783.26C2005.94 1756.39 2033.14 1744.82 2051.85 1740.74L2078.04 1734.62C2089.94 1685.31 2102.87 1655.04 2128.71 1602.32C2164.77 1528.86 2165.45 1527.49 2165.45 1503.69C2165.45 1487.36 2163.75 1477.16 2160 1471.72ZM848.203 1464.23C846.162 1464.23 841.741 1471.72 838.68 1480.56C833.578 1494.16 833.239 1499.27 836.64 1515.25C838.681 1526.13 855.005 1563.21 874.731 1601.98C900.239 1653.33 910.783 1677.82 916.225 1701.29L924.048 1732.92C952.957 1738.7 971.323 1744.48 983.566 1749.25C995.81 1754.01 1027.78 1769.99 1054.99 1784.28C1082.2 1798.9 1113.49 1813.19 1124.71 1816.59C1137.98 1820.33 1150.22 1821.35 1159.4 1819.99C1167.57 1818.97 1178.11 1815.91 1183.21 1813.19L1192.73 1808.76C1163.83 1794.14 1141.38 1781.56 1124.71 1771.35C1107.71 1761.15 1081.86 1743.46 1066.89 1731.9C1051.93 1720.68 1029.14 1707.07 1016.56 1701.97C1003.97 1696.53 987.988 1692.11 980.846 1692.11H968.262C964.521 1664.56 959.419 1647.21 954.317 1635.99C949.216 1624.77 936.972 1605.04 927.108 1591.78C917.245 1578.85 900.92 1555.04 891.057 1539.06C881.193 1523.41 868.269 1499.95 862.487 1487.36C856.706 1474.78 850.584 1464.23 848.203 1464.23ZM1590.32 1702.99C1593.38 1699.59 1577.06 1698.57 1502.91 1698.91C1452.92 1698.91 1412.1 1699.93 1412.1 1700.61C1412.1 1701.63 1431.83 1728.5 1456.32 1760.13C1480.47 1792.1 1500.87 1817.61 1501.55 1817.27C1502.24 1816.58 1521.62 1791.75 1544.75 1761.83C1567.53 1731.9 1588.28 1705.37 1590.32 1702.99ZM677.128 1228.54C675.087 1226.27 674.067 1226.84 674.067 1230.24C674.068 1232.96 676.448 1253.71 679.509 1276.15C682.23 1298.6 688.692 1332.95 693.453 1352.68C698.215 1372.41 707.738 1404.38 714.2 1424.1C720.662 1443.83 733.926 1477.5 743.449 1498.93C753.312 1520.35 772.019 1556.4 785.283 1578.85C798.547 1601.3 820.994 1634.97 834.938 1653.67C848.883 1672.38 862.828 1690.07 865.889 1692.79C868.95 1695.51 872.351 1697.21 873.371 1696.19C874.049 1695.16 859.766 1663.88 841.401 1626.47C822.696 1589.06 805.01 1550.62 801.608 1541.44C798.547 1531.92 795.826 1513.89 795.486 1500.63C795.146 1481.92 797.186 1473.08 803.648 1459.13L811.812 1441.45C796.167 1438.05 785.964 1433.96 778.821 1430.56C771.679 1426.82 760.455 1418.32 753.652 1411.18C746.85 1404.37 736.647 1388.73 730.525 1376.49C724.403 1364.24 710.799 1326.83 699.915 1293.16C689.032 1259.49 678.828 1230.24 677.128 1228.54ZM2329.72 1224.46C2329.04 1223.44 2326.66 1225.48 2324.62 1229.22C2322.92 1232.62 2311.35 1265.27 2299.79 1301.66C2284.49 1348.26 2274.28 1373.43 2265.78 1386.69C2258.3 1397.23 2245.37 1410.84 2234.83 1417.98C2224.97 1424.78 2210 1432.26 2202.18 1434.99C2194.02 1437.37 2187.9 1440.09 2188.57 1441.11C2189.25 1442.13 2193.34 1450.29 2197.76 1459.81C2202.18 1469 2206.26 1485.32 2207.28 1495.52C2208.64 1508.79 2206.94 1521.03 2201.84 1538.04C2198.1 1550.96 2181.09 1588.71 2164.43 1621.37C2147.76 1654.01 2133.14 1684.28 2131.78 1688.37C2130.76 1692.79 2131.1 1696.19 2132.46 1696.19C2133.82 1696.19 2138.24 1691.09 2141.98 1684.96C2146.06 1679.18 2158.98 1661.84 2171.23 1646.87C2183.47 1631.91 2198.44 1609.8 2204.56 1597.56C2210.68 1585.31 2223.27 1563.89 2232.11 1549.94C2241.29 1536 2253.53 1512.87 2260 1498.93C2266.46 1484.98 2275.64 1462.53 2280.4 1449.61C2285.16 1436.35 2291.63 1414.24 2294.35 1400.29C2297.07 1386.35 2304.21 1359.48 2309.99 1340.77C2315.77 1322.07 2322.92 1288.74 2325.64 1266.29C2328.7 1244.18 2330.4 1225.14 2329.72 1224.46ZM1500.53 1627.49L1434.21 1525.79C1295.45 1525.45 1279.12 1526.47 1280.14 1529.88C1281.16 1532.26 1302.93 1561.85 1329.12 1595.86L1376.39 1657.76L1624.67 1658.1C1699.83 1560.83 1721.6 1530.9 1721.6 1528.86C1721.6 1526.81 1693.71 1525.45 1645.08 1525.45H1568.55L1500.53 1627.49ZM1767.18 1542.46C1765.48 1542.46 1744.39 1568.31 1720.24 1599.6L1676.71 1656.4C1741.67 1658.1 1777.72 1658.1 1798.81 1657.42L1836.56 1656.4C1785.21 1568.31 1768.88 1542.46 1767.18 1542.46ZM1238.99 1544.84C1237.63 1543.48 1220.96 1567.29 1201.92 1598.58C1182.87 1629.53 1167.57 1655.38 1167.91 1656.4C1168.59 1657.42 1204.3 1657.76 1247.49 1657.42L1326.06 1656.4C1260.76 1572.05 1240.35 1546.54 1238.99 1544.84ZM644.478 1349.96C642.437 1349.28 634.275 1354.38 626.452 1361.52C618.29 1368.66 608.426 1381.25 604.345 1389.75C599.923 1398.25 590.06 1425.8 582.237 1450.97C574.415 1476.14 562.512 1507.77 556.39 1520.69C549.928 1533.96 544.485 1546.2 544.485 1547.9C544.826 1549.94 551.968 1553.34 560.811 1555.72C569.653 1558.1 604.685 1573.75 638.355 1590.75C682.91 1613.2 703.997 1622.04 716.581 1623.41C725.764 1624.43 739.368 1624.43 746.17 1623.07L759.095 1621.02C736.648 1578.51 723.043 1558.1 714.54 1548.58C705.697 1538.72 690.052 1524.77 679.169 1517.29L659.782 1503.69C664.204 1469.34 665.224 1447.23 664.884 1432.26C664.544 1415.26 661.483 1394.85 656.382 1378.19C651.96 1363.22 646.858 1350.64 644.478 1349.96ZM2340.94 1391.11C2335.16 1413.56 2330.4 1437.71 2330.4 1444.17C2330.4 1450.63 2332.1 1465.93 2334.14 1478.18L2337.88 1500.29C2318.16 1516.27 2304.89 1527.49 2296.05 1536C2286.19 1545.18 2271.9 1564.91 2260.68 1585.31C2250.13 1604.02 2242.65 1620.68 2244.35 1622.04C2245.71 1623.75 2257.96 1624.43 2271.22 1623.75C2294.35 1622.72 2299.11 1621.03 2357.95 1591.44C2392.3 1574.09 2427.67 1558.1 2436.51 1555.72C2445.7 1553.34 2452.84 1550.28 2452.84 1548.92C2452.84 1547.22 2447.4 1536 2441.28 1523.41C2434.81 1510.49 2423.25 1479.54 2415.43 1454.37C2407.26 1429.2 2397.06 1400.97 2392.64 1391.45C2387.88 1382.27 2380.74 1370.7 2376.66 1366.62C2372.91 1362.2 2365.43 1356.42 2360.67 1354.04L2351.83 1349.62L2340.94 1391.11ZM1502.23 1525.45C1493.73 1525.45 1486.93 1527.15 1486.93 1528.86C1486.93 1530.9 1489.65 1537.02 1492.71 1542.46C1496.11 1548.24 1499.85 1552.66 1501.21 1552.66C1502.57 1552.66 1507 1547.9 1510.74 1541.78C1514.14 1535.66 1517.2 1529.54 1517.54 1528.17C1517.54 1526.81 1510.74 1525.45 1502.23 1525.45ZM2555.21 1192.83C2553.51 1192.83 2538.21 1207.79 2521.54 1225.82C2504.54 1244.18 2481.07 1270.37 2469.5 1284.32C2457.6 1298.26 2440.94 1314.25 2432.09 1320.03C2423.59 1325.81 2414.07 1331.93 2411.01 1333.97C2406.24 1337.03 2407.26 1339.75 2418.49 1356.08C2427.33 1369 2436.51 1390.77 2447.74 1425.8C2456.58 1453.69 2468.82 1487.36 2474.95 1500.63C2480.73 1513.55 2487.53 1525.45 2489.57 1526.81C2492.63 1528.85 2497.73 1516.95 2507.6 1486C2515.42 1462.19 2525.96 1424.44 2531.06 1401.99C2536.51 1379.55 2543.31 1345.88 2546.37 1327.17C2549.09 1308.46 2553.17 1279.22 2554.87 1262.55C2556.91 1245.54 2558.27 1223.1 2558.27 1212.21C2558.27 1201.67 2556.91 1192.83 2555.21 1192.83ZM446.194 1192.83C443.814 1192.83 443.133 1198.27 444.153 1207.11C445.174 1215.27 447.214 1235.34 448.234 1252.35C449.255 1269.01 454.016 1304.38 458.098 1330.57C462.519 1356.76 470.342 1394.17 475.104 1413.9C480.205 1433.62 489.388 1465.93 495.85 1486C502.312 1506.41 508.434 1522.73 509.114 1522.73C510.135 1522.73 514.896 1514.91 519.317 1505.73C524.079 1496.2 536.323 1463.21 546.866 1431.58C557.069 1400.29 569.994 1367.98 575.436 1359.48C580.877 1350.98 587.679 1341.8 590.74 1339.07C595.842 1334.31 594.822 1333.29 581.558 1326.15C573.735 1321.73 561.151 1312.55 554.009 1305.74C546.867 1298.94 528.16 1277.85 512.855 1259.15C497.21 1240.44 476.803 1218 467.28 1208.81C457.418 1199.97 448.236 1192.83 446.194 1192.83ZM1367.89 1352.68L1407.34 1412.88C1429.11 1446.21 1448.5 1475.8 1450.88 1479.2C1453.94 1484.3 1460.4 1485.32 1500.53 1485.32H1546.45C1610.05 1389.07 1629.77 1359.14 1630.79 1356.76C1632.5 1353.36 1625.35 1352.68 1599.84 1352.68H1566.85C1517.88 1431.58 1502.57 1454.71 1501.21 1454.37C1499.85 1454.37 1484.21 1431.58 1466.52 1403.35L1434.21 1352.34L1367.89 1352.68ZM1337.96 1379.21C1336.6 1379.21 1321.64 1401.65 1304.97 1429.2C1287.96 1456.75 1274.02 1480.56 1273.34 1481.92C1273 1483.62 1302.59 1484.64 1338.98 1484.64C1375.37 1484.64 1404.96 1483.28 1404.28 1481.92C1403.94 1480.22 1389.32 1456.41 1371.97 1429.2C1354.63 1401.66 1339.32 1379.21 1337.96 1379.21ZM1667.53 1381.93C1666.17 1380.23 1652.22 1398.59 1636.24 1422.74C1620.25 1446.55 1604.61 1470.36 1601.55 1475.46L1595.76 1484.64H1731.81C1683.85 1407.1 1668.89 1383.29 1667.53 1381.93ZM1902.2 1368.66C1900.84 1367.31 1879.75 1392.47 1855.27 1424.78L1810.37 1482.94C1936.54 1484.3 1973.96 1484.3 1974.99 1483.96C1976.01 1483.28 1960.7 1457.77 1940.63 1426.82C1920.91 1396.21 1903.22 1369.68 1902.2 1368.66ZM1104.65 1370.36C1101.58 1367.3 1091.04 1381.59 1062.81 1424.78L1024.72 1482.94C1150.9 1484.3 1188.31 1483.96 1189.33 1482.94C1190.35 1482.26 1172.33 1457.09 1149.54 1427.84C1126.75 1398.25 1106.69 1372.4 1104.65 1370.36ZM1223 1352.68C1155.66 1352.68 1143.08 1353.36 1145.46 1357.1C1147.16 1359.82 1166.89 1385.67 1189.33 1414.92C1211.78 1444.16 1231.16 1467.97 1232.53 1467.98C1233.89 1467.98 1250.55 1442.81 1269.26 1412.2C1287.96 1381.25 1303.27 1355.06 1303.27 1354.38C1303.27 1353.36 1267.22 1352.68 1223 1352.68ZM1701.54 1359.82C1704.26 1364.24 1720.24 1390.09 1737.25 1417.64C1753.91 1445.19 1768.2 1467.98 1769.22 1467.98C1770.24 1467.97 1791.33 1442.12 1815.81 1410.16L1861.05 1352.34H1696.44L1701.54 1359.82ZM814.872 913.597C813.171 913.597 807.73 915.978 801.948 919.039C796.506 922.1 786.643 929.243 780.521 935.024C774.4 941.146 765.897 953.73 761.476 962.913C757.054 972.436 746.511 1002.37 738.008 1029.23C729.505 1056.44 719.302 1087.05 715.221 1097.26C711.139 1107.8 701.956 1125.15 694.474 1136.37L681.209 1156.78C695.494 1175.48 705.357 1192.83 712.159 1207.79C718.961 1222.76 731.206 1256.43 739.028 1282.62C746.851 1308.8 758.754 1341.46 764.876 1355.06C772.018 1370.36 780.522 1382.95 787.664 1388.05C793.446 1392.47 803.649 1397.57 809.771 1398.93C815.892 1400.63 820.993 1400.97 820.994 1399.95C820.994 1399.27 817.594 1388.05 813.853 1375.47C808.411 1357.1 805.69 1352.34 800.248 1352.34C796.507 1352.34 793.446 1351.32 793.445 1349.96C793.785 1348.6 795.486 1344.86 797.867 1341.79C801.268 1337.37 799.907 1325.81 792.085 1283.98C786.983 1255.41 777.8 1219.36 772.019 1204.39C766.237 1189.43 756.713 1172.42 750.932 1165.96L740.729 1154.73C755.013 1140.79 763.856 1125.83 769.638 1112.56C775.76 1098.96 781.881 1077.87 783.582 1063.25C785.623 1049.3 790.045 1023.45 793.786 1005.43C798.548 982.639 799.568 972.096 796.847 969.715C795.146 968.014 793.446 965.294 793.445 963.934C793.445 962.573 796.166 961.213 799.567 961.213C803.649 961.213 807.05 955.77 811.472 940.806C814.533 929.582 817.253 919.039 817.253 916.998C817.253 915.298 816.232 913.597 814.872 913.597ZM2187.21 910.196C2182.11 910.196 2182.11 911.557 2186.53 926.521C2189.25 935.364 2192.66 946.928 2194.02 952.029C2195.38 957.811 2198.78 961.553 2202.52 961.553C2205.58 961.213 2208.3 963.253 2208.3 965.634C2208.3 968.015 2206.94 971.416 2204.9 973.116C2202.52 975.497 2203.88 989.782 2210 1019.03C2214.76 1042.5 2218.5 1064.95 2218.5 1069.37C2218.5 1073.45 2223.95 1090.45 2230.41 1106.78C2237.21 1123.1 2246.73 1140.79 2251.83 1145.89L2261.02 1155.08C2244.69 1174.8 2235.85 1190.79 2231.09 1202.69C2226.33 1214.93 2220.54 1237.04 2218.5 1252.01C2216.46 1266.97 2211.7 1291.8 2207.96 1307.44C2203.54 1327.51 2202.52 1337.37 2204.9 1342.13C2206.94 1345.88 2208.3 1349.96 2208.3 1350.64C2208.3 1351.66 2205.58 1353.02 2202.52 1353.7C2198.44 1354.38 2194.36 1361.18 2190.62 1374.79C2187.21 1386.01 2185.51 1395.87 2186.19 1396.55C2187.21 1397.57 2193 1396.21 2199.12 1393.15C2204.9 1390.43 2214.42 1384.31 2219.86 1379.55C2225.31 1375.13 2233.81 1362.88 2238.91 1352.34C2244.01 1342.13 2255.58 1310.16 2264.42 1280.92C2273.6 1252.01 2284.83 1219.02 2289.93 1207.79C2294.69 1196.57 2303.87 1180.24 2309.65 1171.4L2320.54 1155.08C2305.57 1132.63 2297.07 1118.68 2292.65 1109.16C2287.89 1099.98 2274.62 1063.25 2263.06 1027.53C2251.83 991.823 2237.55 954.75 2231.43 944.547C2224.29 932.303 2215.44 923.12 2206.6 918.019C2199.12 913.937 2190.27 910.536 2187.21 910.196ZM1514.82 1352.34C1511.42 1352.68 1507 1355.4 1504.61 1358.46C1500.53 1363.9 1500.19 1363.9 1497.13 1358.46C1495.09 1355.06 1491.01 1352.34 1487.95 1352.34C1483.53 1352.34 1483.87 1354.38 1490.67 1365.94C1495.09 1373.42 1499.51 1379.89 1500.53 1379.89C1501.21 1379.89 1506.32 1373.76 1511.42 1365.94C1519.58 1354.38 1519.92 1352.34 1514.82 1352.34ZM1432.85 1264.25C1427.07 1264.25 1428.09 1266.97 1440.33 1286.7C1448.16 1298.94 1456.66 1310.17 1459.04 1311.19C1461.42 1312.55 1464.14 1312.55 1465.16 1311.87C1465.84 1310.84 1460.74 1299.62 1452.92 1287.04C1443.74 1271.39 1437.27 1264.25 1432.85 1264.25ZM1214.84 1195.89C1213.82 1196.23 1197.15 1221.06 1177.43 1251.33C1158.04 1281.26 1141.38 1307.44 1141.04 1309.14C1140.7 1310.5 1174.71 1311.87 1216.54 1311.87H1293.07C1264.84 1270.03 1259.06 1263.91 1253.27 1264.25C1249.19 1264.25 1245.45 1263.23 1245.45 1261.53C1245.45 1260.17 1247.49 1257.11 1249.87 1255.07C1253.27 1251.67 1250.21 1245.54 1235.25 1223.44C1225.04 1208.13 1215.86 1195.89 1214.84 1195.89ZM1568.55 1264.25C1565.83 1264.25 1556.99 1274.79 1549.17 1288.06C1537.27 1307.44 1535.56 1311.87 1540.67 1311.53C1544.07 1311.53 1550.87 1304.72 1556.65 1295.54C1562.09 1286.7 1568.21 1275.81 1570.25 1271.73C1573.32 1265.61 1572.98 1264.25 1568.55 1264.25ZM1397.48 1292.82C1393.4 1287.04 1392.04 1286.7 1389.66 1291.12C1388.3 1293.84 1384.9 1299.62 1382.51 1304.04C1378.09 1311.18 1378.43 1311.53 1393.4 1311.53C1406.66 1311.53 1408.36 1310.84 1405.3 1305.74C1403.6 1302.34 1400.2 1296.56 1397.48 1292.82ZM1609.03 1287.72C1607.67 1287.72 1604.61 1291.8 1602.23 1297.24C1599.5 1302.34 1597.12 1307.44 1596.78 1309.14C1596.1 1310.5 1601.89 1311.53 1609.37 1311.53C1616.85 1311.53 1622.29 1310.5 1621.95 1309.14C1621.27 1307.44 1618.55 1302.34 1615.83 1296.9C1613.11 1291.8 1610.05 1287.72 1609.03 1287.72ZM2038.93 1192.83C2036.88 1192.83 2014.44 1219.36 1989.61 1251.33L1944.04 1310.17C2018.18 1311.53 2060.01 1311.53 2084.84 1311.19L2129.74 1310.17C2062.39 1219.36 2040.97 1192.83 2038.93 1192.83ZM967.582 1192.83C965.541 1192.83 943.774 1218.68 919.286 1250.65C894.798 1282.28 875.412 1309.14 875.752 1310.17C876.102 1310.85 917.592 1311.52 967.582 1310.84L1058.39 1310.17C991.053 1219.36 969.965 1192.83 967.582 1192.83ZM1787.25 1196.91C1785.88 1196.57 1777.04 1208.13 1768.2 1222.42C1754.25 1245.2 1752.21 1249.97 1755.62 1256.43C1758.68 1263.57 1758.34 1264.25 1749.83 1264.25C1742.01 1264.25 1737.93 1268.33 1726.03 1286.36C1718.2 1298.6 1712.08 1309.14 1712.42 1310.17C1712.77 1310.85 1747.12 1311.52 1788.61 1310.84L1863.77 1310.17C1806.63 1223.1 1788.95 1197.59 1787.25 1196.91ZM1651.54 1278.53C1656.64 1286.36 1662.08 1295.2 1663.79 1298.26C1665.49 1300.98 1667.19 1302.34 1668.21 1301.66C1668.89 1300.64 1674.33 1292.48 1680.11 1283.64C1686.23 1274.79 1690.99 1266.63 1690.99 1265.95C1690.99 1264.93 1680.11 1264.25 1666.85 1264.25H1642.7L1651.54 1278.53ZM632.574 1008.83C628.493 1009.17 618.97 1011.89 611.487 1015.29C604.005 1018.69 591.76 1026.51 584.618 1032.98C577.136 1039.44 558.77 1059.84 543.465 1078.55C527.82 1097.26 505.033 1122.42 492.108 1134.33L468.641 1155.75C504.012 1188.41 528.161 1214.59 545.166 1235C562.512 1255.75 581.217 1276.49 586.999 1281.6C592.781 1286.7 603.665 1293.16 610.467 1295.88C617.609 1298.94 627.132 1301.32 631.894 1301.32C640.056 1301.32 640.396 1300.98 638.355 1280.24C637.335 1268.33 633.934 1248.27 631.554 1235C628.833 1222.08 622.371 1204.39 617.609 1195.89C612.848 1187.73 605.365 1174.8 601.624 1168L594.481 1155.42C606.045 1135.35 614.208 1119.7 620.33 1107.46C628.153 1091.81 632.574 1076.17 635.635 1053.04C638.015 1035.36 640.056 1018.01 640.057 1014.95C640.283 1010.87 637.789 1008.83 632.574 1008.83ZM2378.02 1010.19C2365.77 1008.15 2365.77 1008.15 2365.09 1019.37C2364.75 1025.83 2367.13 1044.88 2369.85 1061.54C2372.91 1078.55 2378.7 1099.3 2383.12 1107.46C2387.2 1115.96 2395.36 1130.59 2400.8 1140.45L2410.67 1157.8C2396.72 1178.2 2388.9 1191.81 2384.14 1200.99C2379.38 1210.51 2373.93 1225.82 2372.23 1235C2370.19 1244.52 2367.13 1263.23 2365.77 1276.83L2363.05 1301.32C2377.33 1301.32 2386.86 1299.28 2393.66 1296.22C2400.12 1293.5 2412.37 1284.66 2421.21 1276.83C2429.71 1268.67 2449.44 1246.9 2464.74 1228.2C2480.05 1209.49 2502.15 1186.02 2514.06 1175.48L2535.15 1156.78C2485.83 1106.78 2460.32 1078.55 2446.38 1061.88C2432.09 1044.88 2413.73 1026.85 2405.56 1021.75C2397.06 1016.65 2384.48 1011.21 2378.02 1010.19ZM1321.29 1281.6C1327.42 1291.46 1333.54 1299.62 1334.9 1300.3C1336.26 1300.98 1342.04 1293.84 1347.48 1284.66C1353.27 1275.13 1357.69 1266.97 1357.69 1265.95C1357.68 1264.93 1347.14 1264.25 1334.22 1264.25H1310.41L1321.29 1281.6ZM1909.34 1024.81C1903.9 1018.69 1903.22 1019.03 1893.02 1033.32C1887.24 1041.48 1866.49 1072.43 1847.1 1102.36L1811.39 1156.78L1903.9 1297.24C1985.53 1191.13 2009 1158.82 2009 1156.78C2009 1155.07 1987.57 1125.82 1961.72 1092.15C1935.87 1058.48 1912.41 1028.21 1909.34 1024.81ZM1100.9 1019.03C1098.86 1019.03 1074.03 1049.3 1045.81 1086.37C1017.24 1123.1 994.111 1155.07 994.11 1156.78C993.77 1158.82 1017.24 1190.45 1045.81 1227.52C1074.37 1264.59 1098.86 1294.51 1099.88 1293.84C1101.24 1293.5 1122.33 1262.21 1146.82 1224.8L1191.71 1156.78C1155.32 1101.68 1135.94 1070.39 1124.71 1052.36C1113.49 1034 1102.6 1019.03 1100.9 1019.03ZM836.64 1022.43C835.619 1022.43 833.579 1025.15 832.898 1028.55C831.878 1031.61 829.497 1046.58 827.456 1061.54C825.415 1076.51 822.695 1108.14 821.675 1131.27C820.655 1155.42 821.334 1191.47 823.715 1214.59C825.756 1237.04 829.497 1263.91 831.878 1274.11L835.959 1292.82C918.946 1185.34 938.672 1156.78 937.312 1154.39C935.95 1152.01 913.163 1121.4 886.976 1086.37C860.449 1051.34 837.663 1022.44 836.64 1022.43ZM2167.15 1024.13C2165.79 1023.45 2144.36 1049.98 2119.53 1082.63C2094.36 1115.28 2071.24 1145.21 2068.18 1149.29C2062.39 1156.78 2063.41 1158.14 2113.41 1223.1C2141.64 1259.83 2165.45 1289.76 2166.81 1290.44C2168.17 1290.78 2170.89 1280.23 2173.61 1266.63C2175.99 1253.03 2179.39 1222.76 2181.09 1199.29C2183.13 1176.16 2183.47 1143.85 2182.45 1127.87C2181.43 1112.22 2178.03 1082.29 2174.97 1062.22C2171.57 1041.82 2168.17 1024.81 2167.15 1024.13ZM1514.14 1265.95C1513.8 1263.91 1511.08 1265.95 1507.33 1270.03L1500.53 1277.85C1492.03 1264.93 1490.33 1263.91 1490.33 1267.65C1490.33 1270.37 1492.71 1276.49 1495.77 1281.26L1501.21 1289.76C1511.08 1273.77 1514.14 1267.65 1514.14 1265.95ZM1552.23 1199.63C1550.87 1199.63 1546.79 1204.05 1543.73 1209.83C1540.67 1215.27 1537.95 1220.72 1537.95 1221.74C1537.95 1222.76 1539.31 1223.44 1540.67 1223.44C1542.03 1223.44 1545.77 1219.02 1549.17 1213.23C1552.57 1207.45 1554.95 1202.35 1554.95 1201.33C1554.95 1200.31 1553.93 1199.63 1552.23 1199.63ZM1668.21 1196.23C1666.51 1196.23 1662.09 1202.35 1658 1209.83L1650.18 1223.44C1676.71 1223.44 1684.19 1222.76 1684.19 1221.74C1684.19 1220.72 1681.13 1214.59 1677.39 1208.13C1673.65 1201.67 1669.57 1196.23 1668.21 1196.23ZM1336.26 1196.23C1335.24 1196.23 1330.48 1202.01 1325.38 1208.81L1316.87 1221.74C1342.04 1223.1 1349.86 1223.1 1350.21 1222.76C1350.88 1222.08 1348.5 1215.95 1345.1 1208.81C1341.36 1202.01 1337.62 1196.23 1336.26 1196.23ZM1276.06 1104.4C1274.7 1104.4 1266.2 1116.3 1256.67 1130.59L1239.67 1157.12C1266.88 1198.27 1275.38 1210.17 1276.4 1209.83C1277.42 1209.83 1284.9 1198.61 1293.41 1185.34C1301.91 1171.74 1309.05 1159.5 1309.73 1158.14C1310.07 1156.43 1303.27 1143.85 1294.43 1129.91C1285.24 1115.62 1277.08 1104.06 1276.06 1104.4ZM1710.04 1127.53C1700.86 1141.81 1693.38 1155.07 1693.71 1157.12C1693.71 1158.82 1700.86 1171.4 1709.36 1185C1718.2 1198.61 1726.03 1209.83 1727.05 1209.83C1728.07 1209.83 1736.23 1198.27 1745.75 1184.32C1754.93 1170.38 1762.76 1158.14 1762.76 1157.12C1762.76 1156.09 1754.59 1143.17 1744.39 1128.21L1726.37 1101.34L1710.04 1127.53ZM1382.17 1172.08C1367.89 1147.93 1365.51 1145.55 1362.11 1150.99C1359.39 1155.75 1360.41 1159.84 1367.21 1170.72C1371.97 1178.2 1379.79 1190.45 1384.22 1197.93C1391.36 1209.49 1393.06 1210.51 1395.78 1205.41C1397.82 1200.99 1394.42 1192.49 1382.17 1172.08ZM1640.66 1150.31C1638.62 1149.29 1631.82 1156.44 1625.69 1166.3C1619.23 1176.16 1612.09 1188.07 1609.71 1192.83C1607.33 1197.59 1606.31 1203.71 1607.67 1206.43C1609.03 1209.83 1614.81 1203.37 1626.71 1185C1635.9 1170.72 1643.72 1157.46 1643.72 1155.75C1644.06 1153.71 1642.7 1151.33 1640.66 1150.31ZM1394.42 1104.4C1393.4 1104.4 1388.3 1110.18 1383.54 1116.98C1378.43 1124.12 1374.69 1131.61 1374.69 1133.99C1375.03 1137.05 1381.15 1138.41 1393.74 1138.41C1403.94 1138.41 1412.44 1137.73 1412.44 1136.71C1412.44 1135.69 1409.04 1128.21 1404.62 1119.7C1400.2 1111.2 1395.78 1104.4 1394.42 1104.4ZM1494.75 1121.74C1490.67 1128.21 1487.27 1134.33 1487.27 1135.69C1487.27 1137.39 1493.39 1138.41 1500.87 1138.41C1509.38 1138.41 1514.48 1136.71 1514.48 1133.99C1514.48 1131.95 1511.76 1125.49 1508.36 1120.04L1502.57 1110.18L1494.75 1121.74ZM1609.71 1104.4C1608.69 1104.4 1604.61 1110.52 1600.18 1118C1596.1 1125.49 1592.7 1132.97 1592.7 1135.01C1592.7 1136.71 1601.21 1138.41 1611.41 1138.41C1621.61 1138.41 1630.11 1137.39 1630.11 1135.69C1630.11 1134.33 1625.69 1126.85 1620.59 1118.68C1615.49 1110.86 1610.73 1104.4 1609.71 1104.4ZM965.201 1002.37C915.549 1002.37 875.078 1003.39 875.412 1004.75C875.412 1006.11 895.479 1033.66 920.307 1065.97L965.201 1124.46C1035.26 1035.02 1055.33 1007.47 1055.33 1005.77C1055.33 1003.39 1023.02 1002.37 965.201 1002.37ZM2035.87 1002.03C1979.41 1002.03 1946.08 1003.39 1946.76 1005.43C1947.44 1007.13 1961.72 1026.51 1978.73 1048.62C1995.39 1070.39 2015.46 1096.58 2022.94 1106.44L2036.54 1124.46C2103.55 1037.4 2123.95 1010.19 2124.97 1007.13C2126.33 1002.71 2115.11 1002.03 2035.87 1002.03ZM2492.29 784.355C2491.27 784.356 2488.21 788.097 2485.49 792.178C2482.77 796.259 2476.99 808.163 2472.23 818.366C2467.8 828.91 2458.62 855.439 2451.48 877.886C2444.68 899.993 2435.49 926.181 2431.41 935.704C2426.99 945.227 2419.17 958.151 2413.73 964.613C2405.56 973.796 2404.54 976.517 2408.62 977.878C2411.69 978.898 2422.23 985.36 2432.43 992.162C2444.34 1000.32 2465.42 1021.75 2490.25 1051.68C2512.02 1077.19 2536.17 1103.72 2544.67 1110.52L2559.63 1122.76C2556.23 1064.95 2552.15 1026.51 2548.41 1000.33C2544.67 974.477 2536.85 933.664 2531.06 910.196C2525.62 887.069 2514.74 848.977 2507.6 826.189C2500.45 803.402 2493.65 784.355 2492.29 784.355ZM512.855 784.355C511.835 784.355 510.814 785.716 509.794 787.076C509.114 788.437 502.992 806.463 496.53 826.869C489.728 847.616 481.905 872.784 479.185 882.987C476.464 893.531 471.022 916.659 466.94 935.024C463.199 953.39 457.758 982.98 455.037 1001.35C452.316 1019.71 449.255 1048.28 448.234 1064.95C446.874 1081.95 445.173 1100.66 444.493 1106.78C443.36 1114.26 444.267 1118 447.214 1118C449.595 1118 463.539 1105.42 478.504 1089.77C493.469 1074.47 516.596 1048.62 529.86 1032.64C543.805 1015.97 561.831 998.624 573.055 991.142C583.938 984 594.141 978.218 595.842 978.218C597.882 978.218 593.461 969.715 586.319 958.832C579.177 947.949 569.994 930.943 566.253 920.399C562.172 910.196 553.668 884.687 546.866 863.601C540.404 842.514 530.201 816.325 524.419 804.762C518.978 793.539 513.536 784.357 512.855 784.355ZM1215.18 1002.37C1174.03 1002.37 1140.36 1003.39 1140.7 1004.75C1140.7 1006.11 1157.02 1032.3 1177.09 1062.57C1197.16 1092.84 1214.16 1118 1215.18 1118C1216.2 1118 1225.39 1105.76 1235.59 1090.79C1250.55 1068.69 1253.61 1062.57 1250.21 1059.16C1247.83 1056.78 1245.79 1053.72 1245.79 1052.36C1245.79 1051 1249.53 1049.98 1254.29 1049.98C1261.1 1049.98 1265.86 1045.56 1276.4 1028.55C1284.22 1016.99 1290.34 1006.11 1290 1004.75C1290 1003.39 1256.33 1002.37 1215.18 1002.37ZM1667.19 1090.79C1654.26 1090.79 1650.52 1091.81 1652.56 1094.88C1653.92 1097.26 1657.66 1103.38 1661.4 1108.48L1667.53 1118C1680.79 1099.64 1684.53 1093.52 1684.53 1092.5C1684.53 1091.47 1676.71 1090.79 1667.19 1090.79ZM1785.88 1002.03C1744.73 1002.03 1711.4 1003.39 1712.08 1005.09C1712.76 1006.45 1719.56 1017.33 1727.05 1028.89C1738.61 1046.58 1742.01 1049.64 1750.51 1049.64C1758.68 1049.64 1759.7 1050.66 1756.29 1054.06C1754.25 1056.44 1752.21 1060.52 1752.55 1063.25C1752.55 1066.31 1759.7 1079.57 1768.54 1093.17C1777.38 1106.44 1785.55 1117.66 1786.57 1117.66C1787.25 1117.99 1804.6 1093.51 1824.66 1063.58C1844.72 1033.32 1861.39 1007.47 1861.39 1005.43C1861.39 1003.39 1833.84 1002.03 1785.88 1002.03ZM1553.59 1090.79C1545.09 1090.79 1538.29 1091.47 1538.29 1092.5C1538.29 1093.52 1541.69 1099.3 1545.77 1105.76L1553.59 1117.32C1565.49 1099.3 1568.89 1093.52 1568.89 1092.5C1568.89 1091.47 1562.09 1090.79 1553.59 1090.79ZM1322.66 1099.98C1326.06 1105.08 1330.14 1111.2 1332.18 1113.58C1334.9 1116.98 1337.62 1115.28 1343.4 1106.1C1347.82 1099.3 1351.22 1093.17 1351.22 1092.15C1351.22 1091.47 1343.4 1090.45 1333.88 1090.45H1316.87L1322.66 1099.98ZM1439.65 1102.7C1443.39 1109.16 1447.82 1114.6 1449.52 1114.6C1451.56 1114.6 1455.98 1109.16 1459.72 1102.7L1466.52 1090.79H1432.85L1439.65 1102.7ZM2132.12 614.641C2130.42 614.641 2130.42 618.042 2131.78 622.123C2133.14 626.544 2148.44 658.175 2165.79 692.866C2183.13 727.557 2199.8 764.97 2203.2 776.193C2207.28 790.138 2208.64 803.402 2207.28 818.707C2206.26 831.631 2202.86 846.936 2198.44 855.099C2193 865.981 2192.32 870.062 2195.38 871.083C2197.76 872.103 2204.9 874.145 2211.36 876.186C2218.16 877.886 2231.09 886.388 2240.27 894.551C2249.79 902.713 2262.04 916.999 2267.48 926.182C2272.92 935.365 2287.89 974.817 2300.47 1014.27C2313.39 1053.72 2325.64 1087.05 2327.34 1089.09C2329.61 1091.36 2330.74 1090.79 2330.74 1087.39C2330.74 1084.67 2328.02 1064.6 2325.3 1043.18C2322.24 1021.75 2315.44 990.121 2310.33 973.456C2304.89 956.791 2297.75 929.923 2294.69 913.938C2291.63 897.952 2282.78 869.723 2275.3 851.017C2267.82 832.311 2257.96 809.184 2253.2 800.001C2248.43 790.478 2240.61 776.873 2235.17 769.391C2230.07 761.908 2218.84 741.842 2209.66 725.177C2200.82 708.512 2185.51 684.704 2175.65 672.46C2166.13 660.216 2152.86 642.189 2146.4 632.326C2140.28 622.804 2133.48 614.641 2132.12 614.641ZM866.569 621.443C865.889 621.443 852.625 638.789 836.64 659.535C820.655 680.622 799.908 711.912 790.725 728.577C781.202 745.242 767.937 768.37 761.135 779.594C754.673 790.817 741.409 818.366 732.226 840.813C723.043 863.261 712.84 893.19 710.119 907.135C707.058 921.079 699.915 947.948 694.474 966.654C689.032 985.36 682.23 1017.33 679.509 1038.08C676.448 1058.82 674.067 1077.87 674.067 1080.59C674.067 1083.99 675.087 1084.56 677.128 1082.29C678.829 1080.25 689.032 1051.34 699.915 1017.67C710.458 984.001 723.042 949.31 727.464 940.126C731.885 931.283 742.089 916.998 749.911 908.495C757.734 899.992 772.018 889.449 781.201 884.688C790.724 880.266 800.928 876.525 804.329 876.525C807.73 876.525 810.451 875.505 810.451 873.805C810.451 872.444 806.37 863.601 801.269 854.418C795.147 843.194 791.405 830.27 790.385 817.006C789.364 803.742 791.065 789.457 794.806 776.193C797.867 764.97 814.192 729.598 830.857 697.968C847.183 666.338 862.148 636.068 864.188 630.626C865.889 625.526 866.909 621.445 866.569 621.443ZM1456.66 1002.37L1443.05 1023.11C1435.91 1034.68 1429.79 1045.56 1429.79 1046.92C1429.45 1048.62 1443.39 1049.98 1460.06 1049.98C1487.95 1049.98 1491.35 1049.3 1496.11 1042.16L1501.55 1034.68C1512.44 1049.64 1515.5 1050.32 1542.71 1049.98C1560.05 1049.98 1572.3 1048.62 1572.3 1046.58C1572.3 1044.54 1566.51 1034 1559.71 1022.43L1546.79 1002.03L1456.66 1002.37ZM1336.94 1013.59C1335.92 1012.91 1329.8 1019.71 1323.68 1028.89C1317.21 1037.74 1312.45 1046.24 1313.13 1047.6C1313.47 1048.62 1323.68 1049.64 1335.92 1049.64C1347.82 1049.64 1358.03 1048.96 1358.03 1047.94C1358.03 1047.26 1353.61 1039.1 1348.5 1030.59C1343.4 1021.75 1338.3 1014.27 1336.94 1013.59ZM1667.19 1012.23C1666.17 1012.23 1661.4 1018.69 1656.3 1026.85C1651.2 1034.68 1647.12 1043.18 1647.12 1045.56C1647.12 1048.28 1653.24 1049.64 1667.53 1049.64C1678.75 1049.64 1687.93 1048.28 1687.93 1046.24C1687.93 1044.54 1683.51 1036.04 1678.41 1027.53C1673.31 1019.03 1668.21 1012.23 1667.19 1012.23ZM1393.74 1002.37C1387.28 1002.37 1381.83 1003.05 1381.83 1004.07C1381.84 1005.09 1384.22 1010.53 1387.28 1016.65L1392.72 1027.87C1402.92 1011.89 1405.64 1006.11 1405.64 1004.75C1405.64 1003.39 1400.2 1002.37 1393.74 1002.37ZM1609.71 1002.03C1604.27 1002.03 1598.83 1003.39 1598.14 1004.75C1597.12 1006.11 1599.51 1011.21 1602.91 1015.63L1609.71 1024.13C1619.57 1011.21 1621.95 1006.11 1621.27 1004.75C1620.59 1003.39 1615.15 1002.03 1609.71 1002.03ZM2275.98 688.444C2267.82 687.424 2256.6 687.424 2251.49 688.104C2246.39 688.785 2241.97 690.485 2241.97 691.846C2241.97 693.206 2250.47 709.871 2261.36 728.577C2271.9 747.283 2284.49 766.67 2289.25 772.111C2294.35 777.553 2307.27 788.096 2318.16 795.919L2338.22 810.204C2334.82 833.671 2333.12 849.656 2331.76 860.88C2330.4 877.545 2332.1 889.449 2341.28 923.12L2352.51 964.954C2374.61 949.309 2384.14 937.745 2390.6 925.501C2396.38 914.277 2407.6 884.688 2415.43 859.18C2423.59 834.012 2435.15 803.062 2441.62 790.478C2447.74 777.895 2453.18 766.332 2453.18 764.97C2453.18 763.609 2444.34 759.527 2433.45 756.126C2422.57 752.725 2400.12 742.862 2383.12 734.359C2366.45 726.197 2346.38 715.654 2338.9 711.232C2331.42 706.811 2317.82 700.349 2308.29 696.607C2299.11 692.866 2284.49 689.125 2275.98 688.444ZM1463.12 477.577C1462.44 476.897 1450.2 477.577 1435.91 478.938C1421.97 480.298 1391.36 485.4 1367.89 490.161C1344.76 494.923 1308.71 504.105 1287.96 510.567C1267.56 517.37 1229.13 533.014 1202.94 545.938C1176.75 558.863 1139.34 580.289 1119.61 593.554C1100.22 606.818 1069.61 630.286 1051.93 645.931C1034.24 661.236 1007.03 688.785 991.39 706.471C975.405 724.156 951.597 755.447 937.652 776.193C924.048 796.94 906.702 825.169 899.22 839.113C891.737 853.058 878.813 881.287 870.311 902.033C862.148 922.78 854.325 944.547 853.305 950.329L850.924 961.553C1040.02 961.553 1061.45 960.532 1059.41 957.131C1058.05 955.088 1032.88 916.317 1003.63 871.424L949.896 789.797L1198.18 786.396C1118.93 657.155 1095.8 618.722 1095.8 617.021C1095.81 615.661 1155.33 614.641 1227.77 614.641H1359.39C1404.96 555.462 1428.77 524.512 1441.69 508.187C1454.62 491.863 1464.14 477.919 1463.12 477.577ZM1454.62 828.91L1411.42 895.231L1367.89 961.213L1434.21 961.553C1484.55 881.63 1499.85 858.161 1500.53 857.479C1501.55 857.141 1516.86 879.587 1534.54 907.815C1552.57 936.043 1568.55 959.509 1570.25 960.192C1572.3 960.873 1587.26 961.212 1603.59 960.532L1633.18 959.512L1548.15 828.569L1454.62 828.91ZM1569.58 479.277C1548.83 477.577 1541.69 477.917 1542.37 480.978C1542.71 483.018 1565.83 513.968 1593.38 549.68L1643.38 614.641C1849.15 614.641 1908.66 615.321 1908.66 616.342C1908.66 617.369 1885.53 655.798 1856.63 702.049L1804.59 786.396C1996.04 787.757 2051.49 788.777 2051.51 789.797C2051.51 790.817 2027.36 828.57 1997.43 873.805C1967.5 919.379 1943.02 957.472 1943.02 958.832C1943.02 960.532 1990.29 961.553 2048.11 961.553H2153.54C2145.38 934.004 2138.58 915.297 2133.14 902.033C2127.69 888.769 2114.43 862.921 2103.89 844.215C2093.34 825.509 2072.26 791.158 2056.95 767.69C2041.65 744.223 2017.5 712.253 2003.21 696.268C1989.27 680.283 1962.4 654.774 1944.04 639.129C1925.67 623.484 1896.76 601.717 1879.75 590.493C1863.09 579.27 1828.74 559.543 1803.23 546.959C1778.06 534.375 1738.27 517.71 1714.8 510.228C1691.67 502.405 1655.62 492.882 1634.88 489.141C1614.47 485.059 1584.88 480.638 1569.58 479.277ZM742.089 687.425C729.165 686.404 717.941 687.764 704.677 692.186C694.473 695.587 663.864 710.212 636.655 724.156C609.787 738.101 579.176 752.385 568.633 755.786C558.43 758.847 549.588 761.908 549.247 761.908C548.907 762.248 553.669 773.132 560.471 786.056C566.933 799.32 579.177 832.311 588.02 859.18C596.522 886.388 607.406 915.978 612.508 925.161C617.609 934.344 626.452 946.248 632.574 951.689C638.696 957.131 645.837 961.213 648.559 961.213C651.62 961.213 654.341 957.471 655.021 952.029C655.702 946.927 660.463 927.201 665.225 908.495C674.067 875.845 674.068 873.464 669.986 842.854L665.564 810.884C686.311 794.559 699.236 783.335 707.738 775.513C717.261 767.01 731.206 747.964 743.109 726.877C753.993 708.171 762.156 691.846 761.815 690.825C761.474 690.145 752.631 688.445 742.089 687.425ZM1493.05 944.207C1487.95 951.689 1484.21 958.83 1484.89 959.512C1485.23 960.532 1493.39 960.872 1502.91 960.532L1520.26 959.512L1502.23 930.263L1493.05 944.207ZM1233.21 845.915C1231.51 845.915 1211.1 871.424 1187.29 902.714L1143.76 959.512C1265.18 961.212 1300.89 960.532 1301.91 959.852C1302.93 958.827 1288.3 932.641 1269.6 901.693C1250.89 871.084 1234.57 845.916 1233.21 845.915ZM1769.56 845.575C1768.54 845.575 1752.21 871.424 1733.17 902.714L1698.14 959.512C1819.22 961.212 1855.27 960.532 1856.29 959.852C1857.31 958.83 1838.6 932.642 1814.79 901.693C1790.65 870.744 1770.58 845.576 1769.56 845.575ZM1107.37 828.569C1041.39 828.569 1024.38 829.59 1026.42 832.991C1028.12 835.373 1045.47 862.242 1065.19 892.851L1100.9 948.288C1170.96 858.165 1191.03 831.294 1191.03 830.271C1191.03 829.59 1153.62 828.569 1107.37 828.569ZM1893.02 828.569C1826.02 828.569 1809.69 829.59 1812.41 832.991C1814.45 835.372 1834.18 860.88 1856.29 889.789C1878.39 919.038 1897.44 943.867 1898.46 945.228C1899.48 946.926 1917.85 922.099 1938.93 890.13C1959.68 858.162 1977.02 831.294 1977.03 830.271C1977.03 829.59 1939.27 828.569 1893.02 828.569ZM1338.64 828.569C1301.91 828.569 1272.66 829.93 1273.34 831.631C1274.02 832.992 1288.3 856.799 1304.97 884.008C1321.97 911.555 1336.6 934 1337.28 934.004C1338.3 934.004 1353.61 911.556 1371.29 884.348C1389.32 856.799 1404.28 832.992 1404.62 831.631C1404.96 829.93 1375.37 828.569 1338.64 828.569ZM1601.21 838.093C1604.61 843.194 1620.59 867.003 1636.58 891.15C1652.56 914.958 1666.85 933.323 1667.87 931.963C1669.23 930.26 1684.19 906.453 1701.2 878.906L1732.15 828.91H1594.74L1601.21 838.093ZM1850.85 488.801C1846.42 489.141 1836.22 491.181 1828.74 494.242C1821.26 496.963 1814.45 499.684 1813.43 500.704C1812.75 501.724 1812.75 503.085 1813.43 503.425C1814.45 504.105 1827.38 511.248 1842.34 519.41C1857.31 527.573 1879.76 540.497 1891.66 548.319C1903.9 556.142 1924.65 570.767 1937.57 580.63C1950.84 590.493 1971.92 603.077 1984.51 608.519C1998.45 614.3 2013.42 618.042 2022.6 618.042H2037.91C2037.91 642.19 2041.99 658.515 2047.43 671.439C2052.53 684.364 2065.79 706.811 2077.02 721.775C2088.24 736.74 2104.57 760.548 2113.07 774.492C2121.91 788.437 2134.5 811.564 2141.64 825.509L2154.22 851.017C2164.09 836.392 2165.45 826.869 2165.45 808.163V782.314C2112.05 674.84 2094.7 639.129 2092.66 633.347C2090.62 627.565 2086.88 613.28 2084.5 601.036L2080.08 578.93C2034.16 568.046 2006.96 556.142 1961.38 533.015C1926.01 514.649 1888.6 497.303 1878.05 494.242C1867.85 491.181 1855.61 488.801 1850.85 488.801ZM1175.73 497.303C1169.27 494.582 1156.68 492.202 1147.84 492.542C1139 492.542 1124.03 495.263 1114.51 498.664C1105.33 502.065 1077.1 515.669 1051.59 528.934C1026.42 542.198 997.511 556.142 986.968 560.224C976.764 564.305 958.739 569.407 946.835 571.447C933.911 573.828 924.047 577.569 922.347 580.63C920.986 583.351 917.585 596.615 914.524 609.539C911.123 623.824 899.9 650.693 885.955 677.562C873.371 702.049 856.366 735.72 847.863 752.386C836.64 775.173 832.558 788.097 831.197 803.401C830.177 818.026 831.198 826.869 835.279 834.691C838.34 840.813 842.081 845.914 843.441 845.915C844.802 845.915 852.964 834.011 861.127 819.387C869.63 805.102 890.717 771.771 908.402 745.583C925.748 719.395 945.474 686.064 951.937 671.439C958.739 656.135 963.16 639.809 963.16 631.646V618.042C987.308 618.042 1003.63 613.961 1016.9 608.859C1029.48 603.758 1051.25 590.833 1065.19 580.63C1079.48 570.427 1103.97 554.101 1119.61 544.238C1135.6 534.715 1157.36 522.471 1168.25 517.029C1179.13 511.928 1187.97 506.486 1187.97 504.785C1187.97 503.424 1182.53 500.023 1175.73 497.303ZM1331.84 715.653C1306.33 748.984 1282.86 778.913 1279.8 782.314C1274.7 788.096 1278.1 788.437 1354.29 788.437H1434.21C1484.55 711.572 1499.85 689.465 1500.53 689.465C1501.56 689.129 1517.2 711.575 1535.56 738.781L1568.55 788.097C1710.72 788.097 1724.66 787.417 1722.62 783.676C1721.26 781.295 1698.48 751.364 1672.29 717.354L1624.67 655.454H1378.43L1331.84 715.653ZM1503.25 760.548C1501.89 760.548 1497.13 766.329 1492.37 773.472L1483.53 786.056C1508.7 787.756 1516.52 787.756 1516.86 787.076C1517.54 786.735 1515.16 780.613 1511.76 773.472C1508.02 766.33 1504.27 760.548 1503.25 760.548ZM1758 655.114C1716.16 655.114 1681.13 656.134 1679.77 656.814C1678.41 657.835 1696.78 683.684 1720.24 713.953C1743.71 744.22 1764.11 769.727 1765.14 770.071C1766.5 770.411 1782.14 746.944 1799.83 717.694C1817.85 688.446 1832.82 662.599 1833.16 659.876C1833.84 656.135 1820.92 655.114 1758 655.114ZM1245.45 655.454C1202.6 655.454 1167.57 656.475 1167.57 657.835C1167.57 659.536 1181.17 682.664 1197.84 709.872C1214.5 737.08 1230.49 762.248 1232.87 765.989C1237.29 772.451 1240.35 769.391 1280.82 716.674C1304.63 685.725 1323.67 659.537 1323.68 657.835C1323.68 656.475 1288.64 655.454 1245.45 655.454ZM2270.88 446.287C2269.18 453.77 2269.18 475.876 2270.54 495.603C2271.56 515.329 2273.6 547.98 2274.96 568.727C2276.32 591.854 2275.64 611.92 2273.26 621.443C2271.22 629.946 2268.84 639.469 2267.82 642.53C2266.12 647.632 2267.82 648.652 2278.36 648.652C2285.51 648.652 2299.79 651.372 2309.99 654.773C2320.2 658.515 2350.81 672.8 2378.02 686.744C2405.22 701.029 2435.83 714.973 2446.04 718.374C2456.24 721.435 2465.08 723.136 2465.42 722.115C2466.1 721.089 2455.22 698.304 2441.62 671.779C2428.35 644.911 2403.86 603.418 2387.88 578.93C2371.89 554.782 2348.09 520.771 2334.82 504.105C2321.56 487.44 2302.51 464.312 2291.97 453.089L2273.26 432.683L2270.88 446.287ZM729.165 434.723C727.805 434.723 717.261 445.947 705.697 459.211C694.134 472.815 675.087 495.942 663.523 510.907C651.96 525.872 632.234 553.421 619.99 572.127C607.406 590.833 590.06 618.382 581.558 633.347C573.055 648.311 559.79 673.139 551.968 688.444C544.485 704.089 538.023 718.035 538.023 720.075C538.024 722.116 543.125 722.115 552.308 719.395C560.47 717.354 594.482 701.369 628.152 684.363C670.326 662.936 696.515 651.713 712.5 648.312C733.246 644.23 735.627 642.87 733.586 636.748C732.566 633.007 730.185 621.443 728.145 611.24C725.424 597.636 725.424 579.61 728.145 544.919C730.525 518.731 732.906 492.881 733.927 487.1C734.607 481.318 734.606 467.373 733.586 455.47C732.566 443.907 730.525 434.384 729.165 434.723ZM964.86 425.88C955.337 423.159 937.992 420.779 925.748 421.119C913.504 421.459 893.097 423.16 879.833 424.86C866.569 426.561 837.32 427.24 814.192 426.9C788.344 426.22 772.7 427.241 772.699 429.281C772.699 431.322 772.019 456.49 771.339 485.399C770.659 514.309 768.958 552.061 767.598 568.727C765.557 592.874 766.237 603.417 770.658 618.042C773.719 628.245 778.821 640.489 782.222 645.251L788.684 653.754C823.034 608.86 836.299 589.473 840.381 581.311C844.122 573.488 849.904 556.822 852.625 544.238C855.346 531.314 859.427 519.41 861.808 517.029C864.189 514.989 876.773 510.568 890.037 507.507C903.301 504.446 919.966 498.664 927.448 494.923C934.931 491.182 953.977 477.917 969.962 465.673L998.872 443.565C985.608 433.702 974.043 428.601 964.86 425.88ZM2064.09 421.119C2062.05 421.459 2054.57 422.479 2048.11 423.84C2041.65 425.2 2030.08 429.281 2022.6 433.022C2015.12 437.103 2009 441.864 2009 443.565C2009 445.606 2018.18 454.449 2029.4 462.952C2040.63 471.795 2056.61 483.699 2065.11 489.141C2073.62 494.582 2087.9 501.385 2097.42 504.105C2106.61 506.826 2120.55 510.227 2128.04 512.268C2140.62 515.329 2141.98 517.03 2146.06 531.994C2148.78 540.837 2152.86 555.802 2155.58 565.325C2158.99 576.209 2169.87 594.575 2186.19 616.342C2200.14 635.046 2213.06 650.69 2215.1 651.032C2216.8 651.712 2222.25 643.21 2227.35 632.326L2236.53 612.94C2231.77 531.315 2230.07 489.481 2230.07 467.374V426.9C2192.66 430.301 2157.96 428.941 2125.31 425.88C2094.03 423.159 2066.48 421.119 2064.09 421.119ZM1501.55 499.004C1499.85 499.004 1479.11 524.172 1455.64 555.122C1431.83 586.072 1412.78 611.92 1413.12 612.94C1413.47 613.621 1453.94 614.301 1502.91 613.621L1591.68 612.94C1524.01 524.52 1502.92 499.009 1501.55 499.004ZM1580.46 328.949C1573.66 328.949 1571.28 329.97 1573.66 332.351C1575.36 334.392 1603.93 344.254 1636.58 354.457C1669.23 364.66 1703.58 376.905 1713.1 381.326C1722.28 386.088 1736.91 395.61 1745.41 403.093C1753.91 410.235 1764.8 423.84 1769.56 433.022C1774.66 442.205 1779.76 454.789 1780.78 460.911L1782.82 471.795C1824.32 452.409 1833.16 450.368 1850.85 450.368C1863.09 450.368 1879.76 452.408 1888.26 454.789C1896.76 457.17 1912.07 462.952 1922.27 468.054C1932.47 473.155 1962.06 488.46 1987.57 501.725C2013.42 515.329 2035.53 525.192 2036.89 524.172C2038.59 523.151 2036.54 520.43 2032.8 518.39C2029.06 516.348 2014.44 505.465 2000.49 493.902C1986.55 482.679 1961.38 466.013 1944.38 456.83C1927.37 447.987 1902.54 433.023 1888.94 423.84C1875.67 414.657 1848.81 400.372 1829.42 392.209C1810.37 384.386 1782.48 373.504 1767.52 368.742C1752.55 363.981 1722.62 355.137 1701.2 349.695C1679.77 343.913 1646.1 337.111 1626.37 334.391C1606.65 331.33 1585.9 328.949 1580.46 328.949ZM1417.89 329.289C1412.1 329.629 1403.26 330.31 1398.5 331.33C1393.74 332.01 1374.69 334.731 1355.99 337.792C1337.28 340.853 1298.85 349.696 1270.96 357.858C1242.73 366.021 1202.26 379.966 1180.83 389.148C1159.4 397.991 1129.47 413.296 1114.51 422.819C1099.54 432.342 1075.06 446.626 1060.09 454.789C1045.13 462.952 1017.92 481.318 999.552 495.263C981.186 509.547 967.242 521.451 968.942 522.131C970.305 522.81 1000.57 508.866 1036.28 491.182C1083.56 468.054 1107.37 458.191 1124.71 455.13C1138.32 452.409 1154.98 451.729 1163.82 453.089C1172.33 454.109 1187.29 458.871 1196.82 463.633L1214.84 471.795C1218.24 454.789 1222.66 442.886 1226.75 434.383C1230.83 425.88 1239.67 414.317 1245.79 408.875C1252.25 403.093 1264.16 394.25 1272.66 389.488C1281.16 384.386 1318.92 370.102 1356.67 357.858C1394.76 345.616 1426.38 334.053 1427.41 332.351C1428.43 330.31 1424.35 329.289 1417.89 329.289ZM1499.51 339.152C1497.47 339.492 1491.69 342.553 1486.93 346.635C1482.17 350.716 1466.18 359.559 1451.22 366.361C1436.25 373.504 1400.2 386.428 1371.29 395.271C1342.38 404.113 1310.75 415.336 1301.57 419.758C1292.05 424.519 1279.46 433.023 1273.34 439.145C1267.22 444.926 1260.76 455.13 1258.71 461.592C1256.67 468.053 1255.65 473.834 1256.33 474.176C1257.01 474.856 1276.4 470.095 1299.87 463.633C1323.34 457.511 1361.43 449.007 1384.9 444.586C1408.36 440.505 1438.97 432.682 1452.92 426.9C1467.2 421.459 1483.19 412.276 1489.31 406.154L1500.53 395.271C1517.88 412.616 1533.52 421.459 1548.15 426.9C1562.09 432.342 1582.84 437.784 1594.06 439.145C1605.29 440.505 1631.14 445.267 1651.88 450.028C1672.63 454.45 1701.2 461.932 1715.48 466.693C1730.11 471.455 1742.01 473.836 1742.01 471.795C1742.01 469.754 1740.31 464.313 1738.27 458.871C1736.57 453.769 1729.77 444.586 1723.98 438.464C1717.86 432.002 1704.6 422.82 1694.4 417.378C1684.19 412.276 1659.02 403.093 1638.28 396.971C1617.53 390.849 1588.62 381.666 1573.66 376.225C1558.69 370.783 1536.92 360.239 1525.02 352.757C1513.46 345.275 1501.89 339.152 1499.51 339.152ZM1892.34 206.51C1889.28 206.85 1881.12 209.57 1874.65 213.312C1868.19 217.053 1849.15 224.195 1832.14 229.637C1815.13 235.419 1786.22 244.262 1767.52 250.044C1745.41 256.846 1728.41 264.328 1718.54 271.811C1710.72 277.933 1701.54 287.456 1698.14 292.558C1693.38 300.72 1693.38 302.421 1697.8 305.142C1700.52 306.842 1719.56 312.284 1740.31 317.386C1769.56 324.528 1782.14 325.888 1798.13 324.188C1809.35 323.167 1824.66 321.126 1832.14 319.766C1845.74 317.725 1845.74 317.726 1859.69 337.792C1867.51 348.675 1879.07 362.619 1885.2 368.401C1891.66 374.183 1911.05 386.768 1928.05 396.291C1945.4 406.154 1960.7 413.977 1962.06 413.977C1963.76 413.976 1965.8 408.195 1967.16 401.393C1968.52 394.25 1968.18 381.326 1966.48 372.483C1964.44 363.3 1950.84 331.33 1936.21 301.061C1921.25 270.451 1906.62 236.78 1903.9 226.236C1899.82 211.612 1896.76 206.51 1892.34 206.51ZM1106.69 203.108C1106.35 203.108 1105.33 205.15 1104.65 207.53C1103.63 209.571 1101.24 217.734 1099.2 225.216C1097.16 232.698 1082.2 266.369 1065.87 300.04C1041.73 351.056 1036.62 364.661 1035.26 381.666C1034.58 392.89 1035.26 405.474 1036.96 409.215C1039.68 416.357 1041.05 415.677 1075.4 396.291C1095.12 385.068 1113.83 373.504 1117.23 370.442C1120.63 367.041 1130.83 354.117 1139.34 341.193L1155.32 318.065C1192.39 322.487 1212.12 323.507 1223.34 322.827C1234.57 322.487 1255.99 318.746 1270.96 315.005C1285.92 310.924 1300.89 306.162 1303.95 304.802C1309.73 301.741 1309.73 301.4 1303.95 291.197C1300.89 285.415 1293.41 277.253 1287.96 272.831C1282.52 268.75 1270.96 261.947 1262.46 258.206C1253.95 254.805 1227.08 245.962 1202.94 239.16C1178.79 232.018 1147.16 221.134 1133.21 214.672C1119.27 208.211 1107.37 203.109 1106.69 203.108ZM1938.25 192.905C1936.89 192.905 1936.89 196.987 1937.91 202.429C1939.27 207.53 1943.02 218.414 1946.08 226.916C1949.48 235.419 1961.38 260.927 1972.95 284.055C1984.17 306.842 1996.75 334.73 2000.49 345.954C2004.24 357.178 2007.3 372.483 2007.3 379.966C2007.3 391.529 2008.32 393.23 2013.08 391.529C2016.48 390.509 2026 388.129 2034.5 386.088C2044.37 383.707 2066.14 383.026 2095.72 384.727C2120.89 385.747 2153.2 387.788 2167.15 388.809C2181.09 390.169 2200.14 389.828 2209.66 388.468L2226.67 386.088C2192.32 354.118 2160.69 328.949 2134.16 308.883C2107.63 289.156 2070.22 263.308 2050.83 251.744C2031.44 240.18 1998.79 222.155 1978.39 211.611C1957.98 201.408 1939.96 192.906 1938.25 192.905ZM1062.81 192.905C1061.11 192.905 1043.43 201.748 1022.68 212.632C1002.27 223.515 977.785 236.779 968.262 242.221C959.079 247.662 933.57 263.988 912.144 278.272C890.717 292.897 859.087 316.025 842.081 329.629C825.076 343.233 803.989 360.919 795.146 369.082C786.644 376.904 779.502 383.706 779.501 384.387C779.501 384.727 788.004 386.088 798.207 387.788C809.431 389.149 840.04 388.128 875.752 384.727C908.062 382.006 941.732 380.646 951.256 382.006C960.779 383.026 974.043 386.428 981.186 388.809C993.429 393.57 993.77 393.57 993.77 385.067C993.77 380.306 995.47 369.422 997.511 360.579C999.551 351.396 1013.84 317.385 1029.48 284.734C1045.13 252.084 1059.41 219.774 1061.45 213.312C1063.49 206.85 1065.19 199.368 1065.19 197.327C1065.19 194.947 1064.17 192.906 1062.81 192.905ZM1501.55 123.863C1499.51 122.503 1496.45 123.523 1494.75 126.244C1493.39 128.966 1483.53 140.189 1473.32 150.731C1463.12 161.275 1438.63 183.382 1418.91 199.707C1399.18 216.032 1378.77 235.419 1373.33 242.562C1367.55 249.704 1361.09 260.927 1358.71 267.049C1356.33 272.831 1354.29 281.674 1354.29 286.436C1354.29 291.197 1355.31 294.938 1357.01 294.938C1358.37 294.938 1374.01 292.558 1391.7 289.837C1409.38 287.456 1430.81 282.694 1439.31 279.633C1447.82 276.572 1464.82 268.069 1477.75 260.927L1500.53 247.323C1525.7 261.268 1539.65 269.089 1548.15 273.511C1556.65 277.932 1574 283.375 1587.26 286.096C1600.53 288.817 1619.23 291.877 1629.09 292.897C1646.1 294.938 1646.78 294.598 1646.78 286.436C1646.78 281.674 1644.4 272.151 1641.34 265.349C1638.62 258.206 1632.16 246.982 1627.05 240.86C1621.95 234.398 1601.21 215.012 1580.46 198.007C1559.71 180.661 1534.54 157.874 1524.34 146.65C1514.14 135.427 1503.94 125.225 1501.55 123.863ZM1463.12 100.056C1463.12 98.6952 1461.08 98.0144 1458.7 98.3545C1456.66 98.6946 1446.79 99.3755 1437.61 100.056C1428.09 100.396 1405.3 102.777 1386.6 104.817C1367.89 106.858 1335.92 111.279 1315.17 114.68C1294.43 118.421 1262.46 125.224 1243.75 129.985C1225.04 134.747 1193.07 144.27 1172.33 151.072C1151.58 157.534 1133.56 164.337 1131.51 166.037C1129.47 167.738 1136.96 172.839 1150.22 178.961C1162.46 184.403 1194.09 194.946 1220.96 202.769C1247.49 210.591 1276.4 220.455 1285.24 224.876C1294.43 229.297 1306.33 236.78 1311.77 241.541L1321.98 250.384C1331.84 230.998 1342.72 217.053 1352.25 206.85C1361.77 196.986 1384.9 176.239 1403.6 160.935C1422.31 145.29 1443.39 126.244 1450.54 117.741C1457.34 109.579 1463.12 101.757 1463.12 100.056ZM1552.91 99.0352C1547.13 98.3549 1541.69 98.6953 1540.33 100.056C1539.31 101.756 1542.37 107.878 1547.47 114.34C1552.57 120.802 1577.4 143.249 1602.57 164.336C1627.73 185.423 1652.56 207.87 1657.32 213.992C1662.08 220.114 1668.89 230.657 1672.63 237.119C1676.03 243.581 1679.43 249.363 1680.11 250.044C1680.45 250.384 1686.57 246.302 1693.71 240.521C1700.52 235.079 1713.1 227.597 1721.6 223.855C1730.11 220.114 1758 210.931 1783.84 203.108C1809.35 195.626 1840.64 184.743 1853.23 179.301C1867.51 172.839 1874.99 167.738 1872.95 166.037C1871.25 164.337 1852.55 157.534 1832.14 151.072C1811.73 144.27 1778.74 135.087 1759.02 129.985C1739.29 124.884 1701.88 117.401 1675.69 112.979C1649.5 108.558 1613.45 104.137 1595.76 102.776C1578.08 101.756 1558.69 100.055 1552.91 99.0352Z" fill="#EDB91C"></path><path d="M214.917 2346.48C221.379 2341.72 232.943 2335.59 240.426 2333.55C247.908 2331.17 258.791 2329.13 264.233 2329.13C270.015 2328.79 282.599 2331.17 292.462 2333.89C304.026 2337.29 315.59 2344.1 325.793 2353.62C340.078 2366.54 352.322 2388.99 559.448 2806.65L575.433 2770.93C584.276 2751.21 632.232 2653.26 682.228 2553.26C746.508 2425.04 777.118 2367.56 785.621 2358.38C792.763 2351.24 804.327 2342.06 811.809 2337.97C822.013 2332.53 831.536 2330.83 849.221 2330.83C866.907 2330.83 876.43 2332.53 886.633 2337.97C894.116 2341.72 905.68 2350.9 912.482 2358.04C918.944 2365.52 927.106 2378.11 930.167 2386.61C933.568 2395.11 975.062 2525.04 1022.68 2675.7C1070.63 2826.37 1110.43 2952.21 1111.11 2955.61C1112.81 2961.06 1107.7 2961.4 966.559 2961.4L963.498 2950.51C961.458 2944.39 944.112 2888.95 924.386 2827.05C904.999 2765.49 878.811 2681.83 866.907 2641.69C854.663 2601.56 842.079 2558.71 839.018 2546.46C835.617 2534.22 831.876 2523.33 830.855 2521.97C829.835 2520.61 823.713 2531.16 817.251 2545.78C810.789 2560.07 785.961 2613.46 762.153 2663.8C738.686 2714.48 699.913 2795.42 676.106 2844.06C650.598 2896.09 628.49 2937.25 622.028 2944.05C615.906 2950.17 602.982 2959.01 593.459 2963.44C580.875 2969.22 569.311 2971.6 555.027 2971.6C541.082 2971.6 528.838 2969.22 516.935 2963.78C506.391 2959.01 494.487 2950.17 488.025 2942.35C481.903 2935.21 442.451 2858 400.617 2770.93C358.444 2683.87 315.25 2593.06 304.366 2568.91C293.483 2545.1 283.279 2525.72 281.239 2526.4C279.538 2526.74 269.675 2554.28 260.152 2586.93C250.289 2619.93 219.679 2717.54 141.794 2961.4H0.648438L2.34898 2953.91C3.0292 2949.49 44.5225 2820.59 94.1785 2667.2C144.175 2513.81 188.729 2380.83 193.831 2371.99C198.932 2362.8 208.455 2351.24 214.917 2346.48Z" fill="#EDB91C"></path><path d="M2187.21 2459.73L2234.15 2399.53L2281.08 2339.34H2498.75C2637.86 2339 2727.31 2340.36 2747.03 2342.74C2764.04 2344.78 2790.57 2350.22 2806.55 2354.98C2822.54 2359.4 2846.68 2368.92 2860.63 2375.73C2874.23 2382.53 2894.98 2396.13 2906.54 2405.32C2917.77 2414.84 2934.43 2433.21 2943.27 2446.13C2951.78 2459.39 2962.32 2479.8 2966.74 2492.04C2972.18 2508.03 2974.56 2524.69 2975.93 2553.26C2976.95 2583.19 2975.93 2597.48 2971.5 2614.48C2968.44 2626.73 2961.64 2645.09 2956.2 2655.3C2951.1 2665.5 2937.83 2683.87 2926.95 2695.77C2915.73 2708.01 2897.7 2723.66 2886.48 2730.8C2875.25 2737.94 2853.83 2748.83 2838.86 2754.61C2823.9 2760.39 2798.05 2768.21 2781.04 2771.95C2752.47 2778.42 2737.51 2779.1 2330.4 2781.14V2961.4H2187.55V2658.7L2458.62 2657.68C2702.82 2656.66 2731.73 2655.98 2748.73 2650.88C2758.94 2647.81 2773.56 2642.03 2781.04 2637.95C2788.53 2634.21 2799.07 2626.73 2804.17 2621.97C2809.61 2616.86 2817.09 2606.66 2821.18 2599.18C2826.96 2588.64 2828.66 2579.45 2828.66 2560.07C2828.66 2540.68 2826.62 2531.16 2821.52 2520.95C2817.43 2513.47 2808.25 2502.25 2801.11 2495.79C2793.63 2489.32 2782.4 2481.84 2775.94 2479.12C2769.48 2476.4 2755.53 2471.64 2745.33 2468.92C2729.69 2464.5 2683.77 2463.48 2187.21 2459.73Z" fill="#EDB91C"></path><path d="M1572.3 2352.1C1580.12 2346.66 1593.72 2339.86 1602.23 2337.82C1611.41 2335.09 1627.05 2334.07 1639.98 2335.09C1652.22 2336.11 1668.89 2340.2 1677.39 2343.94C1685.89 2348.02 1700.18 2358.9 1709.02 2368.42C1718.2 2378.29 1813.78 2516.37 2118.51 2964.3L1943.02 2965.32C1846.43 2965.66 1689.64 2965.66 1421.63 2964.3L1509.04 2843.56H1683.51C1779.08 2843.56 1857.65 2843.22 1857.65 2842.88C1857.65 2842.2 1828.4 2797.98 1792.35 2744.59C1756.3 2691.19 1705.28 2615 1679.09 2575.55C1652.9 2536.1 1630.8 2503.45 1629.78 2503.45C1628.76 2503.45 1556.31 2607.52 1308.37 2966H1222.66C1175.39 2966 1136.62 2965.32 1136.62 2964.3C1136.62 2963.28 1226.41 2833.69 1335.92 2676.22C1445.78 2518.41 1540.33 2383.39 1546.45 2375.91C1552.57 2368.42 1564.13 2357.88 1572.3 2352.1Z" fill="#EDB91C"></path></svg>