<svg width="130" height="130" viewBox="0 0 130 130" fill="none" xmlns="http://www.w3.org/2000/svg">
<g clip-path="url(#clip0_1216_472)">
<path d="M65 130C100.899 130 130 100.899 130 65C130 29.1015 100.899 0 65 0C29.1015 0 0 29.1015 0 65C0 100.899 29.1015 130 65 130Z" fill="url(#paint0_linear_1216_472)"/>
<path d="M62.5771 97.3877L57.166 102.286C56.8587 102.564 56.4743 102.701 56.0898 102.701H56.0889C55.8648 102.701 55.6433 102.654 55.4385 102.563C55.2848 102.495 55.1431 102.404 55.0186 102.292L54.8994 102.174L54.7949 102.046C54.3132 101.391 54.3967 100.464 55.0127 99.9062L61.0303 94.46L61.2236 94.2852L61.1914 94.0264L60.9961 92.4746L62.5771 97.3877Z" fill="#2F4F2F" stroke="white"/>
<path d="M57.5477 68.6523C57.8154 66.8127 59.524 65.5383 61.3636 65.806C63.203 66.0738 64.4776 67.7823 64.2099 69.6219C63.9422 71.4615 62.2335 72.7358 60.394 72.4682C58.5544 72.2005 57.2799 70.4921 57.5477 68.6523Z" fill="#2F4F2F" stroke="white"/>
<path d="M60.9043 75.9697C61.019 75.9641 61.1341 75.9808 61.2422 76.0195C61.3502 76.0582 61.4492 76.1183 61.5342 76.1953C61.6193 76.2724 61.6892 76.3659 61.7383 76.4697C61.7873 76.5734 61.8157 76.6862 61.8213 76.8008C61.8269 76.9153 61.8091 77.0297 61.7705 77.1377C61.7318 77.2457 61.6727 77.3456 61.5957 77.4307L57.4395 82.0166L57.1387 82.3486L57.4355 82.6836L59.7305 85.2793L58.084 86.0576L55.3096 82.9209C55.1671 82.7598 55.0887 82.552 55.0898 82.3369C55.0911 82.1217 55.172 81.9144 55.3164 81.7549L60.2988 76.2559C60.3759 76.1708 60.4694 76.1019 60.5732 76.0527C60.677 76.0036 60.7896 75.9754 60.9043 75.9697Z" fill="#2F4F2F" stroke="white"/>
<path d="M61.7305 74.2783C62.1164 74.3095 62.4741 74.5064 62.7803 74.8467L62.8018 74.8701L62.8262 74.8906C62.8954 74.9502 62.9554 75.0206 63.0029 75.0986V75.0996L66.7041 81.2002L66.7939 81.3486L66.9561 81.4092L72.0078 83.3037H72.0088C72.1226 83.3464 72.2258 83.4129 72.3125 83.498C72.3833 83.5677 72.4411 83.6493 72.4844 83.7383L72.5322 84.3877C72.5276 84.4029 72.523 84.4187 72.5176 84.4336C72.4548 84.5986 72.3444 84.7412 72.1992 84.8418C72.0529 84.9432 71.8792 84.998 71.7012 84.998C71.5967 84.998 71.4933 84.9783 71.3955 84.9414H71.3945L71.248 84.8867L70.2324 84.5059L65.8955 82.8799C65.712 82.811 65.5568 82.6823 65.4551 82.5146L64.375 80.7344L63.4531 79.2148L63.4482 80.9922C63.4477 81.1647 63.4481 81.3372 63.4502 81.5098L63.46 82.0273C63.502 83.5361 63.6592 85.114 64.0938 86.5449C64.1367 86.7328 64.1738 86.922 64.2041 87.1123L64.21 87.1504L64.2217 87.1875L69.2871 102.927C69.5657 103.793 69.0888 104.721 68.2227 105C68.0281 105.063 67.8314 105.087 67.6396 105.078L67.4502 105.058C67.1513 105.008 66.872 104.877 66.6426 104.68C66.4419 104.507 66.2863 104.288 66.1885 104.043L66.1494 103.937L62.0439 91.1797L62.0723 90.7812L61.6191 90.7109C60.2911 90.5026 59.2467 89.6842 58.5166 88.876C58.155 88.4756 57.8804 88.0878 57.6963 87.8008C57.6934 87.7963 57.6903 87.7915 57.6875 87.7871L62.1807 85.666L62.4453 85.541L62.4658 85.249L62.498 84.7969L62.5586 83.9453L61.7861 84.3096L61.0439 84.6592L59.0098 82.3594L62.6289 78.3672L62.6279 78.3662C62.8284 78.1458 62.9846 77.8889 63.085 77.6084C63.1603 77.3976 63.2033 77.1769 63.2139 76.9541V76.7305C63.1997 76.4331 63.1263 76.1412 62.999 75.8721C62.8714 75.6022 62.6914 75.36 62.4697 75.1602C62.052 74.7818 61.5108 74.5733 60.9473 74.5732H60.9463C60.6297 74.5735 60.3168 74.6403 60.0273 74.7686C59.98 74.7895 59.9343 74.8138 59.8887 74.8379C60.4922 74.4076 61.1653 74.2327 61.7305 74.2783ZM71.5273 61.3564C71.7458 61.3487 71.9061 61.4277 71.9814 61.5049L72.0557 61.5811L72.042 61.6084L72.0322 61.627L72.0234 61.6465C71.9916 61.7229 71.8394 61.8722 71.5459 61.8828L71.4209 61.8779C71.3029 61.8636 71.2067 61.8233 71.1406 61.7764C71.0534 61.7144 71.04 61.6605 71.0391 61.6377C71.0383 61.6153 71.047 61.5596 71.1299 61.4912C71.2134 61.4225 71.3522 61.3627 71.5273 61.3564Z" fill="#2F4F2F" stroke="white"/>
<path d="M104.387 31.0963L89.728 28.6526C89.4216 28.6013 89.1433 28.4431 88.9426 28.206C88.7419 27.9689 88.6317 27.6683 88.6317 27.3577C88.6317 26.245 86.9527 24.5266 82.2426 23.0397C77.6555 21.5905 71.5323 20.793 64.9987 20.793C58.4651 20.793 52.3419 21.5905 47.7548 23.0397C43.0446 24.5266 41.3656 26.245 41.3656 27.3577C41.3656 27.6686 41.2552 27.9694 41.0541 28.2065C40.853 28.4436 40.5744 28.6017 40.2677 28.6526L25.6103 31.0963V40.4872H104.387V31.0963Z" fill="#2F4F2F"/>
<path d="M105.7 99.5698H100.448V96.9439H86.0058V99.5698V102.196H105.7C106.426 102.196 107.013 101.608 107.013 100.883C107.013 100.157 106.426 99.5698 105.7 99.5698Z" fill="#FFD700"/>
<path fill-rule="evenodd" clip-rule="evenodd" d="M33.488 43.1131H40.0527V94.318H33.488V43.1131ZM89.9447 43.1131H96.5094V94.318H89.9447V43.1131Z" fill="#2F4F2F"/>
<path d="M43.9915 99.5698V96.9439H29.5491V99.5698H24.2973C23.5719 99.5698 22.9844 100.157 22.9844 100.883C22.9844 101.608 23.5719 102.196 24.2973 102.196H43.9915V99.5698Z" fill="#FFD700"/>
<path d="M43.4912 97.4443V101.695H24.2969C23.8478 101.695 23.4844 101.332 23.4844 100.883C23.4844 100.434 23.8478 100.07 24.2969 100.069H30.0488V97.4443H43.4912ZM99.9482 97.4443V100.069H105.7C106.149 100.069 106.513 100.434 106.513 100.883C106.513 101.332 106.149 101.695 105.7 101.695H86.5059V97.4443H99.9482ZM96.0098 43.6133V93.8184H90.4443V43.6133H96.0098ZM39.5527 43.6133V93.8184H33.9883V43.6133H39.5527ZM64.999 21.293C71.4983 21.293 77.5675 22.0873 82.0918 23.5166C84.4161 24.2504 85.9567 25.0303 86.9043 25.7393C87.8747 26.4654 88.1317 27.0435 88.1318 27.3574C88.1318 27.7863 88.2835 28.2019 88.5605 28.5293C88.8029 28.8156 89.1277 29.0185 89.4883 29.1123L89.6455 29.1455L103.887 31.5195V39.9873H26.1104V31.5195L40.3496 29.1455C40.773 29.0752 41.158 28.8576 41.4355 28.5303C41.7132 28.2028 41.8651 27.7867 41.8652 27.3574C41.8654 27.0435 42.1232 26.4654 43.0938 25.7393C44.0414 25.0303 45.5812 24.2503 47.9053 23.5166C52.4297 22.0873 58.4995 21.293 64.999 21.293Z" stroke="#FFD700"/>
</g>
<defs>
<linearGradient id="paint0_linear_1216_472" x1="19.0379" y1="19.0379" x2="110.962" y2="110.962" gradientUnits="userSpaceOnUse">
<stop stop-color="#2F4F2F"/>
<stop offset="1" stop-color="#2F4F2F"/>
</linearGradient>
<clipPath id="clip0_1216_472">
<rect width="130" height="130" fill="white"/>
</clipPath>
</defs>
</svg>
