<svg width="130" height="130" viewBox="0 0 130 130" fill="none" xmlns="http://www.w3.org/2000/svg">
<g clip-path="url(#clip0_1216_544)">
<path d="M65 130C100.899 130 130 100.899 130 65C130 29.1015 100.899 0 65 0C29.1015 0 0 29.1015 0 65C0 100.899 29.1015 130 65 130Z" fill="url(#paint0_linear_1216_544)"/>
<mask id="path-2-inside-1_1216_544" fill="white">
<path fill-rule="evenodd" clip-rule="evenodd" d="M80.4453 103.613H95.8906C97.9388 103.613 99.9031 102.8 101.351 101.351C102.8 99.9031 103.613 97.9388 103.613 95.8906V80.4453C103.613 79.7626 103.342 79.1078 102.859 78.6251C102.377 78.1423 101.722 77.8711 101.039 77.8711C100.356 77.8711 99.7016 78.1423 99.2188 78.6251C98.7361 79.1078 98.4648 79.7626 98.4648 80.4453V95.8906C98.4648 96.5733 98.1936 97.2281 97.7109 97.7109C97.2281 98.1936 96.5733 98.4648 95.8906 98.4648H80.4453C79.7626 98.4648 79.1078 98.7361 78.6251 99.2188C78.1423 99.7016 77.8711 100.356 77.8711 101.039C77.8711 101.722 78.1423 102.377 78.6251 102.859C79.1078 103.342 79.7626 103.613 80.4453 103.613ZM49.5547 98.4648H34.1094C33.4266 98.4648 32.7719 98.1936 32.2891 97.7109C31.8064 97.2281 31.5352 96.5733 31.5352 95.8906V80.4453C31.5352 79.7626 31.2639 79.1078 30.7812 78.6251C30.2984 78.1423 29.6437 77.8711 28.9609 77.8711C28.2782 77.8711 27.6234 78.1423 27.1407 78.6251C26.6579 79.1078 26.3867 79.7626 26.3867 80.4453V95.8906C26.3867 97.9388 27.2004 99.9031 28.6486 101.351C30.0969 102.8 32.0612 103.613 34.1094 103.613H49.5547C50.2374 103.613 50.8922 103.342 51.3749 102.859C51.8577 102.377 52.1289 101.722 52.1289 101.039C52.1289 100.356 51.8577 99.7016 51.3749 99.2188C50.8922 98.7361 50.2374 98.4648 49.5547 98.4648ZM62.4258 75.2969V90.7422C62.4258 91.4249 62.697 92.0797 63.1798 92.5624C63.6625 93.0452 64.3173 93.3164 65 93.3164C65.6827 93.3164 66.3375 93.0452 66.8202 92.5624C67.303 92.0797 67.5742 91.4249 67.5742 90.7422V75.2969C67.5742 74.6142 67.303 73.9594 66.8202 73.4766C66.3375 72.9939 65.6827 72.7227 65 72.7227C64.3173 72.7227 63.6625 72.9939 63.1798 73.4766C62.697 73.9594 62.4258 74.6142 62.4258 75.2969ZM57.2773 75.2969C57.2773 74.6142 57.0061 73.9594 56.5234 73.4766C56.0406 72.9939 55.3859 72.7227 54.7031 72.7227H39.2578C38.5751 72.7227 37.9203 72.9939 37.4376 73.4766C36.9548 73.9594 36.6836 74.6142 36.6836 75.2969V90.7422C36.6836 91.4249 36.9548 92.0797 37.4376 92.5624C37.9203 93.0452 38.5751 93.3164 39.2578 93.3164H54.7031C55.3859 93.3164 56.0406 93.0452 56.5234 92.5624C57.0061 92.0797 57.2773 91.4249 57.2773 90.7422V75.2969ZM93.3164 75.2969C93.3164 74.6142 93.0452 73.9594 92.5624 73.4766C92.0797 72.9939 91.4249 72.7227 90.7422 72.7227H75.2969C74.6142 72.7227 73.9594 72.9939 73.4766 73.4766C72.9939 73.9594 72.7227 74.6142 72.7227 75.2969V90.7422C72.7227 91.4249 72.9939 92.0797 73.4766 92.5624C73.9594 93.0452 74.6142 93.3164 75.2969 93.3164H90.7422C91.4249 93.3164 92.0797 93.0452 92.5624 92.5624C93.0452 92.0797 93.3164 91.4249 93.3164 90.7422V75.2969ZM52.1289 77.8711V88.168H41.832V77.8711H52.1289ZM88.168 77.8711V88.168H77.8711V77.8711H88.168ZM62.4258 67.5742H65C65.6827 67.5742 66.3375 67.303 66.8202 66.8202C67.303 66.3375 67.5742 65.6827 67.5742 65C67.5742 64.3173 67.303 63.6625 66.8202 63.1798C66.3375 62.697 65.6827 62.4258 65 62.4258H62.4258C61.7431 62.4258 61.0883 62.697 60.6055 63.1798C60.1228 63.6625 59.8516 64.3173 59.8516 65C59.8516 65.6827 60.1228 66.3375 60.6055 66.8202C61.0883 67.303 61.7431 67.5742 62.4258 67.5742ZM39.2578 67.5742H52.1289C52.8116 67.5742 53.4664 67.303 53.9492 66.8202C54.4319 66.3375 54.7031 65.6827 54.7031 65C54.7031 64.3173 54.4319 63.6625 53.9492 63.1798C53.4664 62.697 52.8116 62.4258 52.1289 62.4258H39.2578C38.5751 62.4258 37.9203 62.697 37.4376 63.1798C36.9548 63.6625 36.6836 64.3173 36.6836 65C36.6836 65.6827 36.9548 66.3375 37.4376 66.8202C37.9203 67.303 38.5751 67.5742 39.2578 67.5742ZM85.5938 62.4258H88.168V65C88.168 65.6827 88.4392 66.3375 88.9219 66.8202C89.4047 67.303 90.0595 67.5742 90.7422 67.5742C91.4249 67.5742 92.0797 67.303 92.5624 66.8202C93.0452 66.3375 93.3164 65.6827 93.3164 65V59.8516C93.3164 59.1688 93.0452 58.5141 92.5624 58.0313C92.0797 57.5486 91.4249 57.2773 90.7422 57.2773H85.5938C84.911 57.2773 84.2563 57.5486 83.7735 58.0313C83.2907 58.5141 83.0195 59.1688 83.0195 59.8516C83.0195 60.5343 83.2907 61.189 83.7735 61.6718C84.2563 62.1546 84.911 62.4258 85.5938 62.4258ZM77.8711 65V52.1289H80.4453C81.128 52.1289 81.7828 51.8577 82.2656 51.3749C82.7483 50.8922 83.0195 50.2374 83.0195 49.5547C83.0195 48.872 82.7483 48.2172 82.2656 47.7344C81.7828 47.2517 81.128 46.9805 80.4453 46.9805H75.2969C74.6142 46.9805 73.9594 47.2517 73.4766 47.7344C72.9939 48.2172 72.7227 48.872 72.7227 49.5547V65C72.7227 65.6827 72.9939 66.3375 73.4766 66.8202C73.9594 67.303 74.6142 67.5742 75.2969 67.5742C75.9796 67.5742 76.6344 67.303 77.1171 66.8202C77.5999 66.3375 77.8711 65.6827 77.8711 65ZM62.4258 49.5547V54.7031C62.4258 55.3859 62.697 56.0406 63.1798 56.5234C63.6625 57.0061 64.3173 57.2773 65 57.2773C65.6827 57.2773 66.3375 57.0061 66.8202 56.5234C67.303 56.0406 67.5742 55.3859 67.5742 54.7031V49.5547C67.5742 48.872 67.303 48.2172 66.8202 47.7344C66.3375 47.2517 65.6827 46.9805 65 46.9805C64.3173 46.9805 63.6625 47.2517 63.1798 47.7344C62.697 48.2172 62.4258 48.872 62.4258 49.5547ZM57.2773 39.2578C57.2773 38.5751 57.0061 37.9203 56.5234 37.4376C56.0406 36.9548 55.3859 36.6836 54.7031 36.6836H39.2578C38.5751 36.6836 37.9203 36.9548 37.4376 37.4376C36.9548 37.9203 36.6836 38.5751 36.6836 39.2578V54.7031C36.6836 55.3859 36.9548 56.0406 37.4376 56.5234C37.9203 57.0061 38.5751 57.2773 39.2578 57.2773H54.7031C55.3859 57.2773 56.0406 57.0061 56.5234 56.5234C57.0061 56.0406 57.2773 55.3859 57.2773 54.7031V39.2578ZM49.5547 26.3867H34.1094C32.0612 26.3867 30.0969 27.2004 28.6486 28.6486C27.2004 30.0969 26.3867 32.0612 26.3867 34.1094V49.5547C26.3867 50.2374 26.6579 50.8922 27.1407 51.3749C27.6234 51.8577 28.2782 52.1289 28.9609 52.1289C29.6437 52.1289 30.2984 51.8577 30.7812 51.3749C31.2639 50.8922 31.5352 50.2374 31.5352 49.5547V34.1094C31.5352 33.4266 31.8064 32.7719 32.2891 32.2891C32.7719 31.8064 33.4266 31.5352 34.1094 31.5352H49.5547C50.2374 31.5352 50.8922 31.2639 51.3749 30.7812C51.8577 30.2984 52.1289 29.6437 52.1289 28.9609C52.1289 28.2782 51.8577 27.6234 51.3749 27.1407C50.8922 26.6579 50.2374 26.3867 49.5547 26.3867ZM52.1289 41.832V52.1289H41.832V41.832H52.1289ZM80.4453 31.5352H95.8906C96.5733 31.5352 97.2281 31.8064 97.7109 32.2891C98.1936 32.7719 98.4648 33.4266 98.4648 34.1094V49.5547C98.4648 50.2374 98.7361 50.8922 99.2188 51.3749C99.7016 51.8577 100.356 52.1289 101.039 52.1289C101.722 52.1289 102.377 51.8577 102.859 51.3749C103.342 50.8922 103.613 50.2374 103.613 49.5547V34.1094C103.613 32.0612 102.8 30.0969 101.351 28.6486C99.9031 27.2004 97.9388 26.3867 95.8906 26.3867H80.4453C79.7626 26.3867 79.1078 26.6579 78.6251 27.1407C78.1423 27.6234 77.8711 28.2782 77.8711 28.9609C77.8711 29.6437 78.1423 30.2984 78.6251 30.7812C79.1078 31.2639 79.7626 31.5352 80.4453 31.5352ZM65 41.832H88.168V49.5547C88.168 50.2374 88.4392 50.8922 88.9219 51.3749C89.4047 51.8577 90.0595 52.1289 90.7422 52.1289C91.4249 52.1289 92.0797 51.8577 92.5624 51.3749C93.0452 50.8922 93.3164 50.2374 93.3164 49.5547V39.2578C93.3164 38.5751 93.0452 37.9203 92.5624 37.4376C92.0797 36.9548 91.4249 36.6836 90.7422 36.6836H65C64.3173 36.6836 63.6625 36.9548 63.1798 37.4376C62.697 37.9203 62.4258 38.5751 62.4258 39.2578C62.4258 39.9405 62.697 40.5953 63.1798 41.0781C63.6625 41.5608 64.3173 41.832 65 41.832Z"/>
<path d="M88.168 77.8711V88.168H77.8711V77.8711H88.168Z"/>
</mask>
<path fill-rule="evenodd" clip-rule="evenodd" d="M80.4453 103.613H95.8906C97.9388 103.613 99.9031 102.8 101.351 101.351C102.8 99.9031 103.613 97.9388 103.613 95.8906V80.4453C103.613 79.7626 103.342 79.1078 102.859 78.6251C102.377 78.1423 101.722 77.8711 101.039 77.8711C100.356 77.8711 99.7016 78.1423 99.2188 78.6251C98.7361 79.1078 98.4648 79.7626 98.4648 80.4453V95.8906C98.4648 96.5733 98.1936 97.2281 97.7109 97.7109C97.2281 98.1936 96.5733 98.4648 95.8906 98.4648H80.4453C79.7626 98.4648 79.1078 98.7361 78.6251 99.2188C78.1423 99.7016 77.8711 100.356 77.8711 101.039C77.8711 101.722 78.1423 102.377 78.6251 102.859C79.1078 103.342 79.7626 103.613 80.4453 103.613ZM49.5547 98.4648H34.1094C33.4266 98.4648 32.7719 98.1936 32.2891 97.7109C31.8064 97.2281 31.5352 96.5733 31.5352 95.8906V80.4453C31.5352 79.7626 31.2639 79.1078 30.7812 78.6251C30.2984 78.1423 29.6437 77.8711 28.9609 77.8711C28.2782 77.8711 27.6234 78.1423 27.1407 78.6251C26.6579 79.1078 26.3867 79.7626 26.3867 80.4453V95.8906C26.3867 97.9388 27.2004 99.9031 28.6486 101.351C30.0969 102.8 32.0612 103.613 34.1094 103.613H49.5547C50.2374 103.613 50.8922 103.342 51.3749 102.859C51.8577 102.377 52.1289 101.722 52.1289 101.039C52.1289 100.356 51.8577 99.7016 51.3749 99.2188C50.8922 98.7361 50.2374 98.4648 49.5547 98.4648ZM62.4258 75.2969V90.7422C62.4258 91.4249 62.697 92.0797 63.1798 92.5624C63.6625 93.0452 64.3173 93.3164 65 93.3164C65.6827 93.3164 66.3375 93.0452 66.8202 92.5624C67.303 92.0797 67.5742 91.4249 67.5742 90.7422V75.2969C67.5742 74.6142 67.303 73.9594 66.8202 73.4766C66.3375 72.9939 65.6827 72.7227 65 72.7227C64.3173 72.7227 63.6625 72.9939 63.1798 73.4766C62.697 73.9594 62.4258 74.6142 62.4258 75.2969ZM57.2773 75.2969C57.2773 74.6142 57.0061 73.9594 56.5234 73.4766C56.0406 72.9939 55.3859 72.7227 54.7031 72.7227H39.2578C38.5751 72.7227 37.9203 72.9939 37.4376 73.4766C36.9548 73.9594 36.6836 74.6142 36.6836 75.2969V90.7422C36.6836 91.4249 36.9548 92.0797 37.4376 92.5624C37.9203 93.0452 38.5751 93.3164 39.2578 93.3164H54.7031C55.3859 93.3164 56.0406 93.0452 56.5234 92.5624C57.0061 92.0797 57.2773 91.4249 57.2773 90.7422V75.2969ZM93.3164 75.2969C93.3164 74.6142 93.0452 73.9594 92.5624 73.4766C92.0797 72.9939 91.4249 72.7227 90.7422 72.7227H75.2969C74.6142 72.7227 73.9594 72.9939 73.4766 73.4766C72.9939 73.9594 72.7227 74.6142 72.7227 75.2969V90.7422C72.7227 91.4249 72.9939 92.0797 73.4766 92.5624C73.9594 93.0452 74.6142 93.3164 75.2969 93.3164H90.7422C91.4249 93.3164 92.0797 93.0452 92.5624 92.5624C93.0452 92.0797 93.3164 91.4249 93.3164 90.7422V75.2969ZM52.1289 77.8711V88.168H41.832V77.8711H52.1289ZM88.168 77.8711V88.168H77.8711V77.8711H88.168ZM62.4258 67.5742H65C65.6827 67.5742 66.3375 67.303 66.8202 66.8202C67.303 66.3375 67.5742 65.6827 67.5742 65C67.5742 64.3173 67.303 63.6625 66.8202 63.1798C66.3375 62.697 65.6827 62.4258 65 62.4258H62.4258C61.7431 62.4258 61.0883 62.697 60.6055 63.1798C60.1228 63.6625 59.8516 64.3173 59.8516 65C59.8516 65.6827 60.1228 66.3375 60.6055 66.8202C61.0883 67.303 61.7431 67.5742 62.4258 67.5742ZM39.2578 67.5742H52.1289C52.8116 67.5742 53.4664 67.303 53.9492 66.8202C54.4319 66.3375 54.7031 65.6827 54.7031 65C54.7031 64.3173 54.4319 63.6625 53.9492 63.1798C53.4664 62.697 52.8116 62.4258 52.1289 62.4258H39.2578C38.5751 62.4258 37.9203 62.697 37.4376 63.1798C36.9548 63.6625 36.6836 64.3173 36.6836 65C36.6836 65.6827 36.9548 66.3375 37.4376 66.8202C37.9203 67.303 38.5751 67.5742 39.2578 67.5742ZM85.5938 62.4258H88.168V65C88.168 65.6827 88.4392 66.3375 88.9219 66.8202C89.4047 67.303 90.0595 67.5742 90.7422 67.5742C91.4249 67.5742 92.0797 67.303 92.5624 66.8202C93.0452 66.3375 93.3164 65.6827 93.3164 65V59.8516C93.3164 59.1688 93.0452 58.5141 92.5624 58.0313C92.0797 57.5486 91.4249 57.2773 90.7422 57.2773H85.5938C84.911 57.2773 84.2563 57.5486 83.7735 58.0313C83.2907 58.5141 83.0195 59.1688 83.0195 59.8516C83.0195 60.5343 83.2907 61.189 83.7735 61.6718C84.2563 62.1546 84.911 62.4258 85.5938 62.4258ZM77.8711 65V52.1289H80.4453C81.128 52.1289 81.7828 51.8577 82.2656 51.3749C82.7483 50.8922 83.0195 50.2374 83.0195 49.5547C83.0195 48.872 82.7483 48.2172 82.2656 47.7344C81.7828 47.2517 81.128 46.9805 80.4453 46.9805H75.2969C74.6142 46.9805 73.9594 47.2517 73.4766 47.7344C72.9939 48.2172 72.7227 48.872 72.7227 49.5547V65C72.7227 65.6827 72.9939 66.3375 73.4766 66.8202C73.9594 67.303 74.6142 67.5742 75.2969 67.5742C75.9796 67.5742 76.6344 67.303 77.1171 66.8202C77.5999 66.3375 77.8711 65.6827 77.8711 65ZM62.4258 49.5547V54.7031C62.4258 55.3859 62.697 56.0406 63.1798 56.5234C63.6625 57.0061 64.3173 57.2773 65 57.2773C65.6827 57.2773 66.3375 57.0061 66.8202 56.5234C67.303 56.0406 67.5742 55.3859 67.5742 54.7031V49.5547C67.5742 48.872 67.303 48.2172 66.8202 47.7344C66.3375 47.2517 65.6827 46.9805 65 46.9805C64.3173 46.9805 63.6625 47.2517 63.1798 47.7344C62.697 48.2172 62.4258 48.872 62.4258 49.5547ZM57.2773 39.2578C57.2773 38.5751 57.0061 37.9203 56.5234 37.4376C56.0406 36.9548 55.3859 36.6836 54.7031 36.6836H39.2578C38.5751 36.6836 37.9203 36.9548 37.4376 37.4376C36.9548 37.9203 36.6836 38.5751 36.6836 39.2578V54.7031C36.6836 55.3859 36.9548 56.0406 37.4376 56.5234C37.9203 57.0061 38.5751 57.2773 39.2578 57.2773H54.7031C55.3859 57.2773 56.0406 57.0061 56.5234 56.5234C57.0061 56.0406 57.2773 55.3859 57.2773 54.7031V39.2578ZM49.5547 26.3867H34.1094C32.0612 26.3867 30.0969 27.2004 28.6486 28.6486C27.2004 30.0969 26.3867 32.0612 26.3867 34.1094V49.5547C26.3867 50.2374 26.6579 50.8922 27.1407 51.3749C27.6234 51.8577 28.2782 52.1289 28.9609 52.1289C29.6437 52.1289 30.2984 51.8577 30.7812 51.3749C31.2639 50.8922 31.5352 50.2374 31.5352 49.5547V34.1094C31.5352 33.4266 31.8064 32.7719 32.2891 32.2891C32.7719 31.8064 33.4266 31.5352 34.1094 31.5352H49.5547C50.2374 31.5352 50.8922 31.2639 51.3749 30.7812C51.8577 30.2984 52.1289 29.6437 52.1289 28.9609C52.1289 28.2782 51.8577 27.6234 51.3749 27.1407C50.8922 26.6579 50.2374 26.3867 49.5547 26.3867ZM52.1289 41.832V52.1289H41.832V41.832H52.1289ZM80.4453 31.5352H95.8906C96.5733 31.5352 97.2281 31.8064 97.7109 32.2891C98.1936 32.7719 98.4648 33.4266 98.4648 34.1094V49.5547C98.4648 50.2374 98.7361 50.8922 99.2188 51.3749C99.7016 51.8577 100.356 52.1289 101.039 52.1289C101.722 52.1289 102.377 51.8577 102.859 51.3749C103.342 50.8922 103.613 50.2374 103.613 49.5547V34.1094C103.613 32.0612 102.8 30.0969 101.351 28.6486C99.9031 27.2004 97.9388 26.3867 95.8906 26.3867H80.4453C79.7626 26.3867 79.1078 26.6579 78.6251 27.1407C78.1423 27.6234 77.8711 28.2782 77.8711 28.9609C77.8711 29.6437 78.1423 30.2984 78.6251 30.7812C79.1078 31.2639 79.7626 31.5352 80.4453 31.5352ZM65 41.832H88.168V49.5547C88.168 50.2374 88.4392 50.8922 88.9219 51.3749C89.4047 51.8577 90.0595 52.1289 90.7422 52.1289C91.4249 52.1289 92.0797 51.8577 92.5624 51.3749C93.0452 50.8922 93.3164 50.2374 93.3164 49.5547V39.2578C93.3164 38.5751 93.0452 37.9203 92.5624 37.4376C92.0797 36.9548 91.4249 36.6836 90.7422 36.6836H65C64.3173 36.6836 63.6625 36.9548 63.1798 37.4376C62.697 37.9203 62.4258 38.5751 62.4258 39.2578C62.4258 39.9405 62.697 40.5953 63.1798 41.0781C63.6625 41.5608 64.3173 41.832 65 41.832Z" fill="#FFD700"/>
<path d="M88.168 77.8711V88.168H77.8711V77.8711H88.168Z" fill="white"/>
<path fill-rule="evenodd" clip-rule="evenodd" d="M80.4453 103.613H95.8906C97.9388 103.613 99.9031 102.8 101.351 101.351C102.8 99.9031 103.613 97.9388 103.613 95.8906V80.4453C103.613 79.7626 103.342 79.1078 102.859 78.6251C102.377 78.1423 101.722 77.8711 101.039 77.8711C100.356 77.8711 99.7016 78.1423 99.2188 78.6251C98.7361 79.1078 98.4648 79.7626 98.4648 80.4453V95.8906C98.4648 96.5733 98.1936 97.2281 97.7109 97.7109C97.2281 98.1936 96.5733 98.4648 95.8906 98.4648H80.4453C79.7626 98.4648 79.1078 98.7361 78.6251 99.2188C78.1423 99.7016 77.8711 100.356 77.8711 101.039C77.8711 101.722 78.1423 102.377 78.6251 102.859C79.1078 103.342 79.7626 103.613 80.4453 103.613ZM49.5547 98.4648H34.1094C33.4266 98.4648 32.7719 98.1936 32.2891 97.7109C31.8064 97.2281 31.5352 96.5733 31.5352 95.8906V80.4453C31.5352 79.7626 31.2639 79.1078 30.7812 78.6251C30.2984 78.1423 29.6437 77.8711 28.9609 77.8711C28.2782 77.8711 27.6234 78.1423 27.1407 78.6251C26.6579 79.1078 26.3867 79.7626 26.3867 80.4453V95.8906C26.3867 97.9388 27.2004 99.9031 28.6486 101.351C30.0969 102.8 32.0612 103.613 34.1094 103.613H49.5547C50.2374 103.613 50.8922 103.342 51.3749 102.859C51.8577 102.377 52.1289 101.722 52.1289 101.039C52.1289 100.356 51.8577 99.7016 51.3749 99.2188C50.8922 98.7361 50.2374 98.4648 49.5547 98.4648ZM62.4258 75.2969V90.7422C62.4258 91.4249 62.697 92.0797 63.1798 92.5624C63.6625 93.0452 64.3173 93.3164 65 93.3164C65.6827 93.3164 66.3375 93.0452 66.8202 92.5624C67.303 92.0797 67.5742 91.4249 67.5742 90.7422V75.2969C67.5742 74.6142 67.303 73.9594 66.8202 73.4766C66.3375 72.9939 65.6827 72.7227 65 72.7227C64.3173 72.7227 63.6625 72.9939 63.1798 73.4766C62.697 73.9594 62.4258 74.6142 62.4258 75.2969ZM57.2773 75.2969C57.2773 74.6142 57.0061 73.9594 56.5234 73.4766C56.0406 72.9939 55.3859 72.7227 54.7031 72.7227H39.2578C38.5751 72.7227 37.9203 72.9939 37.4376 73.4766C36.9548 73.9594 36.6836 74.6142 36.6836 75.2969V90.7422C36.6836 91.4249 36.9548 92.0797 37.4376 92.5624C37.9203 93.0452 38.5751 93.3164 39.2578 93.3164H54.7031C55.3859 93.3164 56.0406 93.0452 56.5234 92.5624C57.0061 92.0797 57.2773 91.4249 57.2773 90.7422V75.2969ZM93.3164 75.2969C93.3164 74.6142 93.0452 73.9594 92.5624 73.4766C92.0797 72.9939 91.4249 72.7227 90.7422 72.7227H75.2969C74.6142 72.7227 73.9594 72.9939 73.4766 73.4766C72.9939 73.9594 72.7227 74.6142 72.7227 75.2969V90.7422C72.7227 91.4249 72.9939 92.0797 73.4766 92.5624C73.9594 93.0452 74.6142 93.3164 75.2969 93.3164H90.7422C91.4249 93.3164 92.0797 93.0452 92.5624 92.5624C93.0452 92.0797 93.3164 91.4249 93.3164 90.7422V75.2969ZM52.1289 77.8711V88.168H41.832V77.8711H52.1289ZM88.168 77.8711V88.168H77.8711V77.8711H88.168ZM62.4258 67.5742H65C65.6827 67.5742 66.3375 67.303 66.8202 66.8202C67.303 66.3375 67.5742 65.6827 67.5742 65C67.5742 64.3173 67.303 63.6625 66.8202 63.1798C66.3375 62.697 65.6827 62.4258 65 62.4258H62.4258C61.7431 62.4258 61.0883 62.697 60.6055 63.1798C60.1228 63.6625 59.8516 64.3173 59.8516 65C59.8516 65.6827 60.1228 66.3375 60.6055 66.8202C61.0883 67.303 61.7431 67.5742 62.4258 67.5742ZM39.2578 67.5742H52.1289C52.8116 67.5742 53.4664 67.303 53.9492 66.8202C54.4319 66.3375 54.7031 65.6827 54.7031 65C54.7031 64.3173 54.4319 63.6625 53.9492 63.1798C53.4664 62.697 52.8116 62.4258 52.1289 62.4258H39.2578C38.5751 62.4258 37.9203 62.697 37.4376 63.1798C36.9548 63.6625 36.6836 64.3173 36.6836 65C36.6836 65.6827 36.9548 66.3375 37.4376 66.8202C37.9203 67.303 38.5751 67.5742 39.2578 67.5742ZM85.5938 62.4258H88.168V65C88.168 65.6827 88.4392 66.3375 88.9219 66.8202C89.4047 67.303 90.0595 67.5742 90.7422 67.5742C91.4249 67.5742 92.0797 67.303 92.5624 66.8202C93.0452 66.3375 93.3164 65.6827 93.3164 65V59.8516C93.3164 59.1688 93.0452 58.5141 92.5624 58.0313C92.0797 57.5486 91.4249 57.2773 90.7422 57.2773H85.5938C84.911 57.2773 84.2563 57.5486 83.7735 58.0313C83.2907 58.5141 83.0195 59.1688 83.0195 59.8516C83.0195 60.5343 83.2907 61.189 83.7735 61.6718C84.2563 62.1546 84.911 62.4258 85.5938 62.4258ZM77.8711 65V52.1289H80.4453C81.128 52.1289 81.7828 51.8577 82.2656 51.3749C82.7483 50.8922 83.0195 50.2374 83.0195 49.5547C83.0195 48.872 82.7483 48.2172 82.2656 47.7344C81.7828 47.2517 81.128 46.9805 80.4453 46.9805H75.2969C74.6142 46.9805 73.9594 47.2517 73.4766 47.7344C72.9939 48.2172 72.7227 48.872 72.7227 49.5547V65C72.7227 65.6827 72.9939 66.3375 73.4766 66.8202C73.9594 67.303 74.6142 67.5742 75.2969 67.5742C75.9796 67.5742 76.6344 67.303 77.1171 66.8202C77.5999 66.3375 77.8711 65.6827 77.8711 65ZM62.4258 49.5547V54.7031C62.4258 55.3859 62.697 56.0406 63.1798 56.5234C63.6625 57.0061 64.3173 57.2773 65 57.2773C65.6827 57.2773 66.3375 57.0061 66.8202 56.5234C67.303 56.0406 67.5742 55.3859 67.5742 54.7031V49.5547C67.5742 48.872 67.303 48.2172 66.8202 47.7344C66.3375 47.2517 65.6827 46.9805 65 46.9805C64.3173 46.9805 63.6625 47.2517 63.1798 47.7344C62.697 48.2172 62.4258 48.872 62.4258 49.5547ZM57.2773 39.2578C57.2773 38.5751 57.0061 37.9203 56.5234 37.4376C56.0406 36.9548 55.3859 36.6836 54.7031 36.6836H39.2578C38.5751 36.6836 37.9203 36.9548 37.4376 37.4376C36.9548 37.9203 36.6836 38.5751 36.6836 39.2578V54.7031C36.6836 55.3859 36.9548 56.0406 37.4376 56.5234C37.9203 57.0061 38.5751 57.2773 39.2578 57.2773H54.7031C55.3859 57.2773 56.0406 57.0061 56.5234 56.5234C57.0061 56.0406 57.2773 55.3859 57.2773 54.7031V39.2578ZM49.5547 26.3867H34.1094C32.0612 26.3867 30.0969 27.2004 28.6486 28.6486C27.2004 30.0969 26.3867 32.0612 26.3867 34.1094V49.5547C26.3867 50.2374 26.6579 50.8922 27.1407 51.3749C27.6234 51.8577 28.2782 52.1289 28.9609 52.1289C29.6437 52.1289 30.2984 51.8577 30.7812 51.3749C31.2639 50.8922 31.5352 50.2374 31.5352 49.5547V34.1094C31.5352 33.4266 31.8064 32.7719 32.2891 32.2891C32.7719 31.8064 33.4266 31.5352 34.1094 31.5352H49.5547C50.2374 31.5352 50.8922 31.2639 51.3749 30.7812C51.8577 30.2984 52.1289 29.6437 52.1289 28.9609C52.1289 28.2782 51.8577 27.6234 51.3749 27.1407C50.8922 26.6579 50.2374 26.3867 49.5547 26.3867ZM52.1289 41.832V52.1289H41.832V41.832H52.1289ZM80.4453 31.5352H95.8906C96.5733 31.5352 97.2281 31.8064 97.7109 32.2891C98.1936 32.7719 98.4648 33.4266 98.4648 34.1094V49.5547C98.4648 50.2374 98.7361 50.8922 99.2188 51.3749C99.7016 51.8577 100.356 52.1289 101.039 52.1289C101.722 52.1289 102.377 51.8577 102.859 51.3749C103.342 50.8922 103.613 50.2374 103.613 49.5547V34.1094C103.613 32.0612 102.8 30.0969 101.351 28.6486C99.9031 27.2004 97.9388 26.3867 95.8906 26.3867H80.4453C79.7626 26.3867 79.1078 26.6579 78.6251 27.1407C78.1423 27.6234 77.8711 28.2782 77.8711 28.9609C77.8711 29.6437 78.1423 30.2984 78.6251 30.7812C79.1078 31.2639 79.7626 31.5352 80.4453 31.5352ZM65 41.832H88.168V49.5547C88.168 50.2374 88.4392 50.8922 88.9219 51.3749C89.4047 51.8577 90.0595 52.1289 90.7422 52.1289C91.4249 52.1289 92.0797 51.8577 92.5624 51.3749C93.0452 50.8922 93.3164 50.2374 93.3164 49.5547V39.2578C93.3164 38.5751 93.0452 37.9203 92.5624 37.4376C92.0797 36.9548 91.4249 36.6836 90.7422 36.6836H65C64.3173 36.6836 63.6625 36.9548 63.1798 37.4376C62.697 37.9203 62.4258 38.5751 62.4258 39.2578C62.4258 39.9405 62.697 40.5953 63.1798 41.0781C63.6625 41.5608 64.3173 41.832 65 41.832Z" stroke="#2F4F2F" stroke-width="3" mask="url(#path-2-inside-1_1216_544)"/>
<path d="M88.168 77.8711V88.168H77.8711V77.8711H88.168Z" stroke="#2F4F2F" stroke-width="3" mask="url(#path-2-inside-1_1216_544)"/>
</g>
<defs>
<linearGradient id="paint0_linear_1216_544" x1="19.0379" y1="19.0379" x2="110.962" y2="110.962" gradientUnits="userSpaceOnUse">
<stop stop-color="#2F4F2F"/>
<stop offset="1" stop-color="#2F4F2F"/>
</linearGradient>
<clipPath id="clip0_1216_544">
<rect width="130" height="130" fill="white"/>
</clipPath>
</defs>
</svg>
