<svg width="130" height="130" viewBox="0 0 130 130" fill="none" xmlns="http://www.w3.org/2000/svg">
<g clip-path="url(#clip0_1213_163)">
<path d="M65 130C100.899 130 130 100.899 130 65C130 29.1015 100.899 0 65 0C29.1015 0 0 29.1015 0 65C0 100.899 29.1015 130 65 130Z" fill="url(#paint0_linear_1213_163)"/>
<g clip-path="url(#clip1_1213_163)">
<path d="M78.4922 41.3486H100.712C101.297 41.3487 101.864 41.783 101.864 42.501C101.864 43.2188 101.297 43.6533 100.712 43.6533H78.4922C77.9073 43.6533 77.34 43.2188 77.3398 42.501C77.3398 42.1094 77.4567 41.8285 77.6387 41.6465C77.8207 41.4647 78.1009 41.3486 78.4922 41.3486ZM78.4922 35.9727H94.7988C95.3837 35.9728 95.9512 36.4071 95.9512 37.125C95.9511 37.8429 95.3836 38.2772 94.7988 38.2773H78.4922C77.9073 38.2773 77.3399 37.843 77.3398 37.125C77.3398 36.7334 77.4567 36.4535 77.6387 36.2715C77.8207 36.0895 78.1006 35.9727 78.4922 35.9727Z" fill="#FFD700" stroke="#2F4F2F" stroke-width="0.562628"/>
<path d="M69.3508 43.2174C69.1716 37.3041 65.4086 34.9746 60.7496 34.9746C56.0906 34.9746 52.3276 37.3041 52.1484 43.2174C52.3276 47.6972 69.3508 47.6972 69.3508 43.2174Z" fill="#2F4F2F"/>
<path d="M60.5703 33.8203C63.4697 33.8203 65.8133 34.6984 67.4531 36.2734C69.0926 37.8482 70.0567 40.1471 70.1445 43.0449V43.0498C70.2252 44.6632 69.1111 45.7951 67.2949 46.5391C65.4834 47.281 63.0609 47.5927 60.75 47.5928C58.5305 47.5928 56.1038 47.2811 54.2207 46.5586C52.3256 45.8314 51.0798 44.732 50.9971 43.2051C51.0884 40.2244 52.0525 37.8869 53.6885 36.2939C55.3278 34.6977 57.6711 33.8203 60.5703 33.8203ZM60.75 36.125C59.108 36.125 57.2467 36.4425 55.7676 37.5225C54.2745 38.6126 53.2129 40.4479 53.1211 43.3857V43.3945C53.1211 43.5778 53.2117 43.7389 53.3203 43.8672C53.4316 43.9984 53.5857 44.1233 53.7686 44.2412C54.1356 44.4778 54.6592 44.711 55.3115 44.917C56.6194 45.33 58.4855 45.6475 60.75 45.6475C63.1026 45.6474 64.9259 45.3307 66.1699 44.916C66.7904 44.7092 67.2772 44.4741 67.6152 44.2344C67.784 44.1147 67.9239 43.9875 68.0244 43.8545C68.1238 43.7229 68.1982 43.5665 68.1982 43.3945C68.1982 40.3691 67.1853 38.5273 65.708 37.4551C64.2482 36.3956 62.3848 36.1251 60.75 36.125Z" fill="#FFD700" stroke="#2F4F2F" stroke-width="0.562628"/>
<path d="M60.9316 24.1465C62.7555 24.1466 64.2344 25.6253 64.2344 27.4492C64.2343 29.273 62.7554 30.7519 60.9316 30.752C59.1078 30.752 57.629 29.2731 57.6289 27.4492C57.6289 25.6253 59.1077 24.1465 60.9316 24.1465Z" fill="white" stroke="#2F4F2F" stroke-width="0.562628"/>
<path d="M78.4883 71.8096H100.708C101.293 71.8096 101.86 72.2439 101.86 72.9619C101.86 73.6797 101.293 74.1142 100.708 74.1143H78.4883C77.9034 74.1143 77.3361 73.6798 77.3359 72.9619C77.3359 72.5703 77.4527 72.2894 77.6348 72.1074C77.8168 71.9256 78.097 71.8096 78.4883 71.8096ZM78.4883 66.4336H94.7949C95.3798 66.4337 95.9473 66.868 95.9473 67.5859C95.9472 68.3038 95.3797 68.7381 94.7949 68.7383H78.4883C77.9034 68.7383 77.336 68.3039 77.3359 67.5859C77.3359 67.1944 77.4528 66.9144 77.6348 66.7324C77.8168 66.5504 78.0967 66.4336 78.4883 66.4336ZM60.9277 22.7109C63.4535 22.7111 65.4844 24.7289 65.4844 27.4473C65.4843 30.1519 63.467 32.0038 60.9277 32.0039C58.3886 32.0039 56.1914 29.9728 56.1914 27.2676C56.1916 24.5758 58.3748 22.7109 60.9277 22.7109ZM60.9277 24.8359C59.518 24.8359 58.3164 26.0376 58.3164 27.4473C58.3165 28.8855 59.5483 29.8789 60.9277 29.8789C62.3373 29.8788 63.5381 28.6772 63.5381 27.2676C63.5379 25.8295 62.307 24.836 60.9277 24.8359Z" fill="#FFD700" stroke="#2F4F2F" stroke-width="0.562628"/>
<path d="M69.3508 73.4987C69.1716 67.5853 65.4086 65.2559 60.7496 65.2559C56.0906 65.2559 52.3276 67.5853 52.1484 73.4987C52.3276 77.9784 69.3508 77.9784 69.3508 73.4987Z" fill="#2F4F2F"/>
<path d="M60.5703 64.1035C63.4697 64.1035 65.8133 64.9816 67.4531 66.5566C69.0926 68.1314 70.0567 70.4303 70.1445 73.3281V73.333C70.2252 74.9464 69.1111 76.0783 67.2949 76.8223C65.4834 77.5642 63.0609 77.8759 60.75 77.876C58.5305 77.876 56.1038 77.5643 54.2207 76.8418C52.3257 76.1146 51.0798 75.0152 50.9971 73.4883C51.0884 70.5076 52.0525 68.1701 53.6885 66.5771C55.3278 64.9809 57.6711 64.1035 60.5703 64.1035ZM60.75 66.4082C59.108 66.4082 57.2467 66.7257 55.7676 67.8057C54.2745 68.8958 53.2129 70.7311 53.1211 73.6689V73.6777C53.1211 73.861 53.2117 74.0221 53.3203 74.1504C53.4316 74.2816 53.5857 74.4065 53.7686 74.5244C54.1356 74.761 54.6592 74.9942 55.3115 75.2002C56.6194 75.6132 58.4855 75.9307 60.75 75.9307C63.1026 75.9306 64.9259 75.6139 66.1699 75.1992C66.7904 74.9924 67.2772 74.7573 67.6152 74.5176C67.784 74.3979 67.9239 74.2707 68.0244 74.1377C68.1238 74.0061 68.1982 73.8497 68.1982 73.6777C68.1982 70.6523 67.1853 68.8105 65.708 67.7383C64.2482 66.6788 62.3848 66.4083 60.75 66.4082Z" fill="#FFD700" stroke="#2F4F2F" stroke-width="0.562628"/>
<path d="M60.9316 54.4277C62.7555 54.4278 64.2344 55.9066 64.2344 57.7305C64.2343 59.5543 62.7554 61.0331 60.9316 61.0332C59.1078 61.0332 57.629 59.5543 57.6289 57.7305C57.6289 55.9065 59.1077 54.4277 60.9316 54.4277Z" fill="white" stroke="#2F4F2F" stroke-width="0.562628"/>
<path d="M78.4883 102.271H100.708C101.293 102.272 101.86 102.706 101.86 103.424C101.86 104.142 101.293 104.576 100.708 104.576H78.4883C77.9033 104.576 77.3359 104.142 77.3359 103.424C77.336 103.032 77.4528 102.752 77.6348 102.57C77.8168 102.388 78.0968 102.271 78.4883 102.271ZM78.4883 96.5381H94.7949C95.3796 96.5382 95.9471 96.9718 95.9473 97.6895C95.9473 98.4074 95.3798 98.8416 94.7949 98.8418H78.4883C77.9033 98.8418 77.3359 98.4075 77.3359 97.6895C77.336 97.2981 77.4528 97.0179 77.6348 96.8359C77.8168 96.654 78.0969 96.5381 78.4883 96.5381ZM60.9277 52.9941C63.6259 52.9943 65.4844 55.0051 65.4844 57.7305C65.4843 60.4487 63.4534 62.4657 60.9277 62.4658C58.3887 62.4658 56.1915 60.4355 56.1914 57.7305C56.1914 55.0188 58.216 52.9941 60.9277 52.9941ZM60.9277 55.2988C59.5181 55.2988 58.3165 56.4996 58.3164 57.9092C58.3164 59.3189 59.518 60.5205 60.9277 60.5205C62.3373 60.5204 63.5381 59.3188 63.5381 57.9092C63.5379 56.4997 62.3373 55.299 60.9277 55.2988Z" fill="#FFD700" stroke="#2F4F2F" stroke-width="0.562628"/>
<path d="M69.3508 103.782C69.1716 97.8686 65.4086 95.5391 60.7496 95.5391C56.0906 95.5391 52.3276 97.8686 52.1484 103.782C52.3276 108.262 69.3508 108.262 69.3508 103.782Z" fill="#2F4F2F"/>
<path d="M60.7461 94.3887C63.6454 94.3887 65.9891 95.2667 67.6289 96.8418C69.166 98.3182 70.1098 100.431 70.2939 103.077L70.3203 103.613C70.3161 105.229 69.152 106.363 67.3154 107.106C65.4806 107.849 63.0569 108.161 60.7461 108.161C58.5262 108.161 56.1002 107.85 54.2402 107.128C52.3694 106.402 51.1762 105.308 51.1719 103.792C51.2598 100.802 52.2249 98.4585 53.8643 96.8623C55.5036 95.2661 57.8468 94.3887 60.7461 94.3887ZM60.7461 96.5137C59.1041 96.5137 57.2437 96.8322 55.7646 97.9121C54.2716 99.0023 53.21 100.838 53.1182 103.775V103.784C53.1183 103.967 53.2079 104.128 53.3164 104.256C53.4277 104.387 53.5816 104.513 53.7646 104.631C54.1316 104.867 54.6554 105.101 55.3076 105.307C56.6155 105.72 58.4816 106.036 60.7461 106.036C63.0989 106.036 64.9219 105.719 66.166 105.305C66.7863 105.098 67.2733 104.864 67.6113 104.624C67.7801 104.504 67.921 104.377 68.0215 104.244C68.1208 104.113 68.1952 103.956 68.1953 103.784C68.1953 100.845 67.1801 99.006 65.707 97.9131C64.2494 96.8317 62.3873 96.5137 60.7461 96.5137Z" fill="#FFD700" stroke="#2F4F2F" stroke-width="0.562628"/>
<path d="M60.9316 84.709C62.7555 84.7091 64.2344 86.1878 64.2344 88.0117C64.2343 89.8355 62.7554 91.3144 60.9316 91.3145C59.1078 91.3145 57.629 89.8356 57.6289 88.0117C57.6289 86.1878 59.1077 84.709 60.9316 84.709Z" fill="white" stroke="#2F4F2F" stroke-width="0.562628"/>
<path d="M60.9287 83.0977C63.6269 83.0977 65.4862 85.1086 65.4863 87.834C65.4863 90.5524 63.4545 92.5703 60.9287 92.5703C58.3898 92.5701 56.1934 90.539 56.1934 87.834C56.1934 85.1225 58.2173 83.0979 60.9287 83.0977ZM60.9287 85.4023C59.5192 85.4026 58.3184 86.6041 58.3184 88.0137C58.3185 89.4231 59.5193 90.6238 60.9287 90.624C62.3383 90.624 63.5399 89.4232 63.54 88.0137C63.54 86.604 62.3384 85.4023 60.9287 85.4023ZM36.918 27.5488C37.5028 27.549 38.0693 27.9833 38.0693 28.7012C38.0693 28.8758 38.0268 28.9993 37.9658 29.0908C37.9036 29.1842 37.8109 29.2615 37.6875 29.3232C37.4327 29.4505 37.0822 29.4951 36.7383 29.4951C33.3749 29.4952 30.544 32.1127 30.5439 35.3311C30.5439 38.5326 33.1783 41.1669 36.3799 41.167C39.5815 41.167 42.2158 38.5327 42.2158 35.3311C42.2159 34.7462 42.6503 34.1789 43.3682 34.1787C43.7597 34.1787 44.0406 34.2955 44.2227 34.4775C44.4045 34.6595 44.5205 34.9397 44.5205 35.3311C44.5205 39.8425 41.0551 43.4715 36.5596 43.4717C32.0601 43.4717 28.5979 39.839 28.5977 35.5107C28.5977 31.1941 32.2273 27.5488 36.918 27.5488Z" fill="#FFD700" stroke="#2F4F2F" stroke-width="0.562628"/>
<path d="M36.5596 57.6533C37.1443 57.6535 37.7107 58.087 37.7109 58.8047C37.7109 59.167 37.5715 59.3963 37.376 59.543C37.1694 59.6979 36.8762 59.7783 36.5596 59.7783C33.1729 59.7783 30.7227 62.4187 30.7227 65.6143C30.7227 68.8042 33.3466 71.6299 36.5596 71.6299C39.7668 71.6297 42.3955 68.9891 42.3955 65.6143C42.3955 65.0293 42.8298 64.4619 43.5479 64.4619C43.9393 64.462 44.2194 64.5788 44.4014 64.7607C44.5817 64.9411 44.6981 65.2176 44.7002 65.6035C44.5263 70.1254 41.0535 73.7547 36.5596 73.7549C32.0638 73.7549 28.5977 70.1258 28.5977 65.6143C28.5977 61.1107 32.056 57.6533 36.5596 57.6533ZM44.6426 27.1084C45.0703 26.6807 45.7881 26.6807 46.2158 27.1084C46.6419 27.5347 46.6432 28.2486 46.2197 28.6768L37.4395 37.0986L37.4043 37.1328L37.3828 37.1768C37.3336 37.2749 37.2691 37.3193 37.1768 37.3457C37.065 37.3776 36.9272 37.3789 36.7383 37.3789C36.4594 37.3789 36.171 37.2335 36.041 37.1035L33.5322 34.5947C33.1047 34.1671 33.1049 33.4492 33.5322 33.0215C33.9599 32.5938 34.6777 32.5939 35.1055 33.0215L36.7188 34.6338L36.918 34.833L37.1162 34.6338L44.6426 27.1084Z" fill="#FFD700" stroke="#2F4F2F" stroke-width="0.562628"/>
<path d="M36.5596 87.7559C37.1443 87.756 37.7107 88.1896 37.7109 88.9072C37.7109 89.2696 37.5715 89.4988 37.376 89.6455C37.1694 89.8004 36.8762 89.8808 36.5596 89.8809C33.3522 89.8809 30.7227 92.5215 30.7227 95.8965C30.7229 99.2712 33.3523 101.911 36.5596 101.911C39.7667 101.911 42.3953 99.2711 42.3955 95.8965C42.3955 95.3115 42.8298 94.7441 43.5479 94.7441C43.9392 94.7442 44.2194 94.8601 44.4014 95.042C44.5816 95.2223 44.698 95.4991 44.7002 95.8848C44.5263 100.407 41.0535 104.037 36.5596 104.037C32.064 104.037 28.5979 100.408 28.5977 95.8965C28.5977 91.3889 32.2391 87.7559 36.5596 87.7559ZM44.6426 57.5693C45.0703 57.1416 45.7881 57.1416 46.2158 57.5693C46.6433 57.9971 46.6435 58.7149 46.2158 59.1426L37.8389 67.5186C37.7255 67.5573 37.6201 67.5955 37.5234 67.6309C37.4073 67.6734 37.3049 67.7102 37.209 67.7422C37.0163 67.8064 36.8716 67.8398 36.7383 67.8398C36.4594 67.8398 36.171 67.6944 36.041 67.5645L33.5322 65.0557C33.1047 64.628 33.1049 63.9101 33.5322 63.4824C33.9599 63.0547 34.6777 63.0548 35.1055 63.4824L36.7188 65.0947L36.918 65.2939L37.1162 65.0947L44.6426 57.5693Z" fill="#FFD700" stroke="#2F4F2F" stroke-width="0.562628"/>
<path d="M44.6455 87.6768C45.0732 87.249 45.791 87.249 46.2188 87.6768C46.6463 88.1045 46.6464 88.8224 46.2188 89.25L37.8193 97.6484C37.5854 97.8016 37.3997 97.8737 37.2402 97.9092C37.0727 97.9464 36.9224 97.9473 36.7412 97.9473C36.4624 97.9472 36.1739 97.8018 36.0439 97.6719L33.5361 95.1631C33.1084 94.7354 33.1084 94.0176 33.5361 93.5898C33.9639 93.1622 34.6817 93.1622 35.1094 93.5898L36.9209 95.4014L37.1191 95.2021L44.6455 87.6768Z" fill="#FFD700" stroke="#2F4F2F" stroke-width="0.562628"/>
</g>
</g>
<defs>
<linearGradient id="paint0_linear_1213_163" x1="19.0379" y1="19.0379" x2="110.962" y2="110.962" gradientUnits="userSpaceOnUse">
<stop stop-color="#2F4F2F"/>
<stop offset="1" stop-color="#2F4F2F"/>
</linearGradient>
<clipPath id="clip0_1213_163">
<rect width="130" height="130" fill="white"/>
</clipPath>
<clipPath id="clip1_1213_163">
<rect width="86.0117" height="86.0117" fill="white" transform="translate(22.2266 22.4297)"/>
</clipPath>
</defs>
</svg>
