<svg width="130" height="130" viewBox="0 0 130 130" fill="none" xmlns="http://www.w3.org/2000/svg">
<g clip-path="url(#clip0_1214_267)">
<path d="M65 130C100.899 130 130 100.899 130 65C130 29.1015 100.899 0 65 0C29.1015 0 0 29.1015 0 65C0 100.899 29.1015 130 65 130Z" fill="url(#paint0_linear_1214_267)"/>
<g clip-path="url(#clip1_1214_267)">
<path d="M61.167 53.8281H67.8789C74.2259 53.8281 78.5586 59.0903 79.5381 65.5508L80.1055 69.3076L80.1064 69.3154C80.2091 69.9303 80.1725 70.5611 80 71.1602C79.8275 71.7591 79.5232 72.3123 79.1094 72.7783L79.1045 72.7842C78.7654 73.1787 78.1307 73.5724 77.2002 73.9346C76.2819 74.292 75.127 74.5991 73.8037 74.8496C71.1583 75.3505 67.8902 75.6167 64.6055 75.6328C61.3206 75.6489 58.0395 75.4145 55.3682 74.9219C54.032 74.6754 52.8604 74.367 51.9229 73.999C50.9755 73.6272 50.3147 73.2131 49.9463 72.7842L49.9404 72.7783L49.791 72.5996C49.453 72.1732 49.2008 71.6844 49.0498 71.1602C48.8773 70.5611 48.8407 69.9303 48.9434 69.3154L48.9453 69.3086L49.5127 65.5508C50.472 59.1913 54.6851 53.9927 60.8711 53.832L61.167 53.8281Z" fill="#2F4F2F" stroke="#FFD700"/>
<path d="M88.7998 62.627H95.5117C101.858 62.6271 106.19 67.8939 107.17 74.3545L107.738 78.1113L107.739 78.1191C107.842 78.7341 107.805 79.3648 107.633 79.9639C107.46 80.5628 107.156 81.1159 106.742 81.582L106.737 81.5879C106.398 81.9823 105.764 82.3762 104.834 82.7383C103.916 83.0957 102.761 83.4028 101.438 83.6533C98.7923 84.1542 95.5238 84.4204 92.2393 84.4365C88.9548 84.4526 85.6743 84.2182 83.0029 83.7256C81.6668 83.4792 80.4955 83.1707 79.5576 82.8027C78.6099 82.4309 77.9482 82.0169 77.5791 81.5879L77.5732 81.582L77.4238 81.4033C77.0858 80.977 76.8336 80.4881 76.6826 79.9639C76.5101 79.3648 76.4735 78.7341 76.5762 78.1191L76.5781 78.1113L77.1455 74.3545C78.12 67.8939 82.4527 62.627 88.7998 62.627Z" fill="#2F4F2F" stroke="#FFD700"/>
<path d="M101.852 40.3872C101.855 40.0646 101.986 39.7565 102.216 39.5297C102.445 39.303 102.755 39.1758 103.077 39.1758C103.4 39.1758 103.71 39.303 103.939 39.5297C104.169 39.7565 104.299 40.0646 104.303 40.3872V45.0859C104.305 45.2481 104.275 45.4091 104.214 45.5595C104.153 45.7099 104.063 45.8467 103.949 45.9621C103.835 46.0775 103.7 46.1691 103.55 46.2316C103.4 46.2941 103.24 46.3263 103.077 46.3263C102.915 46.3263 102.755 46.2941 102.605 46.2316C102.455 46.1691 102.32 46.0775 102.206 45.9621C102.091 45.8467 102.002 45.7099 101.941 45.5595C101.88 45.4091 101.85 45.2481 101.852 45.0859V40.3872Z" fill="#FFD700"/>
<path fill-rule="evenodd" clip-rule="evenodd" d="M100.594 53.762C100.588 55.9796 99.7035 58.1044 98.1349 59.6721C96.5663 61.2397 94.441 62.1227 92.2233 62.1281H92.0888C89.8719 62.1217 87.7477 61.2382 86.1801 59.6707C84.6125 58.1031 83.7291 55.9789 83.7227 53.762V39.3516H100.594V53.762Z" fill="#FFD700"/>
<path d="M100.095 39.8516V48.1699H84.2227V39.8516H100.095Z" fill="#315731" stroke="#FFD700"/>
<path d="M103.864 39.5703L92.1562 43.6895L80.4443 39.5703L92.1562 35.4512L103.864 39.5703Z" fill="#2F4F2F" stroke="#FFD700"/>
<path d="M74.2148 31.5831C74.2148 31.2581 74.344 30.9463 74.5738 30.7164C74.8037 30.4866 75.1155 30.3574 75.4406 30.3574C75.7656 30.3574 76.0774 30.4866 76.3073 30.7164C76.5371 30.9463 76.6663 31.2581 76.6663 31.5831V36.287C76.6663 36.6121 76.5371 36.9238 76.3073 37.1537C76.0774 37.3836 75.7656 37.5127 75.4406 37.5127C75.1155 37.5127 74.8037 37.3836 74.5738 37.1537C74.344 36.9238 74.2148 36.6121 74.2148 36.287V31.5831Z" fill="#FFD700"/>
<path fill-rule="evenodd" clip-rule="evenodd" d="M72.9616 44.9563C72.9551 47.1744 72.0711 49.2999 70.5026 50.8683C68.9341 52.4368 66.8087 53.3209 64.5905 53.3274H64.456C62.2386 53.3198 60.1143 52.4352 58.5468 50.8668C56.9794 49.2985 56.0961 47.1736 56.0898 44.9563V30.5508H72.9616V44.9561V44.9563Z" fill="#FFD700"/>
<path d="M72.4619 31.0508V39.3682H56.5898V31.0508H72.4619Z" fill="#315731" stroke="#FFD700"/>
<path d="M76.2314 30.7666L64.5234 34.8896L52.8105 30.7666L64.5234 26.6465L76.2314 30.7666Z" fill="#2F4F2F" stroke="#FFD700"/>
<path d="M33.5312 62.627H40.2432C46.5899 62.6272 50.9218 67.8939 51.9014 74.3545L52.4697 78.1113L52.4707 78.1191C52.5733 78.7341 52.5367 79.3648 52.3643 79.9639C52.1917 80.5628 51.8874 81.1159 51.4736 81.582L51.4688 81.5879C51.1297 81.9824 50.4949 82.3761 49.5645 82.7383C48.6461 83.0957 47.4913 83.4028 46.168 83.6533C43.5224 84.1542 40.2539 84.4204 36.9688 84.4365C33.6834 84.4526 30.4015 84.2183 27.7295 83.7256C26.3932 83.4792 25.2221 83.1707 24.2842 82.8027C23.3363 82.4309 22.6747 82.0169 22.3057 81.5879L22.3008 81.582L22.1504 81.4033C21.8131 80.9769 21.5624 80.4879 21.4121 79.9639C21.2404 79.3648 21.2042 78.7346 21.3076 78.1201L21.3096 78.1113L21.877 74.3545C22.8515 67.8939 27.1842 62.627 33.5312 62.627Z" fill="#2F4F2F" stroke="#FFD700"/>
<path d="M46.5821 40.3872C46.5859 40.0646 46.7168 39.7565 46.9462 39.5297C47.1757 39.303 47.4853 39.1758 47.8079 39.1758C48.1305 39.1758 48.4402 39.303 48.6696 39.5297C48.8991 39.7565 49.0299 40.0646 49.0337 40.3872V45.0859C49.0356 45.2481 49.0053 45.4091 48.9446 45.5595C48.8839 45.7099 48.7939 45.8467 48.6799 45.9621C48.5658 46.0775 48.4301 46.1691 48.2804 46.2316C48.1307 46.2941 47.9701 46.3263 47.8079 46.3263C47.6457 46.3263 47.4851 46.2941 47.3355 46.2316C47.1858 46.1691 47.05 46.0775 46.936 45.9621C46.822 45.8467 46.732 45.7099 46.6712 45.5595C46.6105 45.4091 46.5802 45.2481 46.5821 45.0859V40.3872Z" fill="#FFD700"/>
<path fill-rule="evenodd" clip-rule="evenodd" d="M45.3249 53.762C45.3182 55.9796 44.4339 58.1044 42.8653 59.6721C41.2968 61.2397 39.1714 62.1227 36.9538 62.1281H36.8193C34.6021 62.1226 32.4774 61.2394 30.9096 59.6716C29.3419 58.1039 28.4587 55.9791 28.4531 53.762V39.3516H45.3249V53.762Z" fill="#FFD700"/>
<path d="M44.8252 39.8516V48.1699H28.9531V39.8516H44.8252Z" fill="#315731" stroke="#FFD700"/>
<path d="M48.5947 39.5703L36.8867 43.6895L25.1748 39.5703L36.8867 35.4512L48.5947 39.5703Z" fill="#2F4F2F" stroke="#FFD700"/>
<path d="M64.5215 67.2422C69.2801 67.2506 73.8421 69.1449 77.207 72.5098C80.4667 75.7695 82.3459 80.152 82.4678 84.749L82.4746 85.1943C82.4741 95.0829 74.4108 103.149 64.5225 103.149C54.634 103.149 46.5664 95.0819 46.5664 85.1934C46.5664 75.3054 54.6331 67.2429 64.5215 67.2422Z" fill="#2F4F2F" stroke="white"/>
<path fill-rule="evenodd" clip-rule="evenodd" d="M53.2812 78.4969C57.0283 76.5387 60.7754 76.5885 64.5225 78.4969C68.2696 76.5885 72.0112 76.5387 75.7588 78.4969V93.3457C72.0117 91.3826 68.2701 91.4373 64.5225 93.3457C60.7754 91.4373 57.0283 91.3826 53.2812 93.3457V78.4969Z" fill="white"/>
<path d="M63.293 92.7856V77.9375C63.7016 78.102 64.1101 78.2863 64.524 78.4956C64.9326 78.2863 65.3412 78.1023 65.755 77.9375V92.7856C65.3361 92.9521 64.9253 93.1383 64.524 93.3437C64.1218 93.1402 63.7111 92.954 63.293 92.7856Z" fill="#EEEEEE"/>
</g>
</g>
<defs>
<linearGradient id="paint0_linear_1214_267" x1="19.0379" y1="19.0379" x2="110.962" y2="110.962" gradientUnits="userSpaceOnUse">
<stop stop-color="#2F4F2F"/>
<stop offset="1" stop-color="#2F4F2F"/>
</linearGradient>
<clipPath id="clip0_1214_267">
<rect width="130" height="130" fill="white"/>
</clipPath>
<clipPath id="clip1_1214_267">
<rect width="87.5391" height="87.5391" fill="white" transform="translate(20.7539 21.1133)"/>
</clipPath>
</defs>
</svg>
