<svg width="512" height="512" viewBox="0 0 512 512" fill="none" xmlns="http://www.w3.org/2000/svg">
<rect width="512" height="512" rx="40" fill="#2F4F2F"/>
<path d="M255.549 359.882C255.549 359.979 255.549 360.069 255.549 360.139C255.571 360.095 255.595 360.054 255.617 360.011C255.637 360.052 255.66 360.09 255.681 360.131C255.681 360.066 255.681 359.98 255.681 359.892C263.862 343.784 281.316 342.847 279.364 326.44C261.684 327.005 259.499 330.939 255.622 332.942C251.738 330.941 249.567 326.998 231.866 326.432C229.915 342.84 247.369 343.775 255.549 359.882Z" stroke="#FFD700" stroke-width="1.16672"/>
<path d="M102.505 206.356C102.409 206.356 102.32 206.356 102.25 206.356C102.294 206.377 102.334 206.402 102.377 206.423C102.336 206.444 102.299 206.467 102.257 206.487C102.323 206.487 102.408 206.487 102.497 206.487C118.604 214.668 119.54 232.121 135.949 230.17C135.383 212.491 131.449 210.304 129.446 206.429C131.447 202.544 135.39 200.374 135.956 182.672C119.549 180.721 118.612 198.175 102.505 206.356Z" stroke="#FFD700" stroke-width="1.16672"/>
<path d="M408.997 206.487C409.094 206.487 409.183 206.487 409.253 206.487C409.209 206.466 409.169 206.441 409.125 206.42C409.167 206.399 409.205 206.376 409.247 206.356C409.181 206.356 409.095 206.356 409.006 206.356C392.898 198.175 391.962 180.722 375.555 182.672C376.119 200.352 380.054 202.539 382.056 206.415C380.056 210.299 376.113 212.47 375.547 230.17C391.955 232.121 392.89 214.668 408.997 206.487Z" stroke="#FFD700" stroke-width="1.16672"/>
<path d="M396.886 264.863C396.975 264.9 397.057 264.934 397.121 264.961C397.09 264.924 397.062 264.886 397.029 264.849C397.076 264.845 397.119 264.839 397.165 264.835C397.104 264.81 397.025 264.778 396.942 264.744C385.138 251.069 390.887 234.564 374.964 230.148C368.786 246.724 371.598 250.238 371.981 254.584C368.658 257.42 364.185 257.934 356.953 274.099C371.398 282.124 378.88 266.328 396.886 264.863Z" stroke="#FFD700" stroke-width="1.16672"/>
<path d="M363.824 314.693C363.892 314.761 363.955 314.823 364.006 314.874C363.989 314.827 363.978 314.782 363.962 314.735C364.006 314.75 364.049 314.76 364.093 314.775C364.045 314.729 363.985 314.669 363.922 314.606C358.311 297.433 369.985 284.426 357 274.207C344.903 287.113 346.141 291.441 344.818 295.597C340.657 296.932 336.334 295.679 323.422 307.8C333.65 320.778 346.648 309.094 363.824 314.693Z" stroke="#FFD700" stroke-width="1.16672"/>
<path d="M314.21 347.842C314.249 347.931 314.285 348.013 314.312 348.077C314.314 348.027 314.321 347.982 314.324 347.932C314.359 347.962 314.395 347.987 314.43 348.018C314.404 347.958 314.371 347.88 314.334 347.797C315.418 329.764 331.054 321.95 322.726 307.68C306.737 315.243 306.299 319.723 303.542 323.104C299.183 322.816 295.621 320.065 279.16 326.6C283.908 342.425 300.289 336.33 314.21 347.842Z" stroke="#FFD700" stroke-width="1.16672"/>
<path d="M113.608 264.77C113.518 264.806 113.436 264.84 113.371 264.866C113.403 264.829 113.431 264.792 113.464 264.755C113.418 264.752 113.374 264.745 113.328 264.741C113.39 264.717 113.469 264.684 113.551 264.65C125.355 250.975 119.606 234.469 135.528 230.055C141.707 246.629 138.895 250.143 138.511 254.489C141.835 257.326 146.306 257.84 153.539 274.005C139.096 282.03 131.614 266.234 113.608 264.77Z" stroke="#FFD700" stroke-width="1.16672"/>
<path d="M146.667 314.597C146.599 314.664 146.536 314.728 146.486 314.778C146.502 314.731 146.514 314.687 146.529 314.64C146.485 314.654 146.442 314.664 146.398 314.679C146.445 314.633 146.505 314.572 146.569 314.509C152.18 297.338 140.506 284.33 153.492 274.111C165.588 287.017 164.351 291.345 165.674 295.502C169.835 296.835 174.158 295.584 187.07 307.704C176.842 320.683 163.843 308.999 146.667 314.597Z" stroke="#FFD700" stroke-width="1.16672"/>
<path d="M196.285 347.747C196.246 347.836 196.21 347.918 196.182 347.982C196.18 347.932 196.174 347.886 196.171 347.838C196.135 347.867 196.1 347.892 196.065 347.923C196.091 347.862 196.124 347.785 196.16 347.702C195.076 329.669 179.441 321.856 187.769 307.584C203.759 315.148 204.197 319.627 206.953 323.008C211.314 322.722 214.876 319.97 231.336 326.504C226.587 342.331 210.206 336.235 196.285 347.747Z" stroke="#FFD700" stroke-width="1.16672"/>
<path d="M114.448 148.064C114.359 148.027 114.276 147.993 114.211 147.967C114.244 148.003 114.272 148.041 114.304 148.077C114.258 148.081 114.214 148.088 114.168 148.091C114.229 148.116 114.308 148.148 114.391 148.182C126.194 161.859 120.445 178.364 136.368 182.778C142.546 166.204 139.734 162.689 139.351 158.343C142.674 155.507 147.146 154.993 154.379 138.828C139.936 130.804 132.454 146.6 114.448 148.064Z" stroke="#FFD700" stroke-width="1.16672"/>
<path d="M147.507 98.2367C147.439 98.1684 147.376 98.1061 147.326 98.0566C147.342 98.1027 147.353 98.1479 147.369 98.1949C147.325 98.1804 147.282 98.1692 147.238 98.1547C147.285 98.2017 147.345 98.2623 147.409 98.3254C153.02 115.497 141.346 128.505 154.331 138.723C166.428 125.818 165.19 121.49 166.514 117.333C170.674 115.999 174.998 117.251 187.91 105.13C177.681 92.1511 164.683 103.835 147.507 98.2367Z" stroke="#FFD700" stroke-width="1.16672"/>
<path d="M197.127 65.0862C197.089 64.9975 197.054 64.9155 197.026 64.8516C197.023 64.9002 197.017 64.9471 197.014 64.9958C196.979 64.9659 196.944 64.9403 196.908 64.9104C196.934 64.971 196.968 65.0495 197.004 65.1314C195.92 83.1645 180.285 90.9778 188.613 105.249C204.602 97.6861 205.04 93.2062 207.797 89.8251C212.156 90.1118 215.718 92.8641 232.179 86.3289C227.429 70.5029 211.049 76.5995 197.127 65.0862Z" stroke="#FFD700" stroke-width="1.16672"/>
<path d="M396.916 148.208C397.006 148.172 397.088 148.138 397.153 148.111C397.12 148.148 397.093 148.185 397.061 148.222C397.107 148.226 397.15 148.232 397.196 148.236C397.135 148.261 397.056 148.293 396.973 148.327C385.169 162.002 390.919 178.508 374.995 182.923C368.817 166.348 371.629 162.834 372.013 158.488C368.689 155.651 364.217 155.138 356.984 138.972C371.428 130.948 378.91 146.744 396.916 148.208Z" stroke="#FFD700" stroke-width="1.16672"/>
<path d="M363.855 98.3801C363.923 98.3118 363.986 98.2487 364.036 98.1992C364.02 98.2453 364.01 98.2905 363.993 98.3374C364.038 98.3229 364.08 98.3118 364.123 98.2973C364.076 98.3442 364.016 98.404 363.953 98.4671C358.342 115.639 370.017 128.647 357.031 138.865C344.934 125.96 346.172 121.632 344.849 117.475C340.689 116.141 336.366 117.393 323.453 105.272C333.681 92.2937 346.68 103.978 363.855 98.3801Z" stroke="#FFD700" stroke-width="1.16672"/>
<path d="M255.6 326.944C255.6 327.024 255.6 327.098 255.6 327.156C255.635 327.12 255.672 327.086 255.707 327.05C255.741 327.084 255.776 327.116 255.809 327.15C255.809 327.095 255.809 327.024 255.809 326.95C268.821 313.589 296.351 319.75 293.477 299.201C285.33 302.047 272.959 304.819 264.285 306.169C261.157 308.374 258.455 307.805 255.682 310.648C252.767 307.805 249.071 307.805 247.648 306.312C242.459 305.601 233.855 305.033 217.93 299.195C217.575 320.885 242.587 313.583 255.6 326.944Z" stroke="#FFD700" stroke-width="1.16672"/>
<path d="M134.822 206.282C134.742 206.282 134.668 206.282 134.609 206.282C134.645 206.317 134.679 206.355 134.716 206.39C134.682 206.423 134.65 206.459 134.616 206.492C134.671 206.492 134.742 206.492 134.816 206.492C148.177 219.503 142.016 247.033 162.565 244.161C159.72 236.013 156.948 223.642 155.597 214.968C153.393 211.84 153.962 209.139 151.118 206.366C153.962 203.451 153.962 199.754 155.455 198.332C156.165 193.142 156.734 184.539 162.571 168.613C140.88 168.258 148.184 193.27 134.822 206.282Z" stroke="#FFD700" stroke-width="1.16672"/>
<path d="M376.413 206.523C376.493 206.523 376.567 206.523 376.625 206.523C376.589 206.488 376.555 206.45 376.52 206.415C376.553 206.382 376.584 206.346 376.619 206.313C376.565 206.313 376.493 206.313 376.42 206.313C363.058 193.302 369.218 165.772 348.671 168.644C351.515 176.792 354.288 189.163 355.639 197.837C357.843 200.965 357.274 203.666 360.118 206.439C357.274 209.354 357.274 213.051 355.781 214.473C355.07 219.663 354.501 228.266 348.664 244.192C370.356 244.547 363.052 219.534 376.413 206.523Z" stroke="#FFD700" stroke-width="1.16672"/>
<path d="M340.735 291.922C340.791 291.977 340.844 292.03 340.885 292.071C340.883 292.02 340.887 291.971 340.886 291.92C340.934 291.92 340.98 291.917 341.028 291.919C340.99 291.879 340.939 291.83 340.887 291.778C340.569 273.13 364.334 257.93 347.727 245.494C344.007 253.281 337.261 264.014 332.108 271.122C331.469 274.895 329.163 276.412 329.227 280.382C325.156 280.448 322.551 283.072 320.49 283.03C316.33 286.213 309.866 291.918 294.504 299.111C309.649 314.642 322.085 291.745 340.735 291.922Z" stroke="#FFD700" stroke-width="1.16672"/>
<path d="M170.563 291.647C170.507 291.703 170.454 291.755 170.413 291.797C170.414 291.746 170.411 291.695 170.412 291.645C170.365 291.646 170.317 291.642 170.27 291.643C170.308 291.605 170.358 291.554 170.411 291.502C170.729 272.855 146.964 257.655 163.571 245.219C167.291 253.006 174.038 263.739 179.189 270.848C179.829 274.62 182.136 276.137 182.07 280.108C186.143 280.173 188.746 282.797 190.808 282.755C194.968 285.937 201.432 291.643 216.794 298.835C201.649 314.367 189.212 291.47 170.563 291.647Z" stroke="#FFD700" stroke-width="1.16672"/>
<path d="M170.383 120.924C170.328 120.867 170.276 120.814 170.235 120.772C170.235 120.823 170.231 120.874 170.232 120.923C170.184 120.922 170.137 120.924 170.09 120.923C170.128 120.962 170.177 121.013 170.229 121.066C170.279 139.716 146.298 154.573 162.725 167.246C166.557 159.514 173.457 148.879 178.71 141.845C179.403 138.082 181.732 136.598 181.723 132.627C185.795 132.619 188.437 130.033 190.498 130.105C194.704 126.982 201.248 121.37 216.712 114.4C201.791 98.6525 189.028 121.369 170.383 120.924Z" stroke="#FFD700" stroke-width="1.16672"/>
<path d="M340.816 121.082C340.872 121.026 340.925 120.974 340.967 120.933C340.965 120.983 340.969 121.033 340.968 121.084C341.015 121.083 341.062 121.086 341.11 121.085C341.071 121.124 341.021 121.174 340.968 121.226C340.651 139.874 364.415 155.073 347.809 167.51C344.089 159.723 337.342 148.99 332.19 141.882C331.551 138.109 329.245 136.592 329.309 132.621C325.238 132.555 322.633 129.932 320.571 129.974C316.411 126.791 309.948 121.085 294.586 113.893C309.73 98.3617 322.166 121.26 340.816 121.082Z" stroke="#FFD700" stroke-width="1.16672"/>
<path d="M255.727 365.177C343.353 365.177 414.387 294.142 414.387 206.516C414.387 118.89 343.353 47.8555 255.727 47.8555C168.101 47.8555 97.0664 118.89 97.0664 206.516C97.0664 294.142 168.101 365.177 255.727 365.177Z" stroke="#FFD700" stroke-width="2.91679"/>
<path d="M255.726 328.045C322.845 328.045 377.256 273.634 377.256 206.515C377.256 139.395 322.845 84.9844 255.726 84.9844C188.606 84.9844 134.195 139.395 134.195 206.515C134.195 273.634 188.606 328.045 255.726 328.045Z" stroke="#FFD700" stroke-width="1.75007"/>
<path d="M255.729 360.352C340.689 360.352 409.563 291.478 409.563 206.518C409.563 121.558 340.689 52.6836 255.729 52.6836C170.768 52.6836 101.895 121.558 101.895 206.518C101.895 291.478 170.768 360.352 255.729 360.352Z" stroke="#FFD700" stroke-width="1.16672"/>
<path d="M255.729 306.526C310.963 306.526 355.739 261.75 355.739 206.516C355.739 151.282 310.963 106.506 255.729 106.506C200.495 106.506 155.719 151.282 155.719 206.516C155.719 261.75 200.495 306.526 255.729 306.526Z" stroke="#FFD700" stroke-width="1.75007"/>
<path d="M255.668 53.0352C255.668 52.9388 255.668 52.8493 255.668 52.7793C255.647 52.8228 255.622 52.8638 255.601 52.9073C255.58 52.8663 255.557 52.8279 255.537 52.787C255.537 52.8527 255.537 52.938 255.537 53.0276C247.356 69.1343 229.903 70.0711 231.854 86.4789C249.533 85.9133 251.72 81.9794 255.596 79.9762C259.481 81.9768 261.651 85.9201 279.352 86.4858C281.303 70.0779 263.849 69.142 255.668 53.0352Z" stroke="#FFD700" stroke-width="1.16672"/>
<path d="M314.242 65.2288C314.281 65.14 314.316 65.0581 314.344 64.9941C314.346 65.0428 314.353 65.0897 314.355 65.1383C314.391 65.1093 314.426 65.0837 314.462 65.053C314.435 65.1136 314.401 65.1921 314.366 65.274C315.451 83.3063 331.085 91.1195 322.757 105.391C306.768 97.8278 306.329 93.3479 303.574 89.9669C299.213 90.2535 295.651 93.0058 279.191 86.4706C283.94 70.6446 300.321 76.7412 314.242 65.2288Z" stroke="#FFD700" stroke-width="1.16672"/>
<path d="M255.727 85.7222C255.727 85.642 255.727 85.5686 255.727 85.5098C255.693 85.5456 255.655 85.5797 255.62 85.6156C255.587 85.5814 255.551 85.5499 255.518 85.5157C255.518 85.5703 255.518 85.6411 255.518 85.7154C242.507 99.0766 214.977 92.9169 217.849 113.464C225.997 110.62 238.367 107.847 247.042 106.497C250.17 104.293 252.871 104.861 255.644 102.017C258.559 104.861 262.256 104.861 263.678 106.354C268.867 107.065 277.47 107.634 293.397 113.47C293.752 91.7805 268.739 99.0835 255.727 85.7222Z" stroke="#FFD700" stroke-width="1.16672"/>
<path d="M351.295 181.697L255.663 305.65L160.031 181.697H351.295Z" stroke="#FFD700" stroke-width="1.16672"/>
<path d="M308.794 132.213L255.667 218.508L202.527 132.213H308.794Z" stroke="#FFD700" stroke-width="1.16672"/>
<path d="M329.24 156.775L255.665 268.579L182.09 156.775H329.24Z" stroke="#FFD700" stroke-width="1.16672"/>
<path d="M160.031 231.539L255.663 107.588L351.295 231.539H160.031Z" stroke="#FFD700" stroke-width="1.16672"/>
<path d="M202.527 281.021L255.661 194.422L308.794 281.021H202.527Z" stroke="#FFD700" stroke-width="1.16672"/>
<path d="M182.09 256.462L255.665 144.658L329.24 256.462H182.09Z" stroke="#FFD700" stroke-width="1.16672"/>
<path d="M224.008 219.001L255.66 168.879L287.311 219.001H224.008Z" stroke="#FFD700" stroke-width="1.16672"/>
<path d="M270.753 206.668L255.665 230.878L240.75 206.668H270.753Z" stroke="#FFD700" stroke-width="1.16672"/>
<path d="M287.311 194.018L255.66 244.14L224.008 194.018H287.311Z" stroke="#FFD700" stroke-width="1.16672"/>
<path d="M255.665 212.294C256.376 212.294 256.952 211.718 256.952 211.007C256.952 210.297 256.376 209.721 255.665 209.721C254.955 209.721 254.379 210.297 254.379 211.007C254.379 211.718 254.955 212.294 255.665 212.294Z" fill="#FFD700"/>
<path d="M200.353 464.146H179.499L167.811 427.353C164.756 417.391 162.232 409.156 159.974 400.655C153.067 416.196 143.105 437.05 132.877 457.771C129.689 464.412 125.572 465.342 120.79 465.342C115.743 465.342 111.891 464.412 108.703 457.771L96.7483 433.065C90.5055 420.314 85.8565 410.617 81.6061 400.655C79.0824 409.156 76.6915 417.391 73.5037 427.353L61.8149 464.146H41.3596L67.5265 383.388C69.5189 377.145 74.035 373.957 79.348 373.957C84.6611 373.957 88.5131 376.614 91.0368 381.263L104.452 407.828C111.492 421.642 116.54 432.002 121.188 442.097C125.572 432.135 130.752 421.775 137.792 407.961L151.207 381.263C153.465 376.879 157.317 373.957 162.763 373.957C168.209 373.957 172.725 377.145 174.718 383.388L200.353 464.146ZM343.89 464.146H244.137L256.889 446.613H283.454C291.424 446.613 299.393 446.613 306.832 446.746C302.183 439.972 297.002 432.534 292.088 425.095L273.89 397.866L228.198 464.146H203.359L260.741 381.661C263.53 377.543 267.78 373.957 274.289 373.957C280.532 373.957 284.915 377.411 287.704 381.661L343.89 464.146ZM424.53 438.378H374.188V464.146H353.334V420.978H423.334C436.086 420.978 445.251 416.594 445.251 407.031C445.251 396.936 436.617 392.951 423.334 392.951H353.202L367.148 375.285H424.53C450.564 375.285 466.37 387.904 466.37 407.164C466.37 426.291 450.564 438.378 424.53 438.378Z" fill="#FFD700"/>
</svg>
