<svg width="130" height="130" viewBox="0 0 130 130" fill="none" xmlns="http://www.w3.org/2000/svg">
<g clip-path="url(#clip0_1195_1005)">
<path d="M65 130C100.899 130 130 100.899 130 65C130 29.1015 100.899 0 65 0C29.1015 0 0 29.1015 0 65C0 100.899 29.1015 130 65 130Z" fill="url(#paint0_linear_1195_1005)"/>
<path d="M90.4904 26.6565V103.344C90.4904 105.862 88.4494 107.904 85.9321 107.904H44.0628C41.5448 107.904 39.5039 105.862 39.5039 103.344V26.6565C39.5039 24.1392 41.5448 22.0977 44.0628 22.0977H47.1232C47.3721 24.1982 49.1596 25.8276 51.3276 25.8276H78.666C78.7846 25.8276 78.9019 25.8231 79.0179 25.8127C80.0472 25.7284 80.9727 25.2767 81.6616 24.5877C82.3149 23.9331 82.7563 23.066 82.8717 22.0977H85.9321C88.4494 22.0977 90.4904 24.1392 90.4904 26.6565Z" fill="#2F4F2F"/>
<path d="M42.6416 18.8672H87.3564C90.5666 18.8672 93.1689 21.4695 93.1689 24.6797V105.32C93.1689 108.53 90.5666 111.133 87.3564 111.133H42.6416C39.4314 111.133 36.8282 108.53 36.8281 105.32V24.6797C36.8282 21.4696 39.4314 18.8672 42.6416 18.8672ZM44.0645 21.5967C41.2703 21.5967 39.0061 23.8622 39.0059 26.6553V103.344C39.006 106.138 41.2704 108.402 44.0645 108.402H85.9336C88.7269 108.402 90.992 106.138 90.9922 103.344V26.6553C90.992 23.8622 88.7269 21.5967 85.9336 21.5967H82.4297L82.377 22.0371C82.2881 22.7835 81.9792 23.4624 81.5166 24.0078L81.3096 24.2334C80.6332 24.9097 79.6995 25.3271 78.668 25.3271H51.3291C49.4177 25.3271 47.8408 23.8893 47.6211 22.0371L47.5693 21.5967H44.0645Z" fill="#2F4F2F" stroke="#FFD700"/>
<path d="M51.2951 20.5449C51.9898 20.5449 52.5551 21.1102 52.5551 21.8053C52.5551 22.4999 51.9897 23.0652 51.2951 23.0652C50.6005 23.0652 50.0352 22.4999 50.0352 21.8053C50.0352 21.1103 50.6005 20.5449 51.2951 20.5449Z" fill="#FFD700"/>
<path d="M69.8527 22.5352H59.8672V23.4727H69.8527V22.5352Z" fill="#FFD700"/>
<path d="M57.1469 22.2363C57.5704 22.2363 57.9148 22.5807 57.9148 23.0043C57.9148 23.4278 57.5704 23.7722 57.1469 23.7722C56.7233 23.7722 56.3789 23.4278 56.3789 23.0043C56.3788 22.5807 56.7233 22.2363 57.1469 22.2363Z" fill="#2F4F2F"/>
<path d="M53.5413 35.3496H46.3987C45.404 35.3496 44.5977 36.1559 44.5977 37.1506V43.751C44.5977 44.7456 45.404 45.552 46.3987 45.552H53.5413C54.536 45.552 55.3423 44.7456 55.3423 43.751V37.1506C55.3423 36.1559 54.536 35.3496 53.5413 35.3496Z" fill="white"/>
<path d="M56.9986 34.079C56.7859 33.8697 56.4438 33.8725 56.2345 34.0851L49.2353 41.1983L46.7097 38.9555L45.9922 39.7635L49.2854 42.6881L57.0048 34.8431C57.2141 34.6303 57.2113 34.2883 56.9986 34.079Z" fill="#FFD700"/>
<path d="M73.5264 35.3711H59.6523V36.9893H73.5264V35.3711Z" fill="white"/>
<path d="M85.4009 39.4902H59.6523V41.1085H85.4009V39.4902Z" fill="white"/>
<path d="M81.266 43.6113H59.6523V45.2296H81.266V43.6113Z" fill="white"/>
<path d="M53.5413 52.8086H46.3987C45.404 52.8086 44.5977 53.6149 44.5977 54.6096V61.2099C44.5977 62.2046 45.404 63.0109 46.3987 63.0109H53.5413C54.536 63.0109 55.3423 62.2046 55.3423 61.2099V54.6096C55.3423 53.6149 54.536 52.8086 53.5413 52.8086Z" fill="white"/>
<path d="M56.9986 51.536C56.7859 51.3268 56.4438 51.3295 56.2345 51.5422L49.2353 58.6555L46.7097 56.4126L45.9922 57.2206L49.2854 60.1452L57.0048 52.3001C57.2141 52.0874 57.2113 51.7453 56.9986 51.536Z" fill="#FFD700"/>
<path d="M73.5264 52.8281H59.6523V54.4464H73.5264V52.8281Z" fill="white"/>
<path d="M85.4009 56.9492H59.6523V58.5674H85.4009V56.9492Z" fill="white"/>
<path d="M81.266 61.0684H59.6523V62.6866H81.266V61.0684Z" fill="white"/>
<path d="M53.5413 70.2656H46.3987C45.404 70.2656 44.5977 71.072 44.5977 72.0666V78.667C44.5977 79.6616 45.404 80.468 46.3987 80.468H53.5413C54.536 80.468 55.3423 79.6616 55.3423 78.667V72.0666C55.3423 71.072 54.536 70.2656 53.5413 70.2656Z" fill="white"/>
<path d="M56.9986 68.995C56.7859 68.7857 56.4438 68.7885 56.2345 69.0012L49.2353 76.1144L46.7097 73.8715L45.9922 74.6795L49.2854 77.6041L57.0048 69.7591C57.2141 69.5464 57.2113 69.2043 56.9986 68.995Z" fill="#FFD700"/>
<path d="M73.5264 70.2852H59.6523V71.9034H73.5264V70.2852Z" fill="white"/>
<path d="M85.4009 74.4062H59.6523V76.0245H85.4009V74.4062Z" fill="white"/>
<path d="M81.266 78.5254H59.6523V80.1436H81.266V78.5254Z" fill="white"/>
<path d="M53.5413 87.7227H46.3987C45.404 87.7227 44.5977 88.529 44.5977 89.5237V96.124C44.5977 97.1187 45.404 97.925 46.3987 97.925H53.5413C54.536 97.925 55.3423 97.1187 55.3423 96.124V89.5237C55.3423 88.529 54.536 87.7227 53.5413 87.7227Z" fill="white"/>
<path d="M56.9986 86.452C56.7859 86.2428 56.4438 86.2455 56.2345 86.4582L49.2353 93.5714L46.7097 91.3285L45.9922 92.1365L49.2854 95.0612L57.0048 87.2161C57.2141 87.0034 57.2113 86.6613 56.9986 86.452Z" fill="#FFD700"/>
<path d="M73.5264 87.7422H59.6523V89.3604H73.5264V87.7422Z" fill="white"/>
<path d="M85.4009 91.8633H59.6523V93.4815H85.4009V91.8633Z" fill="white"/>
<path d="M81.266 95.9824H59.6523V97.6007H81.266V95.9824Z" fill="white"/>
</g>
<defs>
<linearGradient id="paint0_linear_1195_1005" x1="19.0379" y1="19.0379" x2="110.962" y2="110.962" gradientUnits="userSpaceOnUse">
<stop stop-color="#2F4F2F"/>
<stop offset="1" stop-color="#2F4F2F"/>
</linearGradient>
<clipPath id="clip0_1195_1005">
<rect width="130" height="130" fill="white"/>
</clipPath>
</defs>
</svg>
