<svg width="130" height="130" viewBox="0 0 130 130" fill="none" xmlns="http://www.w3.org/2000/svg">
<g clip-path="url(#clip0_1213_2)">
<path d="M65 130C100.899 130 130 100.899 130 65C130 29.1015 100.899 0 65 0C29.1015 0 0 29.1015 0 65C0 100.899 29.1015 130 65 130Z" fill="#F31D21"/>
<path d="M94.6734 88.3965H34.4609V91.3176H94.6734V88.3965Z" stroke="#FFD700" stroke-width="1.35456" stroke-miterlimit="10" stroke-linecap="round" stroke-linejoin="round"/>
<path d="M91.6272 79.8789H37.5117V88.3978H91.6272V79.8789Z" stroke="#FFD700" stroke-width="1.35456" stroke-miterlimit="10" stroke-linecap="round" stroke-linejoin="round"/>
<path d="M86.9878 79.8781H42.1523V65.5665C42.1523 53.1851 52.189 43.1484 64.5704 43.1484C76.9511 43.1484 86.9884 53.1851 86.9884 65.5665L86.9878 79.8781Z" fill="#F31D21" stroke="#FFD700" stroke-width="1.35456" stroke-miterlimit="10" stroke-linecap="round" stroke-linejoin="round"/>
<path d="M64.5664 48.6602C73.2329 48.6602 80.259 55.6856 80.259 64.3528" stroke="white" stroke-width="1.35456" stroke-miterlimit="10" stroke-linecap="round" stroke-linejoin="round"/>
<path d="M65 27.4531V35.292" stroke="white" stroke-width="1.35456" stroke-miterlimit="10" stroke-linecap="round" stroke-linejoin="round"/>
<path d="M103.948 66.4023H96.1094" stroke="white" stroke-width="1.35456" stroke-miterlimit="10" stroke-linecap="round" stroke-linejoin="round"/>
<path d="M33.8896 66.4023H26.0508" stroke="white" stroke-width="1.35456" stroke-miterlimit="10" stroke-linecap="round" stroke-linejoin="round"/>
<path d="M92.539 38.8613L86.9961 44.4042" stroke="white" stroke-width="1.35456" stroke-miterlimit="10" stroke-linecap="round" stroke-linejoin="round"/>
<path d="M43.0038 44.4042L37.4609 38.8613" stroke="white" stroke-width="1.35456" stroke-miterlimit="10" stroke-linecap="round" stroke-linejoin="round"/>
<path d="M45.5273 32.6719L49.4461 39.4603" stroke="white" stroke-width="1.35456" stroke-miterlimit="10" stroke-linecap="round" stroke-linejoin="round"/>
<path d="M98.7298 46.9277L91.9414 50.8472" stroke="white" stroke-width="1.35456" stroke-miterlimit="10" stroke-linecap="round" stroke-linejoin="round"/>
<path d="M75.0753 28.7793L73.0469 36.3506" stroke="white" stroke-width="1.35456" stroke-miterlimit="10" stroke-linecap="round" stroke-linejoin="round"/>
<path d="M102.619 76.4835L95.0469 74.4551" stroke="white" stroke-width="1.35456" stroke-miterlimit="10" stroke-linecap="round" stroke-linejoin="round"/>
<path d="M34.9548 58.3514L27.3828 56.3223" stroke="white" stroke-width="1.35456" stroke-miterlimit="10" stroke-linecap="round" stroke-linejoin="round"/>
<path d="M31.2656 46.9277L38.0547 50.8472" stroke="white" stroke-width="1.35456" stroke-miterlimit="10" stroke-linecap="round" stroke-linejoin="round"/>
<path d="M84.4702 32.6719L80.5508 39.4603" stroke="white" stroke-width="1.35456" stroke-miterlimit="10" stroke-linecap="round" stroke-linejoin="round"/>
<path d="M54.9219 28.7793L56.951 36.3506" stroke="white" stroke-width="1.35456" stroke-miterlimit="10" stroke-linecap="round" stroke-linejoin="round"/>
<path d="M102.619 56.3223L95.0469 58.3514" stroke="white" stroke-width="1.35456" stroke-miterlimit="10" stroke-linecap="round" stroke-linejoin="round"/>
<path d="M34.9548 74.4551L27.3828 76.4835" stroke="white" stroke-width="1.35456" stroke-miterlimit="10" stroke-linecap="round" stroke-linejoin="round"/>
<path d="M69.6042 79.881H60.3945V62.9564C60.3945 60.4132 62.4562 58.3516 64.9994 58.3516C67.5426 58.3516 69.6042 60.4132 69.6042 62.9564V79.881Z" fill="#FFD700"/>
</g>
<defs>
<clipPath id="clip0_1213_2">
<rect width="130" height="130" fill="white"/>
</clipPath>
</defs>
</svg>
