<svg width="130" height="130" viewBox="0 0 130 130" fill="none" xmlns="http://www.w3.org/2000/svg">
<g clip-path="url(#clip0_1199_7)">
<path d="M65 130C100.899 130 130 100.899 130 65C130 29.1015 100.899 0 65 0C29.1015 0 0 29.1015 0 65C0 100.899 29.1015 130 65 130Z" fill="url(#paint0_linear_1199_7)"/>
<path fill-rule="evenodd" clip-rule="evenodd" d="M51.2464 68.6005C49.7908 64.4263 46.4087 61.194 42.1918 59.9097L36.9473 78.9181V87.9304H45.6595V81.0368C45.6595 76.2849 47.6931 71.7469 51.2464 68.6005ZM42.0847 73.0315H44.8675C45.7019 73.0315 46.3659 72.3675 46.3659 71.5331C46.3659 70.6987 45.7019 70.0347 44.8675 70.0347H42.0847C41.2503 70.0347 40.5863 70.6987 40.5863 71.5331C40.5863 72.3675 41.2503 73.0315 42.0847 73.0315Z" fill="#FFD700"/>
<path d="M19.3945 73.0096V87.0741C19.3945 87.5448 19.7798 87.9304 20.2508 87.9304H33.9505V78.9181L28.7489 60.0381C23.1622 61.9004 19.3945 67.123 19.3945 73.0096Z" fill="#FFD700"/>
<path fill-rule="evenodd" clip-rule="evenodd" d="M100.694 59.8669L98.2108 70.527C97.8688 72.004 96.8195 73.2237 95.3853 73.7588V87.9304H109.727C110.198 87.9304 110.583 87.5448 110.583 87.0741V73.0315C110.583 66.909 106.538 61.5575 100.694 59.8669ZM100.951 73.6736H104.59C105.424 73.6736 106.088 73.0096 106.088 72.1752C106.088 71.3408 105.424 70.6768 104.59 70.6768H100.951C100.116 70.6768 99.4524 71.3408 99.4524 72.1752C99.4524 73.0096 100.116 73.6736 100.951 73.6736Z" fill="white"/>
<path fill-rule="evenodd" clip-rule="evenodd" d="M64.9248 64.491C69.7834 64.491 73.7226 60.5517 73.7226 55.6927C73.7226 50.8338 69.7834 46.8945 64.9248 46.8945C60.0661 46.8945 56.1272 50.8338 56.1272 55.6927C56.1479 60.5519 60.0877 64.491 64.9248 64.491ZM96.6054 39.3173C95.3634 38.9744 94.0791 38.932 92.8166 39.0814C91.2111 39.2954 89.8197 40.1517 89.8197 40.1517C87.2082 41.6501 85.5386 44.3902 85.4097 47.4089C88.1073 47.0234 93.8017 45.5031 96.6054 39.3173ZM95.7706 45.6538C94.2928 47.0664 92.5751 48.2043 90.698 49.0141C89.1352 49.6771 87.4872 50.1486 85.7954 50.3837C86.9302 54.0655 90.3335 56.5914 94.2082 56.5914C98.1464 56.6342 101.636 54.0227 102.685 50.2124C99.4307 49.3562 97.1194 47.2593 95.7706 45.6538ZM97.7617 43.3416C98.725 44.5617 100.48 46.3594 102.984 47.1732C102.813 44.6259 101.529 42.2923 99.4952 40.7729L99.3235 40.6444C98.8746 41.5649 98.3395 42.5063 97.7617 43.3416ZM48.6563 81.0368V95.0795C48.6563 95.5504 49.0416 95.9357 49.5125 95.9357H63.9187V84.9336L58.6742 67.8513C52.7658 69.4993 48.6563 74.8936 48.6563 81.0368ZM72.0747 68.13L66.9155 84.9336V95.9357H80.3584C80.8293 95.9357 81.2146 95.5504 81.2146 95.0795V81.0368C81.2146 75.2365 77.5332 70.0565 72.0747 68.13ZM76.12 82.236H72.481C71.6466 82.236 70.9826 81.572 70.9826 80.7376C70.9826 79.9032 71.6466 79.2392 72.481 79.2392H76.12C76.9544 79.2392 77.6184 79.9032 77.6184 80.7376C77.6184 81.572 76.9544 82.236 76.12 82.236ZM38.2745 59.3317H33.0722C32.6015 59.3317 32.1526 59.3536 31.7027 59.396L35.4705 73.0533L39.2373 59.3536C39.0637 59.3536 38.9008 59.3479 38.7405 59.3424L38.7392 59.3423C38.5842 59.337 38.4321 59.3317 38.2745 59.3317ZM67.5358 67.3589H62.3351C62.0992 67.3589 61.8851 67.3589 61.6711 67.3808L65.4171 79.6029L69.1413 67.4443C68.6061 67.3808 68.071 67.3589 67.5358 67.3589ZM96.9055 59.3317H91.7035C91.1465 59.3317 90.6113 59.3745 90.0552 59.4388L92.4734 69.8424C92.6241 70.5054 93.18 70.9979 93.8648 71.0198H93.9718C94.614 70.9553 95.1284 70.4846 95.2562 69.8424L97.6971 59.3743C97.4612 59.3536 97.1831 59.3317 96.9055 59.3317ZM35.663 56.5918C40.5011 56.5918 44.3542 52.7178 44.4612 47.7726C44.4612 42.9135 40.5011 38.9744 35.6411 38.9962C30.7822 38.9962 26.844 42.9563 26.8647 47.8154C26.8866 52.6531 30.8248 56.5918 35.663 56.5918Z" fill="#2F4F2F"/>
<path d="M89.5629 70.5056L87.144 60.1237C83.1839 61.5365 80.0583 64.6614 78.6669 68.6214C82.1988 71.769 84.2116 76.2849 84.2116 81.0161V87.9085H92.3884V73.7379C90.9752 73.2027 89.9049 71.983 89.5629 70.5056Z" fill="white"/>
<path d="M63.4189 85.0098V95.4355H49.5127C49.3179 95.4355 49.1562 95.2739 49.1562 95.0791V81.0371C49.1562 75.282 52.9005 70.2082 58.3418 68.4727L63.4189 85.0098ZM72.3965 68.7842C77.386 70.7698 80.7148 75.6241 80.7148 81.0371V95.0791C80.7148 95.2739 80.5532 95.4355 80.3584 95.4355H67.415V85.0098L72.3965 68.7842ZM33.4502 78.9834V87.4307H20.251C20.0563 87.4307 19.8946 87.2688 19.8945 87.0742V73.0098C19.8945 67.5153 23.3016 62.6208 28.4092 60.6895L33.4502 78.9834ZM101.059 60.5029C106.417 62.2862 110.083 67.3094 110.083 73.0312V87.0742C110.083 87.2687 109.922 87.4305 109.728 87.4307H95.8857V74.0908C97.3118 73.4411 98.3453 72.1636 98.6982 70.6406L101.059 60.5029ZM42.5342 60.5479C46.2681 61.8442 49.2623 64.7438 50.6611 68.4561C47.1574 71.6869 45.1592 76.2572 45.1592 81.0371V87.4307H37.4473V78.9863L42.5342 60.5479ZM89.0762 70.6191C89.4296 72.1446 90.4814 73.4194 91.8887 74.0684V87.4082H84.7119V81.0156C84.7118 76.2567 82.7333 71.7093 79.251 68.4785C80.577 64.9829 83.3192 62.1973 86.7871 60.7949L89.0762 70.6191ZM72.4814 78.7393C71.371 78.7393 70.4826 79.6269 70.4824 80.7373C70.4824 81.8478 71.3709 82.7363 72.4814 82.7363H76.1201C77.2306 82.7363 78.1182 81.8478 78.1182 80.7373C78.118 79.6269 77.2305 78.7393 76.1201 78.7393H72.4814ZM67.5361 67.8594C67.8538 67.8594 68.1686 67.8678 68.4814 67.8877L65.417 77.8955L62.3408 67.8594H67.5361ZM100.951 70.1768C99.8408 70.1768 98.9524 71.0645 98.9521 72.1748C98.9521 73.2853 99.8406 74.1738 100.951 74.1738H104.59C105.7 74.1738 106.588 73.2853 106.588 72.1748C106.588 71.0645 105.7 70.1768 104.59 70.1768H100.951ZM42.085 69.5342C40.9744 69.5342 40.0859 70.4227 40.0859 71.5332C40.086 72.6437 40.9745 73.5312 42.085 73.5312H44.8672C45.9777 73.5312 46.8661 72.6437 46.8662 71.5332C46.8662 70.4227 45.9777 69.5342 44.8672 69.5342H42.085ZM33.0723 59.832H38.2744C38.3776 59.832 38.479 59.8346 38.584 59.8379L35.4688 71.1699L32.3467 59.8506C32.5846 59.8383 32.8253 59.832 33.0723 59.832ZM91.7031 59.832H96.9053C96.9617 59.832 97.0186 59.8351 97.0752 59.8369L94.7695 69.7285L94.7676 69.7373L94.7656 69.7451C94.681 70.1698 94.3498 70.4715 93.9375 70.5195H93.8809C93.4395 70.5055 93.0649 70.1886 92.9609 69.7314L92.96 69.7295L90.6709 59.8799C91.0167 59.8503 91.3563 59.832 91.7031 59.832ZM64.9248 47.3945C69.5072 47.3946 73.2225 51.1098 73.2227 55.6924C73.2227 60.2752 69.5073 63.9912 64.9248 63.9912C60.3656 63.9912 56.6475 60.2774 56.627 55.6924C56.6271 51.1097 60.3424 47.3945 64.9248 47.3945ZM35.6416 39.4961H35.6436C40.2267 39.4756 43.9609 43.1907 43.9609 47.7725C43.8542 52.4523 40.2142 56.0917 35.6631 56.0918C31.1016 56.0918 27.385 52.3771 27.3643 47.8135C27.3447 43.2309 31.06 39.4961 35.6416 39.4961ZM95.7314 46.3701C97.0765 47.8703 99.1866 49.6644 102.056 50.5508C100.919 53.883 97.7611 56.1302 94.2139 56.0918H94.208C90.749 56.0917 87.6901 53.9567 86.4648 50.7842C87.9917 50.5216 89.4781 50.075 90.8936 49.4746L90.8965 49.4736C92.6677 48.7094 94.2999 47.6597 95.7314 46.3701ZM92.8789 39.5771C93.8884 39.458 94.9003 39.4705 95.8838 39.6631C93.3156 44.7409 88.6634 46.3137 85.96 46.8105C86.2668 44.2115 87.7856 41.8948 90.0684 40.585L90.082 40.5771L90.0811 40.5781L90.083 40.5771C90.0847 40.5761 90.0877 40.5738 90.0918 40.5713C90.1004 40.5661 90.1143 40.5576 90.1328 40.5469C90.1698 40.5255 90.2261 40.4942 90.2988 40.4551C90.4447 40.3767 90.6568 40.2685 90.917 40.1543C91.4402 39.9246 92.1406 39.6761 92.8789 39.5771ZM99.4941 41.4092C101.033 42.6729 102.063 44.4503 102.39 46.4121C100.583 45.6323 99.2395 44.3346 98.3848 43.3105C98.7844 42.705 99.1573 42.0566 99.4941 41.4092Z" stroke="#FFD700"/>
<path d="M92.8171 38.1401C92.8171 37.0698 93.6734 36.2136 94.7437 36.2136C95.8139 36.2136 96.6702 37.0698 96.6702 38.1401C96.6702 38.1401 96.6702 38.8251 96.606 39.3175C97.4836 39.5957 98.5749 40.1095 99.3031 40.6236C99.3031 40.6236 99.3887 40.687 99.4748 40.7514L99.667 40.9013V38.1401C99.667 35.4216 97.4622 33.2168 94.7437 33.2168C92.0251 33.2168 89.8203 35.4216 89.8203 38.1401V40.1519C90.7194 39.6385 91.7468 39.2749 92.8171 39.1034V38.1401Z" fill="#FFD700"/>
<path d="M92.8171 39.1035C91.7468 39.2748 90.7194 39.6387 89.8203 40.152C90.7408 39.6168 91.7687 39.2531 92.8171 39.1035Z" fill="black"/>
</g>
<defs>
<linearGradient id="paint0_linear_1199_7" x1="19.0379" y1="19.0379" x2="110.962" y2="110.962" gradientUnits="userSpaceOnUse">
<stop stop-color="#2F4F2F"/>
<stop offset="1" stop-color="#2F4F2F"/>
</linearGradient>
<clipPath id="clip0_1199_7">
<rect width="130" height="130" fill="white"/>
</clipPath>
</defs>
</svg>
