<svg width="130" height="130" viewBox="0 0 130 130" fill="none" xmlns="http://www.w3.org/2000/svg">
<g clip-path="url(#clip0_1228_33)">
<path d="M65 130C100.899 130 130 100.899 130 65C130 29.1015 100.899 0 65 0C29.1015 0 0 29.1015 0 65C0 100.899 29.1015 130 65 130Z" fill="url(#paint0_linear_1228_33)"/>
<path d="M80.3994 31.0977V33.6279H54.918V31.0977H80.3994Z" fill="white" stroke="#2F4F2F" stroke-width="0.5"/>
<path d="M102.637 38.8145V41.3447H54.918V38.8145H102.637Z" fill="#FFD700" stroke="#2F4F2F" stroke-width="0.5"/>
<g clip-path="url(#clip1_1228_33)">
<path d="M40.0254 31.1895C40.1564 31.2907 40.2856 31.3949 40.4131 31.502L29.6934 42.2227C28.7002 40.9784 28.0405 39.5249 27.7578 37.9697C28.1672 37.0351 28.7412 36.1925 29.4717 35.4619C30.5777 34.3559 31.9642 33.5921 33.4814 33.2529L37.541 32.3457C38.5214 32.1266 39.3637 31.7399 40.0254 31.1895Z" fill="#2F4F2F" stroke="#FFD700"/>
<path d="M41.9629 33.0498C42.0702 33.1776 42.1748 33.3071 42.2764 33.4385C41.7258 34.1002 41.3393 34.9433 41.1201 35.9238L40.2129 39.9834C39.8738 41.5005 39.1099 42.8872 38.0039 43.9932C37.2732 44.7238 36.4299 45.2968 35.4951 45.7061C33.9401 45.4232 32.4872 44.7628 31.2432 43.7695L41.9629 33.0498Z" fill="#2F4F2F" stroke="#FFD700"/>
<path d="M41.5439 27.5957C42.1396 27.894 42.7048 28.2567 43.2334 28.6787L41.9619 29.9502C41.7437 29.762 41.5215 29.5802 41.2939 29.4062C41.5066 28.832 41.5878 28.2231 41.5439 27.5957Z" fill="#2F4F2F" stroke="#FFD700"/>
<path d="M45.3037 34.1074C45.7703 34.0591 46.2499 34.1625 46.6895 34.3301C46.8119 34.9475 46.8789 35.5811 46.8789 36.2256C46.8789 36.831 46.8202 37.4268 46.7119 38.0088C46.5996 37.4616 46.4579 36.9209 46.2832 36.3916C46.0207 35.5965 45.6924 34.8347 45.3037 34.1074Z" fill="#2F4F2F" stroke="#FFD700"/>
<path d="M37.2344 26.5859C37.8785 26.5859 38.5119 26.6521 39.1289 26.7744C39.2967 27.214 39.3997 27.6934 39.3516 28.1602C38.6247 27.7718 37.863 27.444 37.0684 27.1816C36.539 27.0069 35.9984 26.8652 35.4512 26.7529C36.0331 26.6446 36.629 26.5859 37.2344 26.5859Z" fill="#2F4F2F" stroke="#FFD700"/>
<path d="M44.7861 30.2266C45.2085 30.7555 45.5706 31.3219 45.8691 31.918C45.2418 31.8742 44.6328 31.9553 44.0586 32.168C43.8844 31.94 43.7032 31.7166 43.5146 31.498L44.7861 30.2266Z" fill="#2F4F2F" stroke="#FFD700"/>
<path d="M31.1992 28.7109C33.5723 28.4562 35.9056 28.8816 37.9736 29.9082C37.6729 30.0475 37.3571 30.1468 37.0615 30.2129L33.002 31.1201C31.0783 31.5501 29.3221 32.5178 27.9229 33.917C27.9014 33.9385 27.8807 33.9608 27.8594 33.9824C28.2665 32.2652 29.1407 30.6894 30.4209 29.4092C30.6694 29.1607 30.9297 28.9284 31.1992 28.7109Z" fill="#2F4F2F" stroke="#FFD700"/>
<path d="M43.5576 35.4893C44.5845 37.5569 45.0102 39.8898 44.7559 42.2627C44.5381 42.5327 44.3065 42.7941 44.0576 43.043C42.7776 44.3229 41.2021 45.1963 39.4854 45.6035C39.5067 45.5826 39.5296 45.5631 39.5508 45.542C40.95 44.1428 41.9167 42.3857 42.3467 40.4619L43.2549 36.4023C43.321 36.1066 43.4182 35.7901 43.5576 35.4893Z" fill="#2F4F2F" stroke="#FFD700"/>
</g>
<path d="M80.3994 59.877V62.4072H54.918V59.877H80.3994Z" fill="white" stroke="#2F4F2F" stroke-width="0.5"/>
<path d="M102.637 67.5938V70.124H54.918V67.5938H102.637Z" fill="#FFD700" stroke="#2F4F2F" stroke-width="0.5"/>
<path d="M35.8398 56.2988C35.3665 57.4838 35.1444 58.7481 35.1816 60.0723L35.1963 60.4014C35.1967 60.4079 35.1969 60.4133 35.1973 60.417L35.1982 60.4238L35.2002 60.4395C35.3341 62.5381 36.0636 64.2041 36.4414 64.9414C36.0814 65.3686 35.3378 66.1649 34.2393 66.8975C33.212 65.9264 32.6111 64.5183 32.3027 62.916C31.9838 61.259 31.9887 59.4477 32.1211 57.8271C33.2038 57.0524 34.4688 56.518 35.8398 56.2988Z" fill="#2F4F2F" stroke="#FFD700"/>
<path d="M37.3389 56.1855C41.2041 56.2249 44.4704 58.7523 45.6182 62.2432C41.9523 59.8847 38.0637 59.6561 36.5088 59.6719C36.5241 58.4318 36.8023 57.2649 37.3389 56.1855Z" fill="#2F4F2F" stroke="#FFD700"/>
<path d="M30.7295 59.0713C30.6864 60.456 30.7553 61.9294 31.04 63.3213C31.3647 64.9079 31.9782 66.4256 33.0576 67.5781C31.836 68.1779 30.5367 68.504 29.1826 68.5537C28.703 67.4667 28.4336 66.2654 28.4336 65C28.4337 62.7162 29.3039 60.6374 30.7295 59.0713Z" fill="#2F4F2F" stroke="#FFD700"/>
<path d="M36.5898 60.9961C38.2012 60.9866 42.4037 61.2728 46.0176 64.1592C46.0447 64.438 46.0635 64.7186 46.0635 65.002C46.0634 66.2678 45.7947 67.4695 45.3145 68.5566C44.2167 67.2371 42.9073 66.1937 41.4053 65.46H41.4062C39.7491 64.6488 38.3152 64.4332 37.6426 64.375C37.362 63.8266 36.8 62.5713 36.5898 60.9961Z" fill="#2F4F2F" stroke="#FFD700"/>
<path d="M41.4971 67.0137C42.6919 67.712 43.742 68.648 44.6279 69.8145C43.0536 72.2226 40.3367 73.8134 37.2471 73.8135C36.0587 73.8135 34.9264 73.5772 33.8926 73.1504C38.944 72.2512 40.8744 68.643 41.4971 67.0137Z" fill="#2F4F2F" stroke="#FFD700"/>
<path d="M37.5449 65.6914C38.0425 65.7383 39.0838 65.895 40.3105 66.4131C40.0825 67.0484 39.573 68.1849 38.5664 69.2676C37.3095 70.6194 35.2569 71.9125 31.9326 72.0244C31.1292 71.4158 30.4345 70.6736 29.8799 69.8301C31.5178 69.6763 33.0762 69.1618 34.5215 68.2871C36.1097 67.3307 37.1191 66.2167 37.5449 65.6914Z" fill="#2F4F2F" stroke="#FFD700"/>
<path d="M80.3994 88.6562V91.1865H54.918V88.6562H80.3994Z" fill="white" stroke="#2F4F2F" stroke-width="0.5"/>
<path d="M102.637 96.373V98.9033H54.918V96.373H102.637Z" fill="#FFD700" stroke="#2F4F2F" stroke-width="0.5"/>
<g clip-path="url(#clip2_1228_33)">
<path d="M35.1166 95.3379L32.3242 98.1303L32.8921 98.6979L35.6907 95.8993C35.5902 95.8135 35.4907 95.7252 35.3941 95.6313C35.2966 95.5364 35.2053 95.438 35.1166 95.3379Z" fill="#FFD700"/>
<path d="M31.9235 98.1782C31.8505 98.096 31.7828 98.0569 31.7153 98.0547C31.7133 98.0547 31.7112 98.0547 31.709 98.0547C31.6199 98.0547 31.5363 98.1185 31.4813 98.1728L27.6989 101.809C27.6275 101.872 27.5925 101.932 27.59 101.99C27.5862 102.076 27.65 102.162 27.7043 102.219L28.6595 103.334C28.6609 103.335 28.6622 103.337 28.6635 103.338C28.7124 103.4 28.7683 103.433 28.8294 103.437C28.9038 103.442 28.985 103.401 29.0597 103.325L32.8603 99.5249C32.9732 99.412 32.9732 99.2284 32.8603 99.1155L31.9235 98.1782Z" fill="#FFD700"/>
<path d="M46.9051 89.4178C46.9037 87.9498 46.3724 86.6498 45.3687 85.658C44.3653 84.6666 43.0097 84.123 41.5449 84.123C41.5198 84.123 41.4948 84.1232 41.4698 84.1235C39.644 84.1468 37.7962 84.9919 36.4002 86.4427C33.6448 89.3063 33.3077 93.1599 35.6159 95.4064C38.008 97.7344 41.7784 97.4065 44.5811 94.627C46.0598 93.1602 46.907 91.2616 46.9051 89.4178ZM40.7167 95.7574L41.6011 94.873L42.1614 95.4333C41.7504 95.6499 41.3269 95.8196 40.8989 95.9396L40.7167 95.7574ZM40.5392 96.0277C40.5001 96.0361 40.4611 96.0445 40.422 96.0519L40.4928 95.9811L40.5392 96.0277ZM37.9028 95.907C37.521 95.7783 37.1613 95.5989 36.828 95.3713L37.3263 94.873L38.1315 95.6783L37.9028 95.907ZM38.3554 95.9021L38.5215 96.0682C38.4295 96.0511 38.3388 96.0308 38.249 96.0084L38.3554 95.9021ZM37.5502 94.6491L38.3554 93.8439L39.1606 94.6491L38.3554 95.4544L37.5502 94.6491ZM40.2689 85.308L39.4637 86.1132L38.9221 85.5716C39.3033 85.3778 39.6917 85.2283 40.0813 85.1203L40.2689 85.308ZM40.4412 85.0325C40.4838 85.0236 40.5264 85.016 40.5689 85.0081L40.493 85.0841L40.4412 85.0325ZM42.9498 85.133C43.3333 85.2522 43.7024 85.4219 44.051 85.6423L43.5507 86.1426L42.7374 85.3455L42.9498 85.133ZM42.5113 85.1238L42.3794 84.9945C42.4522 85.0075 42.5247 85.0219 42.5969 85.0382L42.5113 85.1238ZM43.3268 86.3665L42.551 87.1423L41.7458 86.3371L42.5135 85.5693L43.3268 86.3665ZM34.8928 91.1318L35.2681 90.7566L36.0733 91.5618L35.2681 92.367L34.8805 91.9795C34.861 91.7011 34.8643 91.418 34.8928 91.1318ZM35.4919 90.5327L36.3763 89.6483L37.1816 90.4535L36.2972 91.3379L35.4919 90.5327ZM37.4055 90.6774L38.2107 91.4826L37.3263 92.367L36.521 91.5618L37.4055 90.6774ZM42.3272 89.4244L41.5219 90.2296L40.7167 89.4244L41.5219 88.6192L42.3272 89.4244ZM41.7458 88.3953L42.551 87.5901L43.3563 88.3953L42.551 89.2005L41.7458 88.3953ZM41.298 90.4535L40.4928 91.2588L39.6876 90.4535L40.4928 89.6483L41.298 90.4535ZM40.4928 89.2005L39.6876 88.3953L40.4928 87.5901L41.298 88.3953L40.4928 89.2005ZM40.2689 89.4244L39.4637 90.2296L38.6584 89.4244L39.4637 88.6192L40.2689 89.4244ZM39.2398 90.4535L38.4346 91.2588L37.6293 90.4535L38.4346 89.6483L39.2398 90.4535ZM38.4346 91.7065L39.2398 92.5117L38.3554 93.3962L37.5502 92.5909L38.4346 91.7065ZM38.6584 91.4826L39.4637 90.6774L40.2689 91.4826L39.4637 92.2879L38.6584 91.4826ZM40.4928 91.7065L41.298 92.5117L40.4928 93.317L39.6876 92.5117L40.4928 91.7065ZM40.7167 91.4826L41.5219 90.6774L42.3272 91.4826L41.5219 92.2879L40.7167 91.4826ZM41.7458 90.4535L42.551 89.6483L43.3563 90.4535L42.551 91.2588L41.7458 90.4535ZM42.7749 89.4244L43.5801 88.6192L44.3854 89.4244L43.5801 90.2296L42.7749 89.4244ZM44.6092 89.6483L45.4937 90.5327L44.6884 91.3379L43.804 90.4535L44.6092 89.6483ZM46.113 89.2894C46.117 89.5061 46.1059 89.7248 46.0821 89.944L45.7175 90.3087L44.8331 89.4242L45.6316 88.6258L46.1049 89.0899C46.1087 89.156 46.1118 89.2224 46.113 89.2894ZM45.7175 90.7566L45.8866 90.9256C45.7744 91.3153 45.6227 91.7024 45.4317 92.0813L44.9123 91.5618L45.7175 90.7566ZM45.9414 90.5327L45.9984 90.4757C45.9919 90.507 45.9854 90.5382 45.9784 90.5696L45.9414 90.5327ZM45.8554 88.4021L45.984 88.2735C46.0093 88.3782 46.0315 88.4843 46.0494 88.5921L45.8554 88.4021ZM45.6293 88.1804L44.816 87.3833L45.3448 86.8545C45.5761 87.1828 45.7562 87.5418 45.8841 87.9257L45.6293 88.1804ZM45.4055 88.4043L44.6092 89.2005L43.804 88.3953L44.5923 87.607L45.4055 88.4043ZM43.5801 88.1714L42.7749 87.3662L43.5529 86.5882L44.3662 87.3853L43.5801 88.1714ZM42.3272 87.3662L41.5219 88.1714L40.7167 87.3662L41.5219 86.5609L42.3272 87.3662ZM40.4928 87.1423L39.6876 86.3371L40.4928 85.5318L41.298 86.3371L40.4928 87.1423ZM39.2398 86.3371L38.4346 87.1423L37.6751 86.3828C37.9852 86.1331 38.3054 85.9154 38.6317 85.7291L39.2398 86.3371ZM39.4637 86.5609L40.2689 87.3662L39.4637 88.1714L38.6584 87.3662L39.4637 86.5609ZM39.2398 88.3953L38.4346 89.2005L37.6293 88.3953L38.4346 87.5901L39.2398 88.3953ZM38.2107 89.4244L37.4055 90.2296L36.6002 89.4244L37.4055 88.6192L38.2107 89.4244ZM36.3763 89.2005L35.7624 88.5866C35.9528 88.2642 36.1737 87.9469 36.424 87.6377L37.1816 88.3953L36.3763 89.2005ZM36.1525 89.4244L35.2681 90.3088L35.0885 90.1293C35.2098 89.7088 35.3814 89.2879 35.6017 88.8736L36.1525 89.4244ZM35.0442 90.5327L34.9715 90.6054C34.9794 90.5658 34.9893 90.526 34.998 90.4865L35.0442 90.5327ZM35.0442 92.5909L34.9772 92.6579C34.965 92.6029 34.9551 92.5472 34.9449 92.4916L35.0442 92.5909ZM35.2681 92.8148L36.0733 93.62L35.5872 94.1061C35.3626 93.7625 35.1911 93.3952 35.0722 93.0106L35.2681 92.8148ZM35.4919 92.5909L36.2972 91.7857L37.1024 92.5909L36.2972 93.3962L35.4919 92.5909ZM37.3263 92.8148L38.1315 93.62L37.3263 94.4253L36.521 93.62L37.3263 92.8148ZM38.5793 93.62L39.4637 92.7356L40.2689 93.5409L39.3845 94.4253L38.5793 93.62ZM40.4928 93.7647L41.3772 94.6491L40.4928 95.5335L39.6084 94.6491L40.4928 93.7647ZM41.8249 94.6491L42.6302 93.8439L43.3951 94.6088C43.0919 94.8583 42.7754 95.0809 42.4489 95.2731L41.8249 94.6491ZM41.6011 94.4253L40.7167 93.5409L41.5219 92.7356L42.4063 93.62L41.6011 94.4253ZM41.7458 92.5117L42.551 91.7065L43.4354 92.5909L42.6302 93.3962L41.7458 92.5117ZM42.7749 91.4826L43.5801 90.6774L44.4645 91.5618L43.6593 92.367L42.7749 91.4826ZM44.6884 91.7857L45.2761 92.3734C45.0899 92.7041 44.873 93.0265 44.63 93.3377L43.8832 92.5909L44.6884 91.7857ZM45.1502 86.6013L44.5899 87.1616L43.7766 86.3645L44.3173 85.8238C44.4827 85.9447 44.6433 86.0766 44.797 86.2223C44.9242 86.3423 45.0412 86.4693 45.1502 86.6013ZM41.8625 84.9311L42.2874 85.3477L41.5219 86.1132L40.7167 85.308L41.0864 84.9383C41.3471 84.9161 41.6065 84.9136 41.8625 84.9311ZM37.4317 86.5872L38.2107 87.3662L37.4055 88.1714L36.6287 87.3947C36.7397 87.2675 36.8545 87.1415 36.9758 87.0179C37.1246 86.8662 37.2767 86.7227 37.4317 86.5872ZM35.7728 94.3683L36.2972 93.8439L37.1024 94.6491L36.5703 95.1813C36.4373 95.0757 36.3086 94.9628 36.1856 94.8407C36.0344 94.6903 35.8979 94.5321 35.7728 94.3683ZM39.4214 96.1501C39.2911 96.1501 39.1625 96.144 39.0354 96.1342L38.5793 95.6783L39.3845 94.873L40.2689 95.7574L39.9008 96.1255C39.7518 96.1395 39.603 96.149 39.4548 96.1499C39.4437 96.1501 39.4325 96.1501 39.4214 96.1501ZM43.6359 94.4018L42.8541 93.62L43.6593 92.8148L44.4294 93.5849C44.2962 93.7424 44.1572 93.8974 44.0098 94.0475C43.8886 94.1712 43.7632 94.2882 43.6359 94.4018Z" fill="#FFD700"/>
</g>
</g>
<defs>
<linearGradient id="paint0_linear_1228_33" x1="19.0379" y1="19.0379" x2="110.962" y2="110.962" gradientUnits="userSpaceOnUse">
<stop stop-color="#2F4F2F"/>
<stop offset="1" stop-color="#2F4F2F"/>
</linearGradient>
<clipPath id="clip0_1228_33">
<rect width="130" height="130" fill="white"/>
</clipPath>
<clipPath id="clip1_1228_33">
<rect width="20.2656" height="20.2656" fill="white" transform="translate(27.1133 26.0879)"/>
</clipPath>
<clipPath id="clip2_1228_33">
<rect width="20.2656" height="20.2656" fill="white" transform="translate(27.1133 83.6465)"/>
</clipPath>
</defs>
</svg>
