<svg width="130" height="130" viewBox="0 0 130 130" fill="none" xmlns="http://www.w3.org/2000/svg">
<g clip-path="url(#clip0_1191_574)">
<path d="M65 130C100.899 130 130 100.899 130 65C130 29.1015 100.899 0 65 0C29.1015 0 0 29.1015 0 65C0 100.899 29.1015 130 65 130Z" fill="url(#paint0_linear_1191_574)"/>
<path d="M59.8932 67.8066H93.6519C101.219 67.8066 107.354 73.9412 107.354 81.5085C107.354 86.5047 104.679 90.8748 100.684 93.2687L102.744 101.768L93.9161 95.2037C93.8279 95.2054 93.7405 95.2104 93.6519 95.2104H59.8933C52.326 95.2104 46.1914 89.0758 46.1914 81.5085C46.1913 73.9412 52.3259 67.8066 59.8932 67.8066Z" fill="#FFD700" stroke="#FFD700" stroke-width="0.747932" stroke-miterlimit="10" stroke-linecap="round" stroke-linejoin="round"/>
<path d="M68.3359 74.0527H93.7987" stroke="#2F4F2F" stroke-width="0.747932" stroke-miterlimit="10" stroke-linecap="round" stroke-linejoin="round"/>
<path d="M54.9023 81.3652H93.798" stroke="#2F4F2F" stroke-width="0.747932" stroke-miterlimit="10" stroke-linecap="round" stroke-linejoin="round"/>
<path d="M54.9023 88.6758H83.5242" stroke="#2F4F2F" stroke-width="0.747932" stroke-miterlimit="10" stroke-linecap="round" stroke-linejoin="round"/>
<path d="M103.798 66.9326C106.799 66.9326 109.231 69.3654 109.231 72.3662C109.231 75.367 106.799 77.7998 103.798 77.7998C100.797 77.7997 98.3643 75.367 98.3643 72.3662C98.3643 69.3655 100.797 66.9327 103.798 66.9326Z" fill="white" stroke="#FFD700" stroke-width="0.369606"/>
<mask id="mask0_1191_574" style="mask-type:luminance" maskUnits="userSpaceOnUse" x="100" y="68" width="8" height="9">
<path d="M107.565 72.5731C107.68 70.4929 106.087 68.7136 104.006 68.5988C101.926 68.484 100.147 70.0772 100.032 72.1574C99.9173 74.2375 101.511 76.0169 103.591 76.1317C105.671 76.2465 107.45 74.6532 107.565 72.5731Z" fill="white"/>
</mask>
<g mask="url(#mask0_1191_574)">
<path d="M105.577 76.3384H102.019C101.8 76.3384 101.591 76.2516 101.436 76.0973C101.282 75.9429 101.195 75.7334 101.195 75.5151V74.9599C101.196 74.4431 101.401 73.9476 101.767 73.5823C102.132 73.2169 102.628 73.0117 103.144 73.0117H104.451C104.968 73.0117 105.464 73.217 105.829 73.5825C106.195 73.948 106.4 74.4437 106.4 74.9606V75.5158C106.4 75.734 106.313 75.9433 106.159 76.0975C106.004 76.2517 105.795 76.3384 105.577 76.3384Z" fill="#2F4F2F"/>
<path d="M103.797 72.6498C104.562 72.6498 105.183 72.0291 105.183 71.2634C105.183 70.4977 104.562 69.877 103.797 69.877C103.031 69.877 102.41 70.4977 102.41 71.2634C102.41 72.0291 103.031 72.6498 103.797 72.6498Z" fill="#2F4F2F"/>
</g>
<path d="M69.0348 36.8086H35.2761C27.7088 36.8086 21.5742 42.9431 21.5742 50.5105C21.5742 55.5066 24.2492 59.8768 28.2442 62.2707L26.1837 70.7703L35.0118 64.2057C35.1001 64.2074 35.1874 64.2124 35.276 64.2124H69.0347C76.602 64.2124 82.7365 58.0779 82.7365 50.5105C82.7366 42.9432 76.6021 36.8086 69.0348 36.8086Z" stroke="#FFB901" stroke-width="0.747932" stroke-miterlimit="10" stroke-linecap="round" stroke-linejoin="round"/>
<path d="M47.4414 43.209H72.9041" stroke="#FFB901" stroke-width="0.747932" stroke-miterlimit="10" stroke-linecap="round" stroke-linejoin="round"/>
<path d="M34.0078 50.5215H72.9035" stroke="#FFB901" stroke-width="0.747932" stroke-miterlimit="10" stroke-linecap="round" stroke-linejoin="round"/>
<path d="M34.0078 57.834H62.6296" stroke="#FFB901" stroke-width="0.747932" stroke-miterlimit="10" stroke-linecap="round" stroke-linejoin="round"/>
<path d="M32.5776 41.7816C33.0747 38.7188 30.9947 35.8329 27.9318 35.3358C24.869 34.8387 21.9831 36.9187 21.486 39.9815C20.9889 43.0444 23.0689 45.9303 26.1317 46.4274C29.1946 46.9245 32.0805 44.8445 32.5776 41.7816Z" fill="white"/>
<path d="M29.3321 42.5127C27.8013 42.6531 26.2609 42.6531 24.7301 42.5127C24.59 42.4995 24.4628 42.3797 24.4556 42.2526C24.4528 42.1998 24.4506 42.1469 24.4493 42.094C24.4451 41.9342 24.5781 41.814 24.7579 41.8071C24.8266 41.8047 24.9329 41.8046 25.0682 41.8056C25.0086 41.062 25.092 39.7397 25.1871 39.3456C25.2474 39.049 25.4198 38.759 25.6533 38.5288C25.8868 38.2985 26.1701 38.1409 26.4563 38.0972L26.4652 38.0958C26.8147 38.043 26.8919 38.044 27.0445 38.043C27.131 38.044 27.2474 38.043 27.597 38.0953L27.6059 38.0966C27.8921 38.1409 28.1745 38.2983 28.4089 38.5288C28.6434 38.7593 28.8148 39.0485 28.8749 39.345C28.97 39.7398 29.0534 41.0626 28.9938 41.8056C29.129 41.8046 29.2353 41.8047 29.3041 41.8071C29.4839 41.814 29.6169 41.9342 29.6127 42.094C29.6114 42.1469 29.6093 42.1998 29.6064 42.2526C29.5993 42.3797 29.4722 42.4995 29.3321 42.5127ZM27.7816 42.9415C27.7824 42.9322 27.7812 42.9229 27.778 42.9141C27.7749 42.9053 27.7699 42.8973 27.7634 42.8906C27.7569 42.884 27.749 42.8787 27.7403 42.8753C27.7317 42.8719 27.7224 42.8704 27.713 42.8709C27.2582 42.8857 26.8035 42.8857 26.3491 42.8709C26.3398 42.8704 26.3305 42.8719 26.3218 42.8753C26.3131 42.8787 26.3052 42.884 26.2988 42.8906C26.2923 42.8973 26.2873 42.9053 26.2841 42.9141C26.281 42.9229 26.2797 42.9322 26.2805 42.9415C26.3063 43.3579 26.6469 43.7165 27.0311 43.7165C27.4152 43.7165 27.7557 43.3579 27.7816 42.9415Z" fill="#2F4F2F"/>
</g>
<defs>
<linearGradient id="paint0_linear_1191_574" x1="19.0379" y1="19.0379" x2="110.962" y2="110.962" gradientUnits="userSpaceOnUse">
<stop stop-color="#2F4F2F"/>
<stop offset="1" stop-color="#2F4F2F"/>
</linearGradient>
<clipPath id="clip0_1191_574">
<rect width="130" height="130" fill="white"/>
</clipPath>
</defs>
</svg>
