<svg width="130" height="130" viewBox="0 0 130 130" fill="none" xmlns="http://www.w3.org/2000/svg">
<g clip-path="url(#clip0_1191_645)">
<path d="M65 130C100.899 130 130 100.899 130 65C130 29.1015 100.899 0 65 0C29.1015 0 0 29.1015 0 65C0 100.899 29.1015 130 65 130Z" fill="url(#paint0_linear_1191_645)"/>
<path d="M80.9873 48.3145H98.3271L98.6445 48.333C101.9 48.6013 104.326 51.2832 104.326 54.751V75.4717C104.326 76.7032 103.325 77.7039 102.099 77.7041C100.914 77.7041 99.9114 76.7129 99.8965 75.4727L99.9033 74.292C99.9067 73.9064 99.9083 73.4995 99.9092 73.1895C99.9096 73.0343 99.9101 72.9028 99.9102 72.8105V72.6641L99.8965 55.457C99.8961 54.6259 99.2215 53.9543 98.3926 53.9541H98.3906C97.5528 53.9566 96.8877 54.6324 96.8877 55.4609V55.4619L96.9072 72.6582L96.8945 74.2686C96.8878 74.8486 96.8877 75.3795 96.8877 75.4678L96.8389 98.8633V98.8643C96.8389 100.488 95.5378 101.798 93.9609 101.798C92.3431 101.798 91.0283 100.482 91.0283 98.8643V72.583C91.0283 71.757 90.3649 71.0783 89.5303 71.0781C88.691 71.0781 88.0254 71.7547 88.0254 72.583V98.8643C88.0254 100.482 86.7097 101.798 85.0918 101.798C83.4814 101.798 82.166 100.483 82.166 98.8643V55.459C82.1659 54.76 81.6858 54.1521 80.999 53.9941H80.998C80.3175 53.8349 79.6166 54.1728 79.3096 54.7969V54.7979L70.6113 72.5645C70.0935 73.6165 68.9069 74.0429 67.9248 73.5908V73.5898L67.6133 73.4326C67.2805 73.2474 66.8985 72.9784 66.627 72.623C66.2917 72.1841 66.105 71.5949 66.4658 70.7559V70.7549L74.1436 52.832C75.3645 49.9968 77.9126 48.3145 80.9873 48.3145ZM89.2422 27.1855C92.5822 27.1857 95.3066 29.9136 95.3066 33.2656C95.3064 36.6192 92.5819 39.3465 89.2422 39.3467C85.8953 39.3467 83.1711 36.619 83.1709 33.2656C83.1709 29.9138 85.8951 27.1855 89.2422 27.1855Z" fill="#2F4F2F" stroke="#FFD700"/>
<path d="M47.4814 48.3145H30.1416L29.8242 48.333C26.5687 48.6013 24.1426 51.2832 24.1426 54.751V75.4717C24.1427 76.7032 25.1435 77.7039 26.3701 77.7041C27.5546 77.7041 28.5573 76.7129 28.5723 75.4727L28.5654 74.292C28.5621 73.9064 28.5604 73.4995 28.5596 73.1895C28.5592 73.0343 28.5587 72.9028 28.5586 72.8105V72.6641L28.5723 55.457C28.5726 54.6259 29.2472 53.9543 30.0762 53.9541H30.0781C30.9159 53.9566 31.581 54.6324 31.5811 55.4609V55.4619L31.5615 72.6582L31.5742 74.2686C31.5809 74.8486 31.5811 75.3795 31.5811 75.4678L31.6299 98.8633V98.8643C31.6299 100.488 32.9309 101.798 34.5078 101.798C36.1256 101.798 37.4404 100.482 37.4404 98.8643V72.583C37.4404 71.757 38.1038 71.0783 38.9385 71.0781C39.7778 71.0781 40.4434 71.7547 40.4434 72.583V98.8643C40.4434 100.482 41.7591 101.798 43.377 101.798C44.9874 101.798 46.3027 100.483 46.3027 98.8643V55.459C46.3029 54.76 46.7829 54.1521 47.4697 53.9941H47.4707C48.1513 53.8349 48.8521 54.1728 49.1592 54.7969V54.7979L57.8574 72.5645C58.3753 73.6165 59.5618 74.0429 60.5439 73.5908V73.5898L60.8555 73.4326C61.1883 73.2474 61.5703 72.9784 61.8418 72.623C62.1771 72.1841 62.3637 71.5949 62.0029 70.7559V70.7549L54.3252 52.832C53.1043 49.9968 50.5562 48.3145 47.4814 48.3145ZM39.2266 27.1855C35.8866 27.1857 33.1621 29.9136 33.1621 33.2656C33.1623 36.6192 35.8868 39.3465 39.2266 39.3467C42.5735 39.3467 45.2976 36.619 45.2979 33.2656C45.2979 29.9138 42.5737 27.1855 39.2266 27.1855Z" fill="#2F4F2F" stroke="white"/>
<path d="M51.7559 81.3984H75.9072C77.0164 81.3985 77.9189 82.3019 77.9189 83.4111V99.3848C77.9189 100.492 77.0165 101.395 75.9072 101.396H51.7559C50.6467 101.395 49.7442 100.492 49.7441 99.3848V83.4111C49.7441 82.302 50.6468 81.3987 51.7559 81.3984ZM61.543 75.9746H66.6631C67.3067 75.9746 67.8347 76.5022 67.835 77.1523V78.627H60.3711V77.1523C60.3713 76.5025 60.9008 75.9746 61.543 75.9746Z" fill="#FFD700" stroke="#2F4F2F" stroke-width="0.761719"/>
</g>
<defs>
<linearGradient id="paint0_linear_1191_645" x1="19.0379" y1="19.0379" x2="110.962" y2="110.962" gradientUnits="userSpaceOnUse">
<stop stop-color="#2F4F2F"/>
<stop offset="1" stop-color="#2F4F2F"/>
</linearGradient>
<clipPath id="clip0_1191_645">
<rect width="130" height="130" fill="white"/>
</clipPath>
</defs>
</svg>
