<svg width="130" height="130" viewBox="0 0 130 130" fill="none" xmlns="http://www.w3.org/2000/svg">
<g clip-path="url(#clip0_1191_632)">
<path d="M65 130C100.899 130 130 100.899 130 65C130 29.1015 100.899 0 65 0C29.1015 0 0 29.1015 0 65C0 100.899 29.1015 130 65 130Z" fill="url(#paint0_linear_1191_632)"/>
<g clip-path="url(#clip1_1191_632)">
<path d="M34.9902 67.8711H75.0166C75.8868 67.8713 76.5918 68.577 76.5918 69.4473C76.5917 70.3174 75.8867 71.0232 75.0166 71.0234H73.1953L73.1143 71.4248L69.3779 90.1045C69.3636 90.1147 69.3497 90.1261 69.334 90.1367C67.932 91.0815 66.4531 91.4653 65.7812 91.6006L65.4111 91.6641C61.9715 92.0288 59.3897 94.9292 59.3936 98.3564L59.4014 98.6904C59.422 99.109 59.4825 99.5241 59.5801 99.9307H43.8848C43.5204 99.9306 43.1675 99.8042 42.8857 99.5732C42.6041 99.3423 42.4103 99.0213 42.3389 98.6641L41.5371 94.6514C42.5456 94.204 43.3945 93.5938 44.0215 92.9668L56.8252 80.1631C57.8308 79.1571 57.8308 77.5265 56.8252 76.5205C55.8192 75.5145 54.1875 75.5144 53.1816 76.5205L40.4551 89.2461L36.8916 71.4248L36.8115 71.0234H34.9902C34.1199 71.0234 33.4141 70.3176 33.4141 69.4473C33.4141 68.5769 34.1198 67.8711 34.9902 67.8711Z" fill="#2F4F2F" stroke="#FFD700"/>
<path d="M41.6406 41.1963C42.3805 41.1966 42.9387 41.6888 43.1309 42.2725V42.2744C43.4978 43.3732 44.3148 45.306 46.1543 47.1455C47.9938 48.9849 49.9268 49.8011 51.0254 50.168L51.0273 50.1689C51.6109 50.3612 52.1022 50.9185 52.1025 51.6582L52.0967 51.7939C52.0404 52.4656 51.5745 52.9672 51.0273 53.1475L51.0254 53.1484C49.927 53.5153 47.9939 54.3314 46.1543 56.1709C44.3147 58.0105 43.4977 59.9434 43.1309 61.042V61.0439C42.9387 61.6276 42.3805 62.1179 41.6406 62.1182C40.9011 62.1175 40.3435 61.6274 40.1514 61.0439V61.042L39.9912 60.5928C39.5641 59.4617 38.7384 57.7806 37.1289 56.1709C35.2893 54.3313 33.3555 53.5153 32.2568 53.1484L32.2549 53.1475L32.1475 53.1074C31.6123 52.8852 31.1802 52.3518 31.1797 51.6582L31.1855 51.5215C31.242 50.8502 31.7079 50.3492 32.2549 50.1689L32.2568 50.168C33.3553 49.8011 35.2893 48.9851 37.1289 47.1455C38.9684 45.306 39.7845 43.373 40.1514 42.2744V42.2725C40.3435 41.689 40.9011 41.1969 41.6406 41.1963ZM70.5742 45.6436C71.4402 45.6436 72.1425 46.3459 72.1426 47.2119V50.0908H75.0215C75.8875 50.0908 76.5897 50.7932 76.5898 51.6592C76.5898 52.5252 75.8876 53.2275 75.0215 53.2275H72.1426V56.1064C72.1426 56.9725 71.4403 57.6748 70.5742 57.6748C69.7082 57.6748 69.0059 56.9725 69.0059 56.1064V53.2275H66.127C65.2609 53.2275 64.5586 52.5252 64.5586 51.6592C64.5587 50.7932 65.261 50.0908 66.127 50.0908H69.0059V47.2119C69.006 46.3459 69.7082 45.6436 70.5742 45.6436ZM59.4561 30.0781C60.322 30.0783 61.0244 30.7805 61.0244 31.6465V34.5254H63.9033C64.7693 34.5255 65.4717 35.2277 65.4717 36.0938C65.4716 36.9597 64.7693 37.662 63.9033 37.6621H61.0244V40.541C61.0244 41.407 60.322 42.1092 59.4561 42.1094C58.59 42.1094 57.8877 41.4071 57.8877 40.541V37.6621H55.0088C54.1428 37.6621 53.4405 36.9598 53.4404 36.0938C53.4404 35.2277 54.1427 34.5254 55.0088 34.5254H57.8877V31.6465C57.8877 30.7804 58.59 30.0781 59.4561 30.0781Z" fill="#2F4F2F" stroke="white" stroke-width="1.01562"/>
<path fill-rule="evenodd" clip-rule="evenodd" d="M77.389 82.7908C77.389 76.7415 82.3105 71.8201 88.3598 71.8201C94.4091 71.8201 99.3304 76.7414 99.3304 82.7907C99.3304 88.6631 97.3223 100.432 81.6886 100.432H66.1229C65.0165 100.432 64.1047 99.565 64.0495 98.46C63.9943 97.3549 64.8156 96.4008 65.9164 96.2908C66.2083 96.2595 77.389 95.0093 77.389 82.7908Z" fill="#FFD700"/>
<path d="M90.4358 67.8111V31.6464C90.4358 30.4998 89.5063 29.5703 88.3598 29.5703C87.2133 29.5703 86.2838 30.4998 86.2838 31.6464V67.8111C86.9717 67.716 87.6653 67.6681 88.3598 67.668C89.064 67.668 89.7568 67.7174 90.4358 67.8111Z" fill="white"/>
<path d="M34.5518 85.9932C34.4147 86.3883 34.3438 86.8078 34.3438 87.2373C34.3438 88.8413 35.3016 90.2745 36.7822 90.8877C37.7595 91.2922 38.8283 91.2828 39.7686 90.9033L40.3906 94.0205C38.9997 94.4656 37.3432 94.5322 35.5752 93.7998C32.9116 92.6964 31.1914 90.1216 31.1914 87.2383C31.1915 85.3811 31.9135 83.6393 33.2256 82.3271L33.7188 81.833L34.5518 85.9932Z" fill="#2F4F2F" stroke="#FFD700"/>
</g>
</g>
<defs>
<linearGradient id="paint0_linear_1191_632" x1="19.0379" y1="19.0379" x2="110.962" y2="110.962" gradientUnits="userSpaceOnUse">
<stop stop-color="#2F4F2F"/>
<stop offset="1" stop-color="#2F4F2F"/>
</linearGradient>
<clipPath id="clip0_1191_632">
<rect width="130" height="130" fill="white"/>
</clipPath>
<clipPath id="clip1_1191_632">
<rect width="70.8622" height="70.8622" fill="white" transform="translate(29.5703 29.5703)"/>
</clipPath>
</defs>
</svg>
