<svg width="139" height="139" viewBox="0 0 139 139" fill="none" xmlns="http://www.w3.org/2000/svg">
<g clip-path="url(#clip0_1191_599)">
<path d="M69.2129 138.426C107.438 138.426 138.426 107.438 138.426 69.2129C138.426 30.9877 107.438 0 69.2129 0C30.9877 0 0 30.9877 0 69.2129C0 107.438 30.9877 138.426 69.2129 138.426Z" fill="url(#paint0_linear_1191_599)"/>
<path d="M69.2939 50.1123C79.1576 50.0053 91.113 50.5882 101.997 51.4434C102.428 56.293 102.742 61.9494 102.701 66.334H102.7L102.701 66.3447C102.786 74.0853 101.755 85.7901 100.915 89.957L100.914 89.96C100.265 93.2994 98.4064 96.6098 95.8545 99.2754C93.3025 101.941 90.0862 103.932 86.7559 104.67C82.5948 105.532 76.9407 106.38 69.2148 106.394C61.4875 106.382 55.8338 105.539 51.6865 104.661H51.6875C48.3576 103.928 45.1417 101.94 42.5898 99.2744C40.0381 96.6091 38.1784 93.2966 37.5293 89.9521L37.5283 89.9492L37.3701 89.083C36.6233 84.6569 35.7844 74.9998 35.7402 67.8311L35.7432 66.3359V66.3252C35.6956 61.9511 36.006 56.2984 36.4385 51.4521C47.3484 50.5919 59.3362 50.0043 69.2324 50.1113C69.2526 50.1122 69.2728 50.1121 69.293 50.1113L69.2939 50.1123ZM76.6758 58.6006C73.114 57.1253 69.1942 56.7391 65.4131 57.4912C61.632 58.2433 58.1586 60.1002 55.4326 62.8262C52.7067 65.5522 50.8507 69.0257 50.0986 72.8066C49.3466 76.5877 49.7327 80.5067 51.208 84.0684C52.6833 87.63 55.1813 90.6746 58.3867 92.8164C61.5921 94.9581 65.3607 96.1015 69.2158 96.1016H69.2168C74.3842 96.0955 79.3382 94.0396 82.9922 90.3857C86.6463 86.7317 88.702 81.777 88.708 76.6094L88.6943 75.8877C88.561 72.2852 87.4309 68.7845 85.4229 65.7793C83.2811 62.5741 80.2372 60.0759 76.6758 58.6006Z" fill="#2F4F2F" stroke="#FFD700"/>
<path fill-rule="evenodd" clip-rule="evenodd" d="M101.398 43.8414C100.057 36.9331 93.7462 30.254 86.8566 28.7386C82.6736 27.8596 76.9838 27.0077 69.2152 26.9941C61.4466 27.0077 55.7567 27.8613 51.567 28.7301C44.6774 30.2574 38.3664 36.9348 37.0259 43.8414C36.846 44.7408 36.6576 45.9846 36.4727 47.4593C47.703 46.5938 59.7938 46.0322 69.2559 46.1357C78.1734 46.0389 89.7329 46.5039 101.942 47.4474C101.764 45.9779 101.578 44.7391 101.398 43.8414ZM59.7509 40.6193C60.3648 41.0295 61.0866 41.2485 61.825 41.2485C62.8151 41.2485 63.7647 40.8551 64.4648 40.155C65.1649 39.4549 65.5583 38.5053 65.5583 37.5152C65.5583 36.7768 65.3393 36.055 64.9291 35.4411C64.5189 34.8272 63.9358 34.3487 63.2537 34.0661C62.5715 33.7835 61.8209 33.7096 61.0967 33.8536C60.3725 33.9977 59.7073 34.3533 59.1852 34.8754C58.6631 35.3975 58.3075 36.0627 58.1635 36.7869C58.0194 37.5111 58.0933 38.2617 58.3759 38.9439C58.6585 39.626 59.137 40.2091 59.7509 40.6193Z" fill="#2F4F2F"/>
<path d="M61.825 41.2485C61.0866 41.2485 60.3648 41.0295 59.7509 40.6193C59.137 40.2091 58.6585 39.626 58.3759 38.9439C58.0933 38.2617 58.0194 37.5111 58.1635 36.7869C58.3075 36.0627 58.6631 35.3975 59.1852 34.8754C59.7073 34.3533 60.3725 33.9977 61.0967 33.8536C61.8209 33.7096 62.5715 33.7835 63.2537 34.0661C63.9358 34.3487 64.5189 34.8272 64.9291 35.4411C65.3393 36.055 65.5583 36.7768 65.5583 37.5152C65.5583 38.5053 65.1649 39.4549 64.4648 40.155C63.7647 40.8551 62.8151 41.2485 61.825 41.2485Z" fill="#FFD700"/>
<path d="M69.2148 27.4941C76.9417 27.5077 82.5958 28.3531 86.749 29.2256V29.2266C90.0788 29.959 93.2948 31.9476 95.8467 34.6133C98.3985 37.2789 100.258 40.5919 100.907 43.9365V43.9395C101.059 44.6949 101.214 45.7051 101.368 46.9023C89.3777 45.9898 78.042 45.5397 69.2559 45.6348C59.9468 45.5332 48.1096 46.0749 37.0479 46.9141C37.2065 45.7115 37.3651 44.697 37.5166 43.9395V43.9365C38.1657 40.5928 40.0253 37.2808 42.5771 34.6143C45.129 31.9478 48.3447 29.9571 51.6748 29.2188L51.6738 29.2178C55.8348 28.3552 61.4889 27.5077 69.2148 27.4941ZM65.0586 37.5156C65.0585 38.3195 64.7588 39.0925 64.2217 39.6855L64.1113 39.8018C63.505 40.408 62.6826 40.748 61.8252 40.748C61.1857 40.748 60.56 40.5584 60.0283 40.2031C59.4969 39.8479 59.0826 39.3434 58.8379 38.7529L58.7549 38.5283C58.6053 38.0749 58.5579 37.594 58.6162 37.1201L58.6543 36.8848C58.7635 36.336 59.0124 35.8261 59.376 35.4043L59.5391 35.2285C59.9347 34.833 60.4253 34.548 60.9619 34.3994L61.1943 34.3438C61.8215 34.219 62.4717 34.2836 63.0625 34.5283C63.6532 34.7731 64.1584 35.1871 64.5137 35.7188C64.8689 36.2504 65.0586 36.8762 65.0586 37.5156ZM66.0586 37.5156C66.0586 36.6784 65.8099 35.8592 65.3447 35.1631C64.8797 34.4671 64.2186 33.9249 63.4453 33.6045L63.1514 33.4951C62.5581 33.2994 61.9287 33.2373 61.3086 33.3135L60.999 33.3633C60.2807 33.5062 59.6137 33.8328 59.0615 34.3086L58.832 34.5215C58.314 35.0396 57.9398 35.6821 57.7451 36.3848L57.6729 36.6895C57.5096 37.5105 57.5938 38.3614 57.9141 39.1348C58.2344 39.9082 58.7766 40.57 59.4727 41.0352C60.1688 41.5003 60.9879 41.748 61.8252 41.748C62.8776 41.748 63.8895 41.3563 64.666 40.6533L64.8184 40.5088C65.5625 39.7646 66.0007 38.7717 66.0527 37.7256L66.0586 37.5156Z" stroke="#FFD700"/>
<path d="M48.4756 41.2807C49.0895 41.691 49.8113 41.9099 50.5497 41.9099C51.0399 41.9099 51.5254 41.8133 51.9783 41.6257C52.4313 41.4381 52.8428 41.1631 53.1895 40.8165C53.5362 40.4698 53.8112 40.0582 53.9988 39.6053C54.1864 39.1524 54.283 38.6669 54.283 38.1766C54.283 37.4383 54.064 36.7165 53.6538 36.1025C53.2436 35.4886 52.6605 35.0101 51.9783 34.7275C51.2962 34.445 50.5455 34.371 49.8214 34.5151C49.0972 34.6591 48.432 35.0147 47.9099 35.5368C47.3878 36.0589 47.0322 36.7241 46.8881 37.4483C46.7441 38.1725 46.818 38.9231 47.1006 39.6053C47.3832 40.2875 47.8617 40.8705 48.4756 41.2807Z" fill="#2F4F2F"/>
<path d="M49.9189 35.0059C50.5461 34.8811 51.1963 34.9447 51.7871 35.1895C52.3778 35.4341 52.883 35.8483 53.2383 36.3799C53.5936 36.9116 53.7832 37.5373 53.7832 38.1768C53.7832 38.6013 53.6996 39.0218 53.5371 39.4141C53.3746 39.8063 53.1362 40.1627 52.8359 40.4629C52.5357 40.7631 52.1794 41.0016 51.7871 41.1641C51.3949 41.3265 50.9744 41.4101 50.5498 41.4102C49.9103 41.4102 49.2846 41.2205 48.7529 40.8652C48.2213 40.51 47.8072 40.0048 47.5625 39.4141C47.3178 38.8233 47.2541 38.1731 47.3789 37.5459C47.5037 36.9187 47.8115 36.3428 48.2637 35.8906C48.7158 35.4385 49.2918 35.1306 49.9189 35.0059Z" stroke="white"/>
<path d="M49.3643 106.899C49.8438 107.049 50.329 107.18 50.8193 107.289L50.8252 107.29L50.8662 107.299H50.8672C54.0654 107.959 57.2991 108.432 60.5518 108.721C60.1559 109.642 59.2688 110.449 58.3389 110.657C56.221 111.077 54.0416 111.078 51.9238 110.657C51.3779 110.535 50.8339 110.205 50.3945 109.746C49.9539 109.286 49.6421 108.722 49.5342 108.166L49.5332 108.165L49.4766 107.829C49.4387 107.576 49.3993 107.257 49.3643 106.899ZM89.0596 106.893C89.0241 107.251 88.9873 107.571 88.9502 107.823L88.8936 108.158C88.7857 108.712 88.4732 109.279 88.0322 109.741C87.5927 110.201 87.0501 110.532 86.5068 110.65C84.3878 111.071 82.207 111.071 80.0879 110.65C79.1583 110.443 78.2707 109.636 77.875 108.714C81.128 108.425 84.362 107.951 87.5605 107.29H87.5615L87.6025 107.281L87.6074 107.28C88.0967 107.171 88.581 107.041 89.0596 106.893Z" fill="#2F4F2F" stroke="white" stroke-width="0.835801"/>
<path fill-rule="evenodd" clip-rule="evenodd" d="M69.2118 62.3184C65.4233 62.3229 61.7912 63.8298 59.1123 66.5088C56.4334 69.1877 54.9264 72.8198 54.9219 76.6083C54.9235 77.1504 54.9552 77.692 55.0169 78.2306C56.6803 79.8895 58.9336 80.8211 61.2829 80.8211C63.6321 80.8211 65.8855 79.8895 67.5488 78.2306C69.5996 76.1819 72.2522 74.8434 75.1185 74.4111C77.9848 73.9787 80.9142 74.4751 83.4781 75.8277C83.2748 72.1801 81.6837 68.7484 79.031 66.2365C76.3783 63.7245 72.8651 62.3227 69.2118 62.3184ZM63.2285 70.7536C63.8784 70.0999 64.6535 69.584 65.5074 69.2368C65.8761 69.0843 66.1695 68.7924 66.3239 68.4245C66.4782 68.0566 66.4809 67.6426 66.3313 67.2728C66.1818 66.9029 65.8921 66.6072 65.5255 66.45C65.1588 66.2927 64.7449 66.2868 64.3739 66.4334C63.1413 66.9345 62.0226 67.6791 61.0846 68.6226C60.1465 69.5662 59.4086 70.6893 58.9148 71.9248C58.7706 72.2966 58.7792 72.7103 58.9387 73.0759C59.0982 73.4414 59.3956 73.7291 59.7662 73.8764C60.1368 74.0236 60.5506 74.0185 60.9175 73.8621C61.2843 73.7057 61.5746 73.4107 61.7249 73.0413C62.0672 72.1854 62.5785 71.4073 63.2285 70.7536Z" fill="#FFD700"/>
<path d="M69.2109 62.7363C72.7575 62.7405 76.169 64.1015 78.7441 66.54C81.1433 68.8121 82.6461 71.8594 83 75.1289C80.5238 73.9875 77.7635 73.5898 75.0566 73.998C72.1023 74.4437 69.3677 75.823 67.2539 77.9346C65.6689 79.5153 63.5217 80.4032 61.2832 80.4033C59.0926 80.4033 56.9904 79.5519 55.416 78.0342C55.3668 77.5605 55.3413 77.0847 55.3398 76.6084C55.3443 72.9307 56.8076 69.4053 59.4082 66.8047C62.0085 64.2044 65.5335 62.7411 69.2109 62.7363ZM65.6904 66.0654C65.2225 65.8648 64.6942 65.8579 64.2207 66.0449L64.2168 66.0459C62.9322 66.5681 61.7657 67.3447 60.7881 68.3281C59.8105 69.3115 59.041 70.4819 58.5264 71.7695L58.5254 71.7734C58.3414 72.2481 58.3521 72.7766 58.5557 73.2432C58.7592 73.7096 59.1393 74.0767 59.6123 74.2646C60.0852 74.4525 60.6129 74.4456 61.0811 74.2461C61.5493 74.0465 61.9204 73.6706 62.1123 73.1992L62.1133 73.1963C62.4346 72.3927 62.9142 71.6616 63.5244 71.0479C64.1347 70.434 64.8632 69.9501 65.665 69.624L65.667 69.623C66.1376 69.4285 66.512 69.0555 66.709 68.5859C66.9059 68.1164 66.9096 67.5882 66.7188 67.1162C66.5279 66.6442 66.1584 66.2661 65.6904 66.0654Z" stroke="#FFD700" stroke-width="0.835801"/>
</g>
<defs>
<linearGradient id="paint0_linear_1191_599" x1="20.2718" y1="20.2718" x2="118.154" y2="118.154" gradientUnits="userSpaceOnUse">
<stop stop-color="#2F4F2F"/>
<stop offset="1" stop-color="#2F4F2F"/>
</linearGradient>
<clipPath id="clip0_1191_599">
<rect width="138.426" height="138.426" fill="white"/>
</clipPath>
</defs>
</svg>
