<svg width="130" height="130" viewBox="0 0 130 130" fill="none" xmlns="http://www.w3.org/2000/svg">
<g clip-path="url(#clip0_1191_502)">
<path d="M65 130C100.899 130 130 100.899 130 65C130 29.1015 100.899 0 65 0C29.1015 0 0 29.1015 0 65C0 100.899 29.1015 130 65 130Z" fill="url(#paint0_linear_1191_502)"/>
<path d="M101.688 100.623H28.5353C24.6088 100.623 21.4258 97.4402 21.4258 93.5138V40.5626C21.4258 36.6361 24.6088 33.4531 28.5353 33.4531H101.688C105.615 33.4531 108.798 36.6361 108.798 40.5626V93.5138C108.798 97.4402 105.615 100.623 101.688 100.623Z" fill="#FFD700"/>
<path d="M28.5334 98.9575C25.5318 98.9575 23.0898 96.5155 23.0898 93.5139V40.5627C23.0898 37.5611 25.5318 35.1191 28.5334 35.1191H101.686C104.688 35.1191 107.13 37.5611 107.13 40.5627V93.5139C107.13 96.5155 104.688 98.9575 101.686 98.9575H28.5334Z" fill="#2F4F2F"/>
<path d="M28.5332 35.6191H101.687C104.412 35.6191 106.63 37.8371 106.63 40.5625V48.2617H23.5898V40.5625C23.59 37.8372 25.8079 35.6193 28.5332 35.6191Z" fill="#FFD700" stroke="#FFD700"/>
<path d="M36.2994 37.7278C36.2994 36.738 35.497 35.9355 34.5071 35.9355C33.5173 35.9355 32.7148 36.738 32.7148 37.7278C32.7148 38.7177 33.5173 39.5201 34.5071 39.5201C35.4967 39.5201 36.2994 38.7177 36.2994 37.7278Z" fill="#2F4F2F"/>
<path d="M43.9517 37.7278C43.9517 36.738 43.1493 35.9355 42.1594 35.9355C41.1696 35.9355 40.3672 36.738 40.3672 37.7278C40.3672 38.7177 41.1696 39.5201 42.1594 39.5201C43.1493 39.5201 43.9517 38.7177 43.9517 37.7278Z" fill="#2F4F2F"/>
<path d="M51.6001 37.7278C51.6001 36.738 50.7977 35.9355 49.8079 35.9355C48.818 35.9355 48.0156 36.738 48.0156 37.7278C48.0156 38.7177 48.818 39.5201 49.8079 39.5201C50.7977 39.5201 51.6001 38.7177 51.6001 37.7278Z" fill="#2F4F2F"/>
<path d="M59.2525 37.7278C59.2525 36.738 58.4501 35.9355 57.4602 35.9355C56.4704 35.9355 55.668 36.738 55.668 37.7278C55.668 38.7177 56.4704 39.5201 57.4602 39.5201C58.4501 39.5201 59.2525 38.7177 59.2525 37.7278Z" fill="#2F4F2F"/>
<path d="M66.9009 37.7278C66.9009 36.738 66.0985 35.9355 65.1087 35.9355C64.1188 35.9355 63.3164 36.738 63.3164 37.7278C63.3164 38.7177 64.1188 39.5201 65.1087 39.5201C66.0985 39.5201 66.9009 38.7177 66.9009 37.7278Z" fill="#2F4F2F"/>
<path d="M74.5494 37.7278C74.5494 36.738 73.747 35.9355 72.7571 35.9355C71.7672 35.9355 70.9648 36.738 70.9648 37.7278C70.9648 38.7177 71.7672 39.5201 72.7571 39.5201C73.747 39.5201 74.5494 38.7177 74.5494 37.7278Z" fill="#2F4F2F"/>
<path d="M82.2017 37.7278C82.2017 36.738 81.3993 35.9355 80.4094 35.9355C79.4196 35.9355 78.6172 36.738 78.6172 37.7278C78.6172 38.7177 79.4196 39.5201 80.4094 39.5201C81.3993 39.5201 82.2017 38.7177 82.2017 37.7278Z" fill="#2F4F2F"/>
<path d="M89.8501 37.7278C89.8501 36.738 89.0477 35.9355 88.0579 35.9355C87.068 35.9355 86.2656 36.738 86.2656 37.7278C86.2656 38.7177 87.068 39.5201 88.0579 39.5201C89.0477 39.5201 89.8501 38.7177 89.8501 37.7278Z" fill="#2F4F2F"/>
<path d="M97.5025 37.7278C97.5025 36.738 96.7001 35.9355 95.7102 35.9355C94.7204 35.9355 93.918 36.738 93.918 37.7278C93.918 38.7177 94.7204 39.5201 95.7102 39.5201C96.7001 39.5201 97.5025 38.7177 97.5025 37.7278Z" fill="#2F4F2F"/>
<path d="M34.5066 37.729C33.8838 37.729 33.3789 37.2241 33.3789 36.6013V33.1531C33.3789 32.5303 33.8838 32.0254 34.5066 32.0254C35.1294 32.0254 35.6343 32.5303 35.6343 33.1531V36.6013C35.6343 37.2241 35.1294 37.729 34.5066 37.729Z" fill="white"/>
<path d="M42.159 37.729C41.5362 37.729 41.0312 37.2241 41.0312 36.6013V33.1531C41.0312 32.5303 41.5362 32.0254 42.159 32.0254C42.7818 32.0254 43.2867 32.5303 43.2867 33.1531V36.6013C43.2867 37.2241 42.7818 37.729 42.159 37.729Z" fill="white"/>
<path d="M49.8074 37.729C49.1846 37.729 48.6797 37.2241 48.6797 36.6013V33.1531C48.6797 32.5303 49.1846 32.0254 49.8074 32.0254C50.4302 32.0254 50.9351 32.5303 50.9351 33.1531V36.6013C50.9354 37.2241 50.4302 37.729 49.8074 37.729Z" fill="white"/>
<path d="M57.4598 37.729C56.8369 37.729 56.332 37.2241 56.332 36.6013V33.1531C56.332 32.5303 56.8369 32.0254 57.4598 32.0254C58.0826 32.0254 58.5875 32.5303 58.5875 33.1531V36.6013C58.5875 37.2241 58.0826 37.729 57.4598 37.729Z" fill="white"/>
<path d="M65.1082 37.729C64.4854 37.729 63.9805 37.2241 63.9805 36.6013V33.1531C63.9805 32.5303 64.4854 32.0254 65.1082 32.0254C65.731 32.0254 66.2359 32.5303 66.2359 33.1531V36.6013C66.2359 37.2241 65.731 37.729 65.1082 37.729Z" fill="white"/>
<path d="M72.7605 37.729C72.1377 37.729 71.6328 37.2241 71.6328 36.6013V33.1531C71.6328 32.5303 72.1377 32.0254 72.7605 32.0254C73.3833 32.0254 73.8883 32.5303 73.8883 33.1531V36.6013C73.8886 37.2241 73.3836 37.729 72.7605 37.729Z" fill="white"/>
<path d="M80.409 37.729C79.7862 37.729 79.2812 37.2241 79.2812 36.6013V33.1531C79.2812 32.5303 79.7862 32.0254 80.409 32.0254C81.0318 32.0254 81.5367 32.5303 81.5367 33.1531V36.6013C81.5367 37.2241 81.0318 37.729 80.409 37.729Z" fill="white"/>
<path d="M88.0613 37.729C87.4385 37.729 86.9336 37.2241 86.9336 36.6013V33.1531C86.9336 32.5303 87.4385 32.0254 88.0613 32.0254C88.6841 32.0254 89.189 32.5303 89.189 33.1531V36.6013C89.189 37.2241 88.6841 37.729 88.0613 37.729Z" fill="white"/>
<path d="M95.7098 37.729C95.0869 37.729 94.582 37.2241 94.582 36.6013V33.1531C94.582 32.5303 95.0869 32.0254 95.7098 32.0254C96.3326 32.0254 96.8375 32.5303 96.8375 33.1531V36.6013C96.8378 37.2241 96.3329 37.729 95.7098 37.729Z" fill="white"/>
<path d="M38.1201 69.3027V79.3486H28.0742V69.3027H38.1201Z" fill="#2F4F2F" stroke="#FFD700"/>
<path d="M38.1201 83.7402V93.7861H28.0742V83.7402H38.1201Z" fill="#2F4F2F" stroke="#FFD700"/>
<path d="M53.999 69.3027V79.3486H43.9531V69.3027H53.999Z" fill="#2F4F2F" stroke="#FFD700"/>
<path d="M53.999 83.7402V93.7861H43.9531V83.7402H53.999Z" fill="#2F4F2F" stroke="#FFD700"/>
<path d="M70.3744 54.3652H59.3281V65.4115H70.3744V54.3652Z" fill="#FFD700"/>
<path d="M69.874 69.3027V79.3486H59.8281V69.3027H69.874Z" fill="#2F4F2F" stroke="#FFD700"/>
<path d="M69.874 83.7402V93.7861H59.8281V83.7402H69.874Z" fill="#2F4F2F" stroke="#FFD700"/>
<path d="M85.7568 54.8652V64.9111H75.7109V54.8652H85.7568Z" fill="#2F4F2F" stroke="#FFD700"/>
<path d="M86.2572 68.8027H75.2109V79.849H86.2572V68.8027Z" fill="#FFD700"/>
<path d="M85.7568 83.7402V93.7861H75.7109V83.7402H85.7568Z" fill="#2F4F2F" stroke="#FFD700"/>
<path d="M101.632 54.8652V64.9111H91.5859V54.8652H101.632Z" fill="#2F4F2F" stroke="#FFD700"/>
<path d="M101.632 69.3027V79.3486H91.5859V69.3027H101.632Z" fill="#2F4F2F" stroke="#FFD700"/>
<path d="M101.632 83.7402V93.7861H91.5859V83.7402H101.632Z" fill="#2F4F2F" stroke="#FFD700"/>
<path d="M67.2256 62.3555H97.2002C97.6987 62.3555 98.1291 62.4906 98.4199 62.6826C98.7147 62.8773 98.8163 63.0893 98.8164 63.2529V85.3975C98.8163 85.5611 98.7147 85.7731 98.4199 85.9678C98.1291 86.1598 97.6987 86.2949 97.2002 86.2949H67.2256C66.7271 86.2949 66.2976 86.1595 66.0078 85.9678C65.7146 85.7736 65.6134 85.5617 65.6133 85.3975V63.2529C65.6133 63.0886 65.7142 62.8759 66.0078 62.6816C66.2976 62.4899 66.7271 62.3555 67.2256 62.3555Z" fill="#2F4F2F" stroke="#FFD700"/>
<path d="M92.4532 82.2377H72.251C70.4577 82.2377 69.0039 80.9716 69.0039 79.4099C69.0039 77.8482 70.4577 76.582 72.251 76.582H92.4532C94.2465 76.582 95.7003 77.8482 95.7003 79.4099C95.7003 80.9716 94.2465 82.2377 92.4532 82.2377Z" fill="white"/>
<path d="M75.7877 74.3476H70.4307C69.487 74.3476 68.7227 73.5829 68.7227 72.6397V67.2826C68.7227 66.3394 69.4874 65.5742 70.4307 65.5742H75.7877C76.731 65.5742 77.4961 66.339 77.4961 67.2826V72.6397C77.4957 73.5829 76.731 74.3476 75.7877 74.3476Z" fill="white"/>
<path d="M95.1962 68.4761H81.4439C81.1661 68.4761 80.9414 68.251 80.9414 67.9736C80.9414 67.6958 81.1665 67.4707 81.4439 67.4707H95.1962C95.474 67.4707 95.6991 67.6958 95.6991 67.9736C95.6987 68.251 95.4736 68.4761 95.1962 68.4761Z" fill="white"/>
<path d="M95.1962 70.464H81.4439C81.1661 70.464 80.9414 70.2389 80.9414 69.9615C80.9414 69.6837 81.1665 69.459 81.4439 69.459H95.1962C95.474 69.459 95.6991 69.6841 95.6991 69.9615C95.6987 70.2389 95.4736 70.464 95.1962 70.464Z" fill="white"/>
<path d="M91.289 72.4527H81.4439C81.1661 72.4527 80.9414 72.2276 80.9414 71.9502C80.9414 71.6724 81.1665 71.4473 81.4439 71.4473H91.289C91.5668 71.4473 91.7919 71.6724 91.7919 71.9502C91.7919 72.2276 91.5668 72.4527 91.289 72.4527Z" fill="white"/>
</g>
<defs>
<linearGradient id="paint0_linear_1191_502" x1="19.0379" y1="19.0379" x2="110.962" y2="110.962" gradientUnits="userSpaceOnUse">
<stop stop-color="#2F4F2F"/>
<stop offset="1" stop-color="#2F4F2F"/>
</linearGradient>
<clipPath id="clip0_1191_502">
<rect width="130" height="130" fill="white"/>
</clipPath>
</defs>
</svg>
