<svg width="130" height="130" viewBox="0 0 130 130" fill="none" xmlns="http://www.w3.org/2000/svg">
<g clip-path="url(#clip0_1202_38)">
<path d="M65 130C100.899 130 130 100.899 130 65C130 29.1015 100.899 0 65 0C29.1015 0 0 29.1015 0 65C0 100.899 29.1015 130 65 130Z" fill="url(#paint0_linear_1202_38)"/>
<g clip-path="url(#clip1_1202_38)">
<path d="M69.6787 67.6493C69.3168 67.6493 68.9697 67.5055 68.7138 67.2496C68.4579 66.9937 68.3141 66.6467 68.3141 66.2848V60.0488H61.6825V66.2848C61.6825 66.6467 61.5387 66.9937 61.2828 67.2496C61.0269 67.5055 60.6799 67.6493 60.318 67.6493H54.082V74.2673H60.318C60.6799 74.2673 61.0269 74.411 61.2828 74.6669C61.5387 74.9228 61.6825 75.2699 61.6825 75.6318V81.8677H68.3005V75.6318C68.3005 75.2699 68.4443 74.9228 68.7002 74.6669C68.9561 74.411 69.3031 74.2673 69.665 74.2673H75.9146V67.6493H69.6787Z" fill="white"/>
<path d="M73.7712 34.4244C73.6216 34.4159 73.4715 34.4159 73.3217 34.4244H56.6744C54.4848 34.3004 52.6093 35.9747 52.4853 38.1641C52.4767 38.3139 52.4767 38.4638 52.4853 38.6136V44.754H55.2143L55.228 38.6136C55.228 38.2178 55.228 37.1535 56.688 37.1535H73.3217C74.7818 37.1535 74.7818 38.2042 74.7818 38.6136V44.754H77.5108V38.6136C77.635 36.424 75.9606 34.5486 73.7712 34.4244Z" fill="#FFD700"/>
<path fill-rule="evenodd" clip-rule="evenodd" d="M88.741 47.101H41.2551C36.9159 47.101 31.8398 49.5708 31.8398 56.5163V86.1676C31.8398 93.1131 36.9159 95.5829 41.2551 95.5829H88.741C93.0802 95.5829 98.1562 93.1131 98.1562 86.1676V56.5163C98.1562 49.5708 93.0938 47.101 88.741 47.101ZM76.6102 76.9979C77.7331 76.9979 78.6434 76.0876 78.6434 74.9648V66.9413C78.6359 65.8185 77.7194 64.9143 76.5966 64.9218H71.0293V59.3545C71.0293 58.2316 70.119 57.3213 68.9961 57.3213H60.9863C59.8635 57.3213 58.9532 58.2316 58.9532 59.3545V64.9218H53.3859C52.263 64.9218 51.3527 65.8321 51.3527 66.9549V74.9784C51.3602 76.1013 52.2767 77.0054 53.3995 76.9979H58.9532V82.5652C58.9532 83.6881 59.8635 84.5984 60.9863 84.5984H69.0098C70.1326 84.5984 71.0429 83.6881 71.0429 82.5652V76.9979H76.6102Z" fill="#2F4F2F"/>
<path d="M41.2549 47.8506H88.7412C90.7893 47.8506 92.9613 48.4344 94.6055 49.7842C96.225 51.1139 97.4062 53.2465 97.4062 56.5166V86.168C97.4062 89.4374 96.2222 91.5704 94.6006 92.9004C92.9543 94.2506 90.7822 94.833 88.7412 94.833H41.2549C39.2139 94.833 37.0417 94.2506 35.3955 92.9004C33.7739 91.5704 32.5899 89.4374 32.5898 86.168V56.5166C32.5898 53.2472 33.774 51.1142 35.3955 49.7842C37.0417 48.434 39.2139 47.8506 41.2549 47.8506ZM79.3936 66.9365C79.3833 65.4011 78.1313 64.1644 76.5967 64.1719H71.7793V59.3545C71.7793 57.8174 70.5331 56.5713 68.9961 56.5713H60.9863C59.4493 56.5713 58.2031 57.8174 58.2031 59.3545V64.1719H53.3857C51.8487 64.1719 50.6025 65.4181 50.6025 66.9551V74.9834C50.6128 76.5188 51.8647 77.7546 53.3994 77.7471V77.748H58.2031V82.5654C58.2032 84.1024 59.4493 85.3486 60.9863 85.3486H69.0098C70.5468 85.3486 71.7929 84.1024 71.793 82.5654V77.748H76.6104C78.1473 77.748 79.3935 76.5018 79.3936 74.9648V66.9365ZM53.2354 38.5918L53.2344 38.5713C53.2275 38.45 53.2275 38.3283 53.2344 38.207V38.2061C53.3352 36.4306 54.856 35.0724 56.6318 35.1729L56.6533 35.1748H73.3428L73.3643 35.1729C73.4251 35.1694 73.486 35.168 73.5469 35.168L73.7285 35.1729C75.5044 35.2736 76.8624 36.7953 76.7617 38.5713L76.7607 38.5928V44.0039H75.5322V38.6133C75.5322 38.4248 75.5449 37.863 75.248 37.3525C74.9037 36.7605 74.2586 36.4033 73.3213 36.4033H56.6885C55.7471 36.4033 55.1043 36.7675 54.7617 37.3594C54.4667 37.8694 54.4775 38.4277 54.4775 38.6123L54.4658 44.0039H53.2354V38.5918Z" stroke="#FFD700" stroke-width="1.5"/>
</g>
</g>
<defs>
<linearGradient id="paint0_linear_1202_38" x1="19.0379" y1="19.0379" x2="110.962" y2="110.962" gradientUnits="userSpaceOnUse">
<stop stop-color="#2F4F2F"/>
<stop offset="1" stop-color="#2F4F2F"/>
</linearGradient>
<clipPath id="clip0_1202_38">
<rect width="130" height="130" fill="white"/>
</clipPath>
<clipPath id="clip1_1202_38">
<rect width="66.3164" height="66.3164" fill="white" transform="translate(31.8398 31.8418)"/>
</clipPath>
</defs>
</svg>
