<svg width="130" height="130" viewBox="0 0 130 130" fill="none" xmlns="http://www.w3.org/2000/svg">
<g clip-path="url(#clip0_1191_460)">
<path d="M65 130C100.899 130 130 100.899 130 65C130 29.1015 100.899 0 65 0C29.1015 0 0 29.1015 0 65C0 100.899 29.1015 130 65 130Z" fill="url(#paint0_linear_1191_460)"/>
<path d="M126.411 86.3541C118.415 109.35 97.8668 126.471 72.9688 129.518L41.2305 97.7799L72.6564 73.8873L54.8449 56.0809L74.6496 34.6055L126.411 86.3541Z" fill="url(#paint1_linear_1191_460)"/>
<path d="M58.0684 64.4844H71.9316C77.2828 64.4844 82.4152 66.61 86.1992 70.3936C89.9833 74.1772 92.1097 79.309 92.1104 84.6602V90.5508C92.1083 92.7331 91.2401 94.8256 89.6963 96.3682C88.1523 97.9108 86.0586 98.7773 83.876 98.7773H46.125C43.9411 98.7773 41.847 97.9095 40.3027 96.3652C38.7585 94.821 37.8906 92.7269 37.8906 90.543V84.6523L37.8975 84.1514C38.0283 78.9833 40.1382 74.0543 43.8037 70.3906C47.5875 66.6087 52.7186 64.4845 58.0684 64.4844Z" fill="#2F4F2F" stroke="#FFD700"/>
<path d="M65.002 31.2227C72.8492 31.2228 79.2109 37.5844 79.2109 45.4316C79.2108 53.2788 72.8491 59.6405 65.002 59.6406C57.1547 59.6406 50.7931 53.2788 50.793 45.4316C50.793 37.5843 57.1547 31.2227 65.002 31.2227Z" fill="#274227" stroke="#FFD700"/>
</g>
<defs>
<linearGradient id="paint0_linear_1191_460" x1="19.0379" y1="19.0379" x2="110.962" y2="110.962" gradientUnits="userSpaceOnUse">
<stop stop-color="#2F4F2F"/>
<stop offset="1" stop-color="#2F4F2F"/>
</linearGradient>
<linearGradient id="paint1_linear_1191_460" x1="50.5107" y1="58.757" x2="106.84" y2="115.084" gradientUnits="userSpaceOnUse">
<stop stop-color="white" stop-opacity="0.6"/>
<stop offset="0.93" stop-color="white" stop-opacity="0"/>
</linearGradient>
<clipPath id="clip0_1191_460">
<rect width="130" height="130" fill="white"/>
</clipPath>
</defs>
</svg>
