<svg width="130" height="130" viewBox="0 0 130 130" fill="none" xmlns="http://www.w3.org/2000/svg">
<g clip-path="url(#clip0_1191_639)">
<path d="M65 130C100.899 130 130 100.899 130 65C130 29.1015 100.899 0 65 0C29.1015 0 0 29.1015 0 65C0 100.899 29.1015 130 65 130Z" fill="url(#paint0_linear_1191_639)"/>
<path d="M76.0658 82.5738C71.5592 79.8151 66.7296 77.0951 62.0415 74.4629V72.8175C62.1805 72.6495 62.3167 72.4791 62.4499 72.3063C64.002 70.2858 65.169 67.9486 65.905 65.4407C68.5157 64.5043 70.4821 61.7827 70.4821 58.969C70.4821 57.5169 69.9496 56.235 68.9823 55.359C68.5391 54.9582 68.0165 54.655 67.4484 54.4693L67.4489 54.4684C68.4865 51.9077 69.0762 49.326 69.0762 47.0676C69.0762 38.4371 61.6874 31.416 52.6058 31.416C43.5227 31.416 36.1339 38.4371 36.1339 47.0676C36.1339 49.326 36.7264 51.9074 37.764 54.4694C37.1812 54.6611 36.6465 54.9762 36.1964 55.3932C35.2527 56.2681 34.7332 57.538 34.7332 58.969C34.7332 61.7826 36.6992 64.5039 39.3097 65.4404C40.0453 67.9483 41.2116 70.2854 42.763 72.3059C42.9047 72.4899 43.0498 72.6714 43.1983 72.8501V74.4506C38.7348 76.9503 33.74 79.7568 29.1426 82.575C27.4037 83.6469 26.4062 85.4306 26.4062 87.4672V97.0638C26.4063 97.3402 26.5161 97.6052 26.7116 97.8006C26.907 97.996 27.172 98.1059 27.4483 98.1059H77.7619C77.8987 98.106 78.0343 98.0791 78.1608 98.0268C78.2872 97.9745 78.4022 97.8977 78.4989 97.8009C78.5957 97.7041 78.6725 97.5892 78.7248 97.4627C78.7772 97.3363 78.804 97.2007 78.804 97.0638V87.4672C78.8036 85.4279 77.8062 83.6443 76.0658 82.5738ZM66.7429 56.4302C67.0546 56.5239 67.3416 56.6859 67.5828 56.9044C68.1079 57.3801 68.3973 58.1133 68.3973 58.9691C68.3973 60.3607 67.6306 61.7899 66.5248 62.7068C66.7206 61.4961 66.819 60.2715 66.8189 59.045C66.8188 58.3773 66.8097 57.4282 66.7429 56.4302ZM36.8175 58.9692C36.8175 58.1251 37.1002 57.3982 37.6135 56.9222C37.8465 56.7062 38.1237 56.5436 38.426 56.4457C38.3959 57.408 38.3956 58.2523 38.3957 58.8999V59.0452C38.3957 60.2816 38.4955 61.5068 38.6896 62.7068C37.5843 61.7897 36.8175 60.3607 36.8175 58.9692ZM40.4919 59.6123C41.1241 60.5597 41.8126 61.4653 42.5473 62.3086C42.7173 62.5038 42.9538 62.6287 43.2109 62.659C43.468 62.6893 43.7271 62.6227 43.9378 62.4723C46.4539 60.6798 49.4508 59.733 52.6055 59.733C55.7617 59.733 58.7601 60.6798 61.2762 62.4723C61.4525 62.5986 61.6639 62.6663 61.8807 62.666C62.0297 62.6663 62.177 62.6345 62.3126 62.5729C62.4482 62.5112 62.569 62.4211 62.6668 62.3087C63.4012 61.4657 64.0909 60.5576 64.723 59.6092C64.6094 63.8329 63.2277 67.8718 60.7967 71.0366C58.4426 74.1011 55.457 75.8587 52.6053 75.8587C49.754 75.8587 46.7691 74.1011 44.4162 71.0369C41.987 67.8729 40.606 63.8352 40.4919 59.6123ZM59.9571 74.9484V75.0733C59.9571 79.1198 56.6639 82.4115 52.6174 82.4115C48.5739 82.4115 45.2836 79.1198 45.2836 75.0733V74.9729C47.5413 76.8882 50.0945 77.9431 52.6052 77.9431C55.1269 77.9431 57.6917 76.8794 59.9571 74.9484ZM69.4779 96.022H35.7332V81.0821C37.1398 80.2673 38.5506 79.4598 39.9658 78.6599V90.384C39.9658 90.6604 40.0756 90.9254 40.271 91.1209C40.4664 91.3163 40.7315 91.4261 41.0079 91.4261H64.2061C64.343 91.4262 64.4785 91.3993 64.605 91.347C64.7315 91.2947 64.8464 91.2179 64.9432 91.1211C65.04 91.0243 65.1167 90.9094 65.1691 90.7829C65.2214 90.6565 65.2483 90.5209 65.2482 90.384V78.6629C66.6639 79.4654 68.0784 80.2723 69.4777 81.0851L69.4779 96.022Z" fill="#2F4F2F"/>
<path d="M69.4779 96.022H35.7332V81.0821C37.1398 80.2673 38.5506 79.4598 39.9658 78.6599V90.384C39.9658 90.6604 40.0756 90.9254 40.271 91.1209C40.4664 91.3163 40.7315 91.4261 41.0079 91.4261H64.2061C64.343 91.4262 64.4785 91.3993 64.605 91.347C64.7315 91.2947 64.8464 91.2179 64.9432 91.1211C65.04 91.0243 65.1167 90.9094 65.1691 90.7829C65.2214 90.6565 65.2483 90.5209 65.2482 90.384V78.6629C66.6639 79.4654 68.0784 80.2723 69.4777 81.0851L69.4779 96.022Z" fill="white"/>
<path d="M39.7783 78.3281C39.0702 78.7284 38.3632 79.1311 37.6572 79.5352L35.542 80.7529L35.3525 80.8623V96.4033H69.8584V80.8662L69.6689 80.7559L67.5586 79.54C66.8523 79.136 66.1439 78.7335 65.4355 78.332L64.8672 78.0088V90.3848C64.8672 90.4282 64.8629 90.4713 64.8545 90.5137L64.8174 90.6377C64.7842 90.7178 64.7351 90.7903 64.6738 90.8516C64.6431 90.8823 64.6092 90.9096 64.5732 90.9336L64.459 90.9951C64.3789 91.0282 64.2928 91.045 64.2061 91.0449H41.0078C40.8325 91.0449 40.664 90.9755 40.54 90.8516L40.458 90.751C40.41 90.679 40.3763 90.5985 40.3594 90.5137L40.3467 90.3838V78.0068L39.7783 78.3281ZM59.71 74.6582C57.4982 76.5435 55.0182 77.5624 52.6055 77.5625C50.2033 77.5625 47.7343 76.5524 45.5303 74.6826L44.9023 74.1504V75.0732C44.9023 79.3298 48.3632 82.7919 52.6172 82.792C56.8739 82.792 60.3379 79.3302 60.3379 75.0732V74.123L59.71 74.6582ZM64.4062 59.3984C63.9388 60.0998 63.4394 60.7783 62.9141 61.4238L62.3799 62.0586C62.318 62.1298 62.2412 62.1875 62.1553 62.2266C62.0695 62.2655 61.9761 62.2853 61.8818 62.2852H61.8799C61.743 62.2853 61.6094 62.2428 61.498 62.1631L61.4971 62.1621C58.9149 60.3225 55.839 59.3525 52.6055 59.3525C49.5756 59.3525 46.6841 60.2049 44.207 61.8271L43.7168 62.1621C43.5832 62.2574 43.4188 62.2994 43.2559 62.2803C43.0929 62.2611 42.9428 62.1823 42.835 62.0586H42.834C42.1106 61.2283 41.4321 60.3357 40.8086 59.4014L40.0752 58.3018L40.1113 59.623C40.2275 63.9204 41.6329 68.0366 44.1143 71.2686C46.5117 74.3909 49.5969 76.2393 52.6055 76.2393C55.6142 76.2392 58.7 74.3911 61.0986 71.2686C63.5819 68.0357 64.988 63.9176 65.1035 59.6191L65.1396 58.2979L64.4062 59.3984ZM38.3086 56.083C37.9537 56.1979 37.628 56.3889 37.3545 56.6426C36.7477 57.2053 36.4365 58.0432 36.4365 58.9697C36.4367 60.4922 37.2687 62.0229 38.4463 63L39.2275 63.6484L39.0654 62.6465C38.8746 61.4664 38.7764 60.2609 38.7764 59.0449V58.8994C38.7762 58.2522 38.7767 57.4134 38.8066 56.458L38.8232 55.917L38.3086 56.083ZM66.3633 56.4561C66.4292 57.4411 66.4383 58.3802 66.4385 59.0449C66.4385 60.2511 66.341 61.4558 66.1484 62.6465L65.9863 63.6475L66.7676 63C67.9459 62.0229 68.7783 60.4916 68.7783 58.9688C68.7782 58.0298 68.4598 57.1847 67.8389 56.6221C67.5557 56.3655 67.2185 56.1754 66.8525 56.0654L66.3262 55.9072L66.3633 56.4561ZM65.6289 79.3174C66.7899 79.9767 67.9483 80.6387 69.0967 81.3047V95.6416H36.1143V81.3018C37.2681 80.634 38.4253 79.9721 39.585 79.3145V90.3838C39.585 90.7612 39.7351 91.1238 40.002 91.3906C40.2688 91.6572 40.6306 91.8066 41.0078 91.8066H64.2061C64.3462 91.8067 64.4855 91.7866 64.6191 91.7461L64.751 91.6992C64.8803 91.6457 65.0005 91.5728 65.1084 91.4844L65.2129 91.3906C65.312 91.2915 65.3951 91.1779 65.4609 91.0547L65.5205 90.9287C65.5741 90.7992 65.6084 90.6625 65.6221 90.5234L65.6289 90.3838V79.3174ZM43.5791 72.7129L43.4912 72.6064C43.3458 72.4314 43.2033 72.2535 43.0645 72.0732C41.5435 70.0922 40.3977 67.798 39.6748 65.333L39.6211 65.1475L39.4385 65.082L39.209 64.9941C36.8613 64.0371 35.1143 61.5354 35.1143 58.9688C35.1143 57.6308 35.5986 56.4671 36.4551 55.6729C36.865 55.2931 37.352 55.0057 37.8828 54.8311L38.2695 54.7041L38.1172 54.3262C37.0925 51.796 36.5146 49.2639 36.5146 47.0674C36.5148 38.6655 43.7144 31.797 52.6055 31.7969C61.4952 31.7969 68.6952 38.6654 68.6953 47.0674C68.6953 49.2615 68.1208 51.7901 67.0986 54.3154L66.9111 54.6943L67.3301 54.8311C67.8473 55.0002 68.3229 55.2766 68.7266 55.6416C69.6045 56.4367 70.1015 57.6109 70.1016 58.9688C70.1016 61.6184 68.2389 64.1988 65.7764 65.082L65.5938 65.1475L65.5391 65.333C64.8156 67.7983 63.6694 70.093 62.1475 72.0742C62.0171 72.2432 61.8841 72.4107 61.748 72.5752L61.6602 72.6807V74.6855L61.8555 74.7949C66.5439 77.4273 71.3671 80.1433 75.8662 82.8975V82.8984C77.4939 83.8996 78.4224 85.5602 78.4229 87.4668V97.0645C78.4229 97.1512 78.4062 97.2373 78.373 97.3174C78.3399 97.3975 78.2908 97.4699 78.2295 97.5312C78.1681 97.5926 78.0949 97.6416 78.0146 97.6748C77.9345 97.7079 77.8484 97.7247 77.7617 97.7246H27.4482C27.2729 97.7245 27.1044 97.6552 26.9805 97.5312C26.8566 97.4073 26.7872 97.2388 26.7871 97.0635V87.4668C26.7872 85.563 27.7152 83.9012 29.3418 82.8984C33.9317 80.0848 38.9208 77.2831 43.3848 74.7832L43.5791 74.6738V72.7129Z" stroke="#FFD700" stroke-width="0.761719"/>
<path fill-rule="evenodd" clip-rule="evenodd" d="M95.9715 55.6682C95.8314 55.597 95.6753 55.5629 95.5182 55.5691C95.3611 55.5753 95.2082 55.6216 95.0741 55.7036C94.94 55.786 94.8293 55.9013 94.7524 56.0387C94.6756 56.176 94.6352 56.3307 94.6352 56.4881V60.2234C94.6352 61.5768 93.5341 62.6778 92.1809 62.6778C90.8276 62.6778 89.7266 61.5768 89.7266 60.2234V56.4881C89.7263 56.3308 89.6858 56.1762 89.609 56.0389C89.5322 55.9016 89.4216 55.7862 89.2877 55.7036C89.1533 55.6216 89.0002 55.5753 88.8429 55.5691C88.6856 55.5629 88.5293 55.597 88.3889 55.6682C85.2592 57.4308 84.1035 58.931 83.8008 63.1443C83.7994 64.4412 84.0994 65.7207 84.6772 66.8818L87.1303 69.8347V93.64C87.1303 96.4229 89.3954 98.6867 92.1809 98.6867C94.9638 98.6867 97.2276 96.4229 97.2276 93.64V69.8346C98.264 69.0542 99.1046 68.0436 99.6832 66.8824C100.262 65.7212 100.562 64.4414 100.561 63.1441C100.561 59.9712 98.803 57.1068 95.9715 55.6682ZM92.181 87.3568C92.6895 87.3568 93.1007 86.9442 93.1007 86.4371V78.8651C93.1007 78.3566 92.6895 77.944 92.181 77.944C91.6726 77.944 91.2613 78.3566 91.2613 78.8651V86.4371C91.2613 86.9442 91.6726 87.3568 92.181 87.3568Z" fill="#FFD700"/>
<path d="M92.1807 77.8174C91.6021 77.8176 91.1348 78.2869 91.1348 78.8652V86.4375C91.135 87.0143 91.6023 87.4832 92.1807 87.4834C92.7592 87.4834 93.2273 87.0144 93.2275 86.4375V78.8652C93.2275 78.2868 92.7594 77.8174 92.1807 77.8174ZM87.2568 69.7891L87.2275 69.7539L84.7861 66.8145C84.2218 65.6764 83.9277 64.4236 83.9277 63.1533C84.0785 61.0554 84.4403 59.6517 85.1416 58.5557C85.842 57.461 86.8901 56.6581 88.4463 55.7812C88.5674 55.7199 88.7022 55.6909 88.8379 55.6963C88.9733 55.7016 89.105 55.7411 89.2207 55.8115C89.3361 55.8827 89.4318 55.9823 89.498 56.1006C89.5643 56.219 89.5993 56.3526 89.5996 56.4883V60.2236C89.5997 61.6469 90.7574 62.8046 92.1807 62.8047C93.6039 62.8047 94.7616 61.647 94.7617 60.2236V56.4883C94.7618 56.3526 94.797 56.219 94.8633 56.1006C94.9295 55.9822 95.025 55.8825 95.1406 55.8115C95.2562 55.741 95.3882 55.7016 95.5234 55.6963C95.625 55.6923 95.7261 55.7073 95.8213 55.7412L95.9141 55.7812C98.703 57.1983 100.434 60.0194 100.434 63.1445C100.435 64.4221 100.139 65.6827 99.5693 66.8262C98.9996 67.9695 98.1719 68.965 97.1514 69.7334L97.1006 69.7715V93.6396C97.1006 96.3524 94.8934 98.5596 92.1807 98.5596C89.4653 98.5594 87.2568 96.3523 87.2568 93.6396V69.7891Z" stroke="#FFD700" stroke-width="0.253906"/>
<path d="M86.6152 31.5957C86.7789 31.5327 86.959 31.5256 87.127 31.5762C87.2949 31.6268 87.4413 31.7321 87.543 31.875V31.876L88.9492 33.8428L88.9873 33.8965L89.0537 33.8955C89.2967 33.8929 89.5397 33.8995 89.7822 33.915L89.8486 33.9189L89.8896 33.8672L91.3994 31.9756C91.5088 31.8383 91.6615 31.7408 91.832 31.6992C92.0024 31.6578 92.1816 31.6747 92.3418 31.7461L95.5938 33.1953C95.7541 33.2669 95.8867 33.3892 95.9697 33.5439C96.0527 33.6986 96.0818 33.8767 96.0527 34.0498L95.6543 36.4346L95.6436 36.5L95.6904 36.5469C95.8643 36.7173 96.0318 36.8941 96.1924 37.0771L96.2363 37.127L96.3027 37.1191L98.709 36.8477H98.71C99.0224 36.8123 99.3229 36.9665 99.4805 37.2314L99.5381 37.3516L100.812 40.6699C100.874 40.834 100.881 41.0144 100.83 41.1826C100.779 41.3509 100.675 41.4984 100.532 41.6006L98.5625 43.0059L98.5078 43.0449L98.5088 43.1113C98.5127 43.3582 98.5049 43.6018 98.4893 43.8447L98.4854 43.9111L98.5371 43.9521L100.428 45.459C100.565 45.5684 100.662 45.7211 100.704 45.8916C100.746 46.0619 100.729 46.2412 100.658 46.4014L99.2129 49.6494C99.1413 49.8099 99.018 49.9422 98.8633 50.0254C98.7471 50.0879 98.6179 50.1201 98.4873 50.1201L98.3574 50.1094L95.9727 49.71L95.9072 49.6992L95.8604 49.7471C95.6901 49.9222 95.5131 50.0912 95.3301 50.2529L95.2812 50.2959L95.2881 50.3623L95.5605 52.7646C95.5799 52.9393 95.5406 53.1156 95.4492 53.2656C95.3578 53.4157 95.2188 53.5309 95.0547 53.5938L91.7334 54.8682C91.6403 54.9033 91.5438 54.9209 91.4502 54.9209L91.3564 54.915C91.2628 54.904 91.1713 54.8764 91.0869 54.833C90.9747 54.7753 90.878 54.6916 90.8047 54.5889L89.3984 52.6201L89.3604 52.5664L89.2939 52.5674C89.0519 52.5713 88.8092 52.5647 88.5645 52.5479L88.498 52.543L88.4561 52.5957L86.9482 54.4883C86.8456 54.6165 86.7051 54.7065 86.5479 54.752L82.7529 53.2666C82.5951 53.1948 82.4651 53.0736 82.3828 52.9209C82.2996 52.7664 82.2693 52.5882 82.2979 52.415L82.6934 50.0303L82.7041 49.9658L82.6572 49.9189C82.4828 49.748 82.3149 49.5707 82.1543 49.3867L82.1104 49.3359L82.0439 49.3438L79.6426 49.6152C79.4681 49.6351 79.2917 49.5971 79.1416 49.5059C78.9917 49.4147 78.8762 49.2761 78.8135 49.1123V49.1113L77.5391 45.7939C77.4762 45.6299 77.4689 45.4495 77.5195 45.2812C77.5575 45.1551 77.6266 45.0414 77.7188 44.9492L77.8184 44.8643L79.7861 43.458L79.8398 43.4199L79.8389 43.3535C79.8358 43.1086 79.8422 42.8636 79.8574 42.6191L79.8613 42.5537L79.8096 42.5117L77.9199 41.0049C77.7826 40.8955 77.6854 40.7437 77.6436 40.5732C77.6018 40.4027 77.6173 40.223 77.6885 40.0625L79.1338 36.8145H79.1348C79.206 36.6539 79.3287 36.5217 79.4834 36.4385C79.5993 36.3762 79.7282 36.3437 79.8584 36.3438L79.9893 36.3545L82.375 36.7529L82.4404 36.7637L82.4873 36.7168C82.6574 36.5423 82.8343 36.3745 83.0176 36.2139L83.0674 36.1699L83.0596 36.1035L82.7881 33.6992C82.7682 33.5247 82.8064 33.3484 82.8975 33.1982C82.9887 33.048 83.1279 32.9321 83.292 32.8691L86.6143 31.5957H86.6152ZM91.2393 38.5947C88.3452 37.2628 85.6724 38.8626 84.5479 41.1367C83.9848 42.2755 83.8032 43.5939 84.1768 44.8135C84.5513 46.0361 85.4792 47.1458 87.1084 47.8701C87.7778 48.1677 88.4789 48.3095 89.1689 48.3096C91.1131 48.3096 92.9737 47.1859 93.8135 45.2988C94.3313 44.1368 94.3939 42.851 93.999 41.6514L93.9141 41.4121C93.4278 40.1473 92.4776 39.1459 91.2383 38.5947H91.2393Z" fill="white" stroke="#FFD700" stroke-width="0.253906"/>
</g>
<defs>
<linearGradient id="paint0_linear_1191_639" x1="19.0379" y1="19.0379" x2="110.962" y2="110.962" gradientUnits="userSpaceOnUse">
<stop stop-color="#2F4F2F"/>
<stop offset="1" stop-color="#2F4F2F"/>
</linearGradient>
<clipPath id="clip0_1191_639">
<rect width="130" height="130" fill="white"/>
</clipPath>
</defs>
</svg>
