<svg width="130" height="130" viewBox="0 0 130 130" fill="none" xmlns="http://www.w3.org/2000/svg">
<g clip-path="url(#clip0_1191_556)">
<path d="M65 130C100.899 130 130 100.899 130 65C130 29.1015 100.899 0 65 0C29.1015 0 0 29.1015 0 65C0 100.899 29.1015 130 65 130Z" fill="url(#paint0_linear_1191_556)"/>
<mask id="path-2-inside-1_1191_556" fill="white">
<path d="M17.2806 60.6473C19.605 60.9292 21.7823 61.6315 23.8122 62.7542C24.5049 63.0404 24.8209 63.5671 24.7603 64.3345C25.4983 64.9334 26.2709 65.4954 27.078 66.02C27.6019 65.7769 27.9883 65.3907 28.2368 64.8612C30.4756 63.8577 32.7583 62.9797 35.0844 62.2275C35.1605 63.639 35.301 65.0435 35.5058 66.4414C35.7976 66.6629 36.0083 66.9437 36.1378 67.2842C36.5496 68.4485 36.8304 69.6425 36.9806 70.866C37.303 71.1652 37.6892 71.3759 38.1394 71.4982C38.4898 72.3401 38.9462 73.1127 39.509 73.8158C40.046 75.3242 40.4674 76.8692 40.7731 78.4511C41.7316 80.2513 42.8552 81.9368 44.1442 83.5078C44.5169 84.5539 44.6223 85.6073 44.4603 86.6682C41.2297 86.6682 37.9989 86.6682 34.7684 86.6682C33.4016 86.9114 31.9968 86.9465 30.5545 86.7735C30.7708 86.6654 30.9815 86.5601 31.1865 86.4575C32.4467 85.968 33.5705 85.2658 34.5576 84.3505C34.2053 83.3289 33.9596 82.2754 33.8201 81.1901C33.6727 79.2953 33.5673 77.3991 33.5041 75.5013C28.7262 73.4538 24.1962 73.8752 19.9143 76.7655C19.8791 76.941 19.8441 77.1167 19.8089 77.2922C20.4155 80.1014 20.7316 82.9458 20.757 85.8253C21.4391 86.2635 22.1765 86.5796 22.9693 86.7734C18.956 87.0129 14.9528 87.329 10.9597 87.7215C10.8997 88.4669 11.2509 88.8531 12.0132 88.8803C14.4554 89.2659 16.9136 89.4766 19.3875 89.5125C50.6426 90.2661 81.8956 90.196 113.147 89.3017C114.985 89.1949 116.811 88.9842 118.625 88.6696C118.935 88.52 119.076 88.2743 119.046 87.9322C116.804 87.652 114.557 87.4063 112.304 87.1947C113.463 86.5978 114.341 85.7199 114.937 84.5611C116.316 80.8254 115.227 78.1216 111.672 76.4493C107.943 75.4867 105.38 76.786 103.981 80.3472C103.352 83.0525 104.159 85.1946 106.404 86.7733C104.088 86.8786 101.77 86.9139 99.4514 86.8787C97.1328 86.9139 94.8151 86.8786 92.4986 86.7733C92.6132 86.6223 92.7537 86.5169 92.9199 86.4573C93.638 86.2746 94.3405 86.0289 95.0269 85.7198C100.263 82.7233 101.773 78.404 99.5568 72.7621C98.8807 72.4768 98.2135 72.512 97.5552 72.8674C97.0285 73.3942 96.5018 73.9209 95.975 74.4477C94.1803 77.7924 92.4244 81.1635 90.7076 84.561C90.2068 85.317 89.68 86.0544 89.1274 86.7733C88.7762 86.9138 88.4251 86.9138 88.0739 86.7733C89.0336 85.6028 89.9114 84.3739 90.7076 83.0861C92.0327 80.2324 93.4374 77.4232 94.9215 74.6583C95.5892 73.7734 96.3266 72.9658 97.1338 72.2353C97.7039 71.8333 98.336 71.6578 99.03 71.7086C98.805 70.7535 98.4539 69.8406 97.9765 68.9695C97.7659 68.8993 97.5551 68.829 97.3445 68.7588C89.4855 70.6492 83.305 74.9334 78.8033 81.6112C80.4615 83.9354 82.6388 85.586 85.3348 86.5625C84.3541 86.6676 83.371 86.7029 82.3851 86.6679C79.1513 86.7381 75.9207 86.6676 72.6931 86.4571C72.7193 86.3292 72.7894 86.2591 72.9039 86.2464C73.1449 85.9093 73.3908 85.5581 73.6413 85.1929C73.7035 83.2583 73.9142 81.3621 74.2734 79.5041C73.5195 79.0266 72.7117 78.9563 71.8504 79.2934C71.4442 78.9668 71.0579 78.6155 70.6916 78.2399C69.8488 76.9757 69.006 75.7115 68.1632 74.4474C67.3368 73.8762 66.5291 73.2791 65.7402 72.6565C66.0775 72.5989 66.3935 72.4936 66.6883 72.3404C67.3335 70.686 67.8954 69.0005 68.3739 67.2838C69.3519 66.1003 70.0544 64.7659 70.4808 63.2805C70.7701 61.8731 70.4541 60.6441 69.5327 59.5934C69.6296 59.3193 69.7 59.0384 69.7434 58.7506C69.0283 55.5274 68.923 52.2616 69.4273 48.9533C70.0693 48.8379 70.7365 48.8379 71.4289 48.9533C72.1548 48.9418 72.7869 48.731 73.3252 48.3212C74.7247 49.2323 76.1995 50.0401 77.7497 50.7442C78.0209 51.0413 78.2668 51.3573 78.4872 51.6923C78.7026 52.8294 78.7727 53.9531 78.6979 55.0634C79.129 54.5999 79.3397 54.038 79.33 53.3779C79.6108 53.097 79.8919 53.097 80.1728 53.3779C80.3982 54.0891 80.6439 54.7916 80.9102 55.4848C81.022 54.9372 81.0573 54.3755 81.0155 53.7993C81.376 54.3168 81.6569 54.8787 81.8583 55.4848C82.0417 55.3567 82.147 55.1812 82.1744 54.9581C81.3334 52.6356 81.5092 52.6004 82.7011 54.8528C82.8416 54.5719 82.8416 54.2909 82.7011 54.01C82.078 53.2647 82.2184 53.1946 83.1225 53.7993C83.1577 53.6939 83.1927 53.5885 83.2278 53.4832C82.9135 52.9232 82.4921 52.4668 81.9636 52.1137C82.3374 51.969 82.6887 51.7935 83.0171 51.587C82.1288 51.4353 81.286 51.1545 80.4888 50.7442C79.14 49.254 77.6651 47.9196 76.0642 46.741C73.589 46.2278 71.2011 45.4551 68.9006 44.4233C68.0837 44.2697 67.2759 44.3049 66.4776 44.5287C65.9363 44.4336 65.4448 44.223 65.0028 43.8965C64.8401 43.9271 64.6995 43.9972 64.5814 44.1073C64.2537 43.6979 64.0078 43.2413 63.8439 42.7378C64.4562 41.355 64.5264 39.9503 64.0546 38.5239C66.2756 38.94 68.5231 39.0803 70.7969 38.9453C72.5977 38.7683 74.1077 38.0309 75.3268 36.733C76.4756 34.2491 76.0893 32.0368 74.168 30.0961C72.1087 29.0951 70.0719 29.1653 68.0578 30.3068C65.6957 31.895 63.5184 33.7211 61.5263 35.7849C59.4114 37.4218 57.0588 38.5806 54.4681 39.2613C54.0878 38.8566 53.6664 38.716 53.2039 38.8399C52.5305 39.0532 51.8632 39.2988 51.2023 39.5774C50.91 40.4638 50.278 40.8852 49.3061 40.8416C48.7289 41.394 48.7994 41.8503 49.5167 42.211C50.0574 42.0281 50.5841 41.8175 51.0969 41.5789C51.2427 41.6895 51.3481 41.8301 51.413 42.0003C51.1191 43.1279 50.803 44.2518 50.4649 45.3714C50.3244 46.6356 50.3244 47.8997 50.4649 49.1639C50.8952 49.6072 51.4219 49.8531 52.0451 49.9014C53.8764 49.9991 55.7023 49.9991 57.5232 49.9014C57.9186 50.3756 58.2347 50.9024 58.4713 51.4816C59.2761 54.6277 60.0135 57.7882 60.6835 60.9629C60.6346 61.4471 60.4941 61.9036 60.2622 62.3324C60.4506 62.6265 60.5911 62.9426 60.6835 63.2805C60.3262 63.8464 59.9752 64.4081 59.63 64.966C59.3161 66.3583 59.0702 67.7628 58.8926 69.1799C58.4806 70.1761 58.0945 71.1944 57.7338 72.235C58.4452 74.0214 58.7614 75.8827 58.6819 77.8183C59.3053 79.7415 59.516 81.708 59.3139 83.7178C58.6214 84.0368 58.0597 84.5283 57.6283 85.1927C57.5582 85.1225 57.4878 85.0521 57.4177 84.9819C57.2422 85.1927 57.0665 85.4033 56.891 85.6141C56.2368 85.829 55.6047 86.0748 54.9947 86.3515C52.6037 86.5268 50.2159 86.4918 47.8311 86.2462C47.2861 84.6613 46.4784 83.2566 45.4081 82.0323C45.0569 80.5574 44.7059 79.0826 44.3547 77.6077C43.9333 76.9054 43.5119 76.203 43.0905 75.5007C43.0203 74.5878 42.95 73.6747 42.8798 72.7617C42.3983 71.9848 42.1524 71.1421 42.1423 70.2333C42.0736 69.3097 42.144 68.3967 42.353 67.4943C42.4809 67.5204 42.5511 67.5906 42.5637 67.705C43.3159 68.9152 44.1938 70.0391 45.1974 71.0761C45.9936 72.1765 46.6257 73.3706 47.0936 74.658C48.4323 75.9849 49.8368 76.0551 51.3075 74.8687C51.6673 75.9036 52.2645 76.7816 53.0984 77.5024C53.6982 77.7012 54.2249 77.5959 54.6786 77.1863C54.9668 76.5041 55.0369 75.8016 54.8893 75.0794C53.871 73.78 52.8525 72.4808 51.8343 71.1815C50.9967 70.891 50.3996 71.1367 50.0434 71.919C49.9733 71.8488 49.9028 71.7784 49.8327 71.7082C49.3868 69.2088 48.6495 66.821 47.6204 64.5446C47.7955 64.1289 47.8307 63.7075 47.7258 63.2805C47.1413 63.0304 46.5794 62.7495 46.0402 62.4377C46.2913 61.1171 45.7646 60.2039 44.46 59.6986C44.3237 58.5712 44.0429 57.4825 43.6172 56.4329C43.9054 55.892 44.2215 55.3652 44.5653 54.8526C44.7058 54.0801 44.7058 53.3076 44.5653 52.535C43.7682 51.3163 42.8201 50.2279 41.7209 49.2692C42.037 48.9531 42.3531 48.6371 42.669 48.3211C42.7017 47.8247 42.7017 47.3332 42.669 46.8462C43.1901 46.7155 43.7168 46.5752 44.2492 46.4248C43.8315 46.1126 43.4452 45.7613 43.0904 45.3713C43.106 44.0321 42.5089 43.084 41.2995 42.5269C39.7958 42.1046 38.5669 42.4908 37.6124 43.6857C37.3071 45.062 37.2017 46.4315 37.2963 47.7943C36.0321 47.8645 34.768 47.9348 33.5038 48.005C32.6088 48.4776 31.8364 49.1097 31.1861 49.9013C29.8843 50.4759 28.5497 50.9674 27.183 51.3762C25.8141 52.0955 24.4798 52.8681 23.1797 53.6939C22.1918 53.7552 21.2085 53.7552 20.2301 53.6939C19.9842 53.9397 19.7385 54.1855 19.4926 54.4313C18.1231 52.8505 16.4023 52.113 14.3305 52.219C12.2999 52.9879 11.5625 54.4278 12.1183 56.5383C13.3259 58.5324 15.0466 59.9019 17.2806 60.6473ZM29.5009 77.6082C29.1754 77.4077 28.8241 77.3375 28.4474 77.3975C28.4935 77.6451 28.4234 77.8558 28.2367 78.0296C28.0409 77.7791 27.9708 77.4982 28.0261 77.1869C27.3181 77.0372 26.9319 77.3183 26.8672 78.0296C26.6717 77.4955 26.2853 77.2848 25.7084 77.3975C25.7084 77.6784 25.7084 77.9594 25.7084 78.2403C25.4977 78.2403 25.287 78.2403 25.0763 78.2403C25.0763 78.0296 25.0763 77.8189 25.0763 77.6082C24.7251 77.6082 24.3741 77.6082 24.0228 77.6082C24.0559 77.8975 24.0207 78.1786 23.9175 78.451C23.6676 77.9923 23.2814 77.7816 22.7587 77.8188C22.7917 78.1081 22.7565 78.3892 22.6533 78.6616C22.3798 78.2897 22.1342 77.9033 21.9159 77.5028C22.1437 77.2139 22.3194 76.8978 22.4426 76.5547C22.6339 76.9632 22.9499 77.1739 23.3907 77.1868C23.464 75.9446 23.7099 75.8744 24.1282 76.9761C24.3388 76.6952 24.5495 76.6952 24.7602 76.9761C24.8635 76.7037 24.8987 76.4226 24.8655 76.1333C25.0763 76.1333 25.2869 76.1333 25.4976 76.1333C25.4976 76.344 25.4976 76.5547 25.4976 76.7654C25.8488 76.7654 26.1999 76.7654 26.5511 76.7654C26.4958 76.454 26.5661 76.1732 26.7618 75.9226C26.9485 76.0964 27.0186 76.3072 26.9725 76.5547C27.3237 76.5547 27.6747 76.5547 28.026 76.5547C28.1665 75.712 28.3068 75.712 28.4474 76.5547C28.7986 76.5547 29.1497 76.5547 29.5009 76.5547C29.5009 76.2739 29.5009 75.9928 29.5009 75.712C29.854 75.8558 29.9945 76.137 29.9223 76.5547C30.2031 76.5547 30.4842 76.5547 30.765 76.5547C30.7189 76.3072 30.789 76.0965 30.9758 75.9226C31.1327 76.396 31.4136 76.7822 31.8186 77.0815C31.4922 77.3373 31.2465 77.6533 31.0811 78.0296C30.9793 77.8298 30.9444 77.6191 30.9758 77.3974C30.6949 77.3974 30.4139 77.3974 30.133 77.3974C30.0978 78.126 29.8871 78.1961 29.5009 77.6082ZM59.8409 45.2666C58.4329 45.4252 57.0985 45.8115 55.8377 46.4254C55.8143 46.5555 55.7441 46.6608 55.627 46.7415C55.2113 46.8458 54.7899 46.881 54.3629 46.8468C54.0222 46.9602 53.6709 47.0303 53.3093 47.0575C53.1166 45.5163 53.0814 43.9713 53.204 42.4223C53.3705 41.6579 53.827 41.2365 54.5735 41.1581C54.5377 40.8796 54.6079 40.6337 54.7843 40.4207C56.1009 39.6536 57.5056 39.2322 58.9981 39.1565C58.7712 39.8756 58.3147 40.4023 57.6287 40.7367C57.5269 40.9364 57.4919 41.1471 57.5233 41.3688C57.8697 41.4139 58.1857 41.3436 58.4714 41.1581C58.7954 42.2006 59.0765 43.2541 59.3142 44.3186C59.8974 44.4677 60.073 44.7837 59.8409 45.2666ZM68.2687 79.3991C68.8424 80.0432 69.334 80.7455 69.7435 81.5061C69.5099 81.8881 69.6504 82.0636 70.1649 82.0328C70.1303 82.599 70.1655 83.1608 70.2702 83.7183C71.0129 84.6094 70.9076 85.382 69.9542 86.036C69.9542 86.2467 69.9542 86.4574 69.9542 86.6681C67.5286 86.7373 65.1406 86.6671 62.7906 86.4574C62.6875 85.8322 62.4419 85.2706 62.0531 84.7719C61.913 82.2755 62.1589 79.8174 62.7906 77.3975C62.6435 76.3232 62.468 75.2697 62.2638 74.2371C64.1415 76.1155 66.143 77.8362 68.2687 79.3991ZM65.635 33.1517C65.8276 33.3949 66.0031 33.3597 66.1617 33.0464C65.8809 32.8357 65.8809 32.625 66.1617 32.4143C67.2944 31.7089 68.5586 31.0416 69.9542 30.4127C70.0777 30.4567 70.1831 30.5271 70.2703 30.6234C70.3797 30.4093 70.5554 30.269 70.797 30.202C71.407 30.2481 72.004 30.2481 72.5879 30.202C72.7976 30.3212 72.9731 30.4618 73.1146 30.6234C73.4707 30.6984 73.6814 30.9091 73.7467 31.2555C74.2389 31.5389 74.5901 31.9602 74.8002 32.5197C74.7821 32.7296 74.8524 32.905 75.0109 33.0464C74.8704 33.1869 74.7301 33.3273 74.5895 33.4678C74.7716 33.7073 74.9822 33.9882 75.2215 34.3106C75.0983 34.5849 74.958 34.8308 74.8002 35.048C75.1289 35.3912 75.0587 35.6371 74.5895 35.7855C74.7899 35.9368 74.8249 36.1122 74.6948 36.3122C73.9155 36.9999 73.0375 37.4915 72.0612 37.7871C72.0612 37.9276 71.991 37.9978 71.8504 37.9978C71.1162 38.2275 70.4138 38.2275 69.7435 37.9978C69.2838 38.5336 68.8274 38.5336 68.374 37.9978C68.0794 38.1139 67.7984 38.1841 67.5312 38.2085C67.4611 38.068 67.3908 37.9277 67.3206 37.7872C67.026 37.9032 66.745 37.9734 66.4778 37.9979C66.1213 37.6062 65.8052 37.1848 65.5297 36.7337C65.5999 36.5932 65.6702 36.4529 65.7404 36.3123C65.4838 36.3947 65.3081 36.2542 65.2137 35.8909C65.0129 35.2732 64.9076 34.6411 64.8976 33.9946C65.157 33.7379 65.4028 33.457 65.635 33.1517ZM63.6334 34.8373C63.9052 34.9548 64.0807 35.1656 64.1601 35.4694C64.4646 36.2384 64.6753 37.0111 64.7922 37.7871C63.6366 37.4247 62.4778 37.1086 61.3158 36.839C62.1034 36.168 62.8759 35.5007 63.6334 34.8373ZM20.8624 60.542C21.1285 60.2198 21.3393 59.8688 21.4945 59.4885C22.1239 60.0671 22.6856 60.7343 23.1801 61.4901C22.329 61.4174 21.5564 61.1013 20.8624 60.542ZM29.0795 53.6944C29.8287 53.3557 30.531 52.9694 31.1864 52.5356C32.1611 52.367 32.9689 52.6481 33.6094 53.3784C34.287 55.3583 34.5681 57.3949 34.4522 59.4885C32.6689 60.6437 30.8076 61.662 28.8688 62.5435C27.5323 62.3659 26.1981 62.2957 24.8656 62.3328C23.2201 60.6946 22.0263 58.7632 21.2838 56.5387C23.5993 54.8927 26.1978 53.9445 29.0795 53.6944ZM20.2303 54.4319C20.7316 54.6557 20.7316 54.9365 20.2303 55.2747C19.9931 54.9991 19.9931 54.718 20.2303 54.4319ZM12.9614 54.4319C13.8872 52.9221 15.1162 52.5356 16.6486 53.273C17.1996 53.402 17.5505 53.7181 17.702 54.2212C18.2717 54.2569 18.6229 54.5378 18.7555 55.0639C19.4847 55.3404 20.0114 55.8319 20.3357 56.5388C20.5424 57.0908 20.7881 57.6176 21.0732 58.1191C21.0083 58.4265 20.8678 58.6723 20.6518 58.8565C20.2997 59.9919 19.5973 60.3432 18.5448 59.91C18.2916 60.1007 18.0105 60.1007 17.7021 59.91C15.8981 59.41 14.3881 58.4269 13.1721 56.9603C12.9596 56.639 12.8542 56.2877 12.8561 55.9068C12.5897 55.428 12.6247 54.9365 12.9614 54.4319Z"/>
</mask>
<path d="M17.2806 60.6473C19.605 60.9292 21.7823 61.6315 23.8122 62.7542C24.5049 63.0404 24.8209 63.5671 24.7603 64.3345C25.4983 64.9334 26.2709 65.4954 27.078 66.02C27.6019 65.7769 27.9883 65.3907 28.2368 64.8612C30.4756 63.8577 32.7583 62.9797 35.0844 62.2275C35.1605 63.639 35.301 65.0435 35.5058 66.4414C35.7976 66.6629 36.0083 66.9437 36.1378 67.2842C36.5496 68.4485 36.8304 69.6425 36.9806 70.866C37.303 71.1652 37.6892 71.3759 38.1394 71.4982C38.4898 72.3401 38.9462 73.1127 39.509 73.8158C40.046 75.3242 40.4674 76.8692 40.7731 78.4511C41.7316 80.2513 42.8552 81.9368 44.1442 83.5078C44.5169 84.5539 44.6223 85.6073 44.4603 86.6682C41.2297 86.6682 37.9989 86.6682 34.7684 86.6682C33.4016 86.9114 31.9968 86.9465 30.5545 86.7735C30.7708 86.6654 30.9815 86.5601 31.1865 86.4575C32.4467 85.968 33.5705 85.2658 34.5576 84.3505C34.2053 83.3289 33.9596 82.2754 33.8201 81.1901C33.6727 79.2953 33.5673 77.3991 33.5041 75.5013C28.7262 73.4538 24.1962 73.8752 19.9143 76.7655C19.8791 76.941 19.8441 77.1167 19.8089 77.2922C20.4155 80.1014 20.7316 82.9458 20.757 85.8253C21.4391 86.2635 22.1765 86.5796 22.9693 86.7734C18.956 87.0129 14.9528 87.329 10.9597 87.7215C10.8997 88.4669 11.2509 88.8531 12.0132 88.8803C14.4554 89.2659 16.9136 89.4766 19.3875 89.5125C50.6426 90.2661 81.8956 90.196 113.147 89.3017C114.985 89.1949 116.811 88.9842 118.625 88.6696C118.935 88.52 119.076 88.2743 119.046 87.9322C116.804 87.652 114.557 87.4063 112.304 87.1947C113.463 86.5978 114.341 85.7199 114.937 84.5611C116.316 80.8254 115.227 78.1216 111.672 76.4493C107.943 75.4867 105.38 76.786 103.981 80.3472C103.352 83.0525 104.159 85.1946 106.404 86.7733C104.088 86.8786 101.77 86.9139 99.4514 86.8787C97.1328 86.9139 94.8151 86.8786 92.4986 86.7733C92.6132 86.6223 92.7537 86.5169 92.9199 86.4573C93.638 86.2746 94.3405 86.0289 95.0269 85.7198C100.263 82.7233 101.773 78.404 99.5568 72.7621C98.8807 72.4768 98.2135 72.512 97.5552 72.8674C97.0285 73.3942 96.5018 73.9209 95.975 74.4477C94.1803 77.7924 92.4244 81.1635 90.7076 84.561C90.2068 85.317 89.68 86.0544 89.1274 86.7733C88.7762 86.9138 88.4251 86.9138 88.0739 86.7733C89.0336 85.6028 89.9114 84.3739 90.7076 83.0861C92.0327 80.2324 93.4374 77.4232 94.9215 74.6583C95.5892 73.7734 96.3266 72.9658 97.1338 72.2353C97.7039 71.8333 98.336 71.6578 99.03 71.7086C98.805 70.7535 98.4539 69.8406 97.9765 68.9695C97.7659 68.8993 97.5551 68.829 97.3445 68.7588C89.4855 70.6492 83.305 74.9334 78.8033 81.6112C80.4615 83.9354 82.6388 85.586 85.3348 86.5625C84.3541 86.6676 83.371 86.7029 82.3851 86.6679C79.1513 86.7381 75.9207 86.6676 72.6931 86.4571C72.7193 86.3292 72.7894 86.2591 72.9039 86.2464C73.1449 85.9093 73.3908 85.5581 73.6413 85.1929C73.7035 83.2583 73.9142 81.3621 74.2734 79.5041C73.5195 79.0266 72.7117 78.9563 71.8504 79.2934C71.4442 78.9668 71.0579 78.6155 70.6916 78.2399C69.8488 76.9757 69.006 75.7115 68.1632 74.4474C67.3368 73.8762 66.5291 73.2791 65.7402 72.6565C66.0775 72.5989 66.3935 72.4936 66.6883 72.3404C67.3335 70.686 67.8954 69.0005 68.3739 67.2838C69.3519 66.1003 70.0544 64.7659 70.4808 63.2805C70.7701 61.8731 70.4541 60.6441 69.5327 59.5934C69.6296 59.3193 69.7 59.0384 69.7434 58.7506C69.0283 55.5274 68.923 52.2616 69.4273 48.9533C70.0693 48.8379 70.7365 48.8379 71.4289 48.9533C72.1548 48.9418 72.7869 48.731 73.3252 48.3212C74.7247 49.2323 76.1995 50.0401 77.7497 50.7442C78.0209 51.0413 78.2668 51.3573 78.4872 51.6923C78.7026 52.8294 78.7727 53.9531 78.6979 55.0634C79.129 54.5999 79.3397 54.038 79.33 53.3779C79.6108 53.097 79.8919 53.097 80.1728 53.3779C80.3982 54.0891 80.6439 54.7916 80.9102 55.4848C81.022 54.9372 81.0573 54.3755 81.0155 53.7993C81.376 54.3168 81.6569 54.8787 81.8583 55.4848C82.0417 55.3567 82.147 55.1812 82.1744 54.9581C81.3334 52.6356 81.5092 52.6004 82.7011 54.8528C82.8416 54.5719 82.8416 54.2909 82.7011 54.01C82.078 53.2647 82.2184 53.1946 83.1225 53.7993C83.1577 53.6939 83.1927 53.5885 83.2278 53.4832C82.9135 52.9232 82.4921 52.4668 81.9636 52.1137C82.3374 51.969 82.6887 51.7935 83.0171 51.587C82.1288 51.4353 81.286 51.1545 80.4888 50.7442C79.14 49.254 77.6651 47.9196 76.0642 46.741C73.589 46.2278 71.2011 45.4551 68.9006 44.4233C68.0837 44.2697 67.2759 44.3049 66.4776 44.5287C65.9363 44.4336 65.4448 44.223 65.0028 43.8965C64.8401 43.9271 64.6995 43.9972 64.5814 44.1073C64.2537 43.6979 64.0078 43.2413 63.8439 42.7378C64.4562 41.355 64.5264 39.9503 64.0546 38.5239C66.2756 38.94 68.5231 39.0803 70.7969 38.9453C72.5977 38.7683 74.1077 38.0309 75.3268 36.733C76.4756 34.2491 76.0893 32.0368 74.168 30.0961C72.1087 29.0951 70.0719 29.1653 68.0578 30.3068C65.6957 31.895 63.5184 33.7211 61.5263 35.7849C59.4114 37.4218 57.0588 38.5806 54.4681 39.2613C54.0878 38.8566 53.6664 38.716 53.2039 38.8399C52.5305 39.0532 51.8632 39.2988 51.2023 39.5774C50.91 40.4638 50.278 40.8852 49.3061 40.8416C48.7289 41.394 48.7994 41.8503 49.5167 42.211C50.0574 42.0281 50.5841 41.8175 51.0969 41.5789C51.2427 41.6895 51.3481 41.8301 51.413 42.0003C51.1191 43.1279 50.803 44.2518 50.4649 45.3714C50.3244 46.6356 50.3244 47.8997 50.4649 49.1639C50.8952 49.6072 51.4219 49.8531 52.0451 49.9014C53.8764 49.9991 55.7023 49.9991 57.5232 49.9014C57.9186 50.3756 58.2347 50.9024 58.4713 51.4816C59.2761 54.6277 60.0135 57.7882 60.6835 60.9629C60.6346 61.4471 60.4941 61.9036 60.2622 62.3324C60.4506 62.6265 60.5911 62.9426 60.6835 63.2805C60.3262 63.8464 59.9752 64.4081 59.63 64.966C59.3161 66.3583 59.0702 67.7628 58.8926 69.1799C58.4806 70.1761 58.0945 71.1944 57.7338 72.235C58.4452 74.0214 58.7614 75.8827 58.6819 77.8183C59.3053 79.7415 59.516 81.708 59.3139 83.7178C58.6214 84.0368 58.0597 84.5283 57.6283 85.1927C57.5582 85.1225 57.4878 85.0521 57.4177 84.9819C57.2422 85.1927 57.0665 85.4033 56.891 85.6141C56.2368 85.829 55.6047 86.0748 54.9947 86.3515C52.6037 86.5268 50.2159 86.4918 47.8311 86.2462C47.2861 84.6613 46.4784 83.2566 45.4081 82.0323C45.0569 80.5574 44.7059 79.0826 44.3547 77.6077C43.9333 76.9054 43.5119 76.203 43.0905 75.5007C43.0203 74.5878 42.95 73.6747 42.8798 72.7617C42.3983 71.9848 42.1524 71.1421 42.1423 70.2333C42.0736 69.3097 42.144 68.3967 42.353 67.4943C42.4809 67.5204 42.5511 67.5906 42.5637 67.705C43.3159 68.9152 44.1938 70.0391 45.1974 71.0761C45.9936 72.1765 46.6257 73.3706 47.0936 74.658C48.4323 75.9849 49.8368 76.0551 51.3075 74.8687C51.6673 75.9036 52.2645 76.7816 53.0984 77.5024C53.6982 77.7012 54.2249 77.5959 54.6786 77.1863C54.9668 76.5041 55.0369 75.8016 54.8893 75.0794C53.871 73.78 52.8525 72.4808 51.8343 71.1815C50.9967 70.891 50.3996 71.1367 50.0434 71.919C49.9733 71.8488 49.9028 71.7784 49.8327 71.7082C49.3868 69.2088 48.6495 66.821 47.6204 64.5446C47.7955 64.1289 47.8307 63.7075 47.7258 63.2805C47.1413 63.0304 46.5794 62.7495 46.0402 62.4377C46.2913 61.1171 45.7646 60.2039 44.46 59.6986C44.3237 58.5712 44.0429 57.4825 43.6172 56.4329C43.9054 55.892 44.2215 55.3652 44.5653 54.8526C44.7058 54.0801 44.7058 53.3076 44.5653 52.535C43.7682 51.3163 42.8201 50.2279 41.7209 49.2692C42.037 48.9531 42.3531 48.6371 42.669 48.3211C42.7017 47.8247 42.7017 47.3332 42.669 46.8462C43.1901 46.7155 43.7168 46.5752 44.2492 46.4248C43.8315 46.1126 43.4452 45.7613 43.0904 45.3713C43.106 44.0321 42.5089 43.084 41.2995 42.5269C39.7958 42.1046 38.5669 42.4908 37.6124 43.6857C37.3071 45.062 37.2017 46.4315 37.2963 47.7943C36.0321 47.8645 34.768 47.9348 33.5038 48.005C32.6088 48.4776 31.8364 49.1097 31.1861 49.9013C29.8843 50.4759 28.5497 50.9674 27.183 51.3762C25.8141 52.0955 24.4798 52.8681 23.1797 53.6939C22.1918 53.7552 21.2085 53.7552 20.2301 53.6939C19.9842 53.9397 19.7385 54.1855 19.4926 54.4313C18.1231 52.8505 16.4023 52.113 14.3305 52.219C12.2999 52.9879 11.5625 54.4278 12.1183 56.5383C13.3259 58.5324 15.0466 59.9019 17.2806 60.6473ZM29.5009 77.6082C29.1754 77.4077 28.8241 77.3375 28.4474 77.3975C28.4935 77.6451 28.4234 77.8558 28.2367 78.0296C28.0409 77.7791 27.9708 77.4982 28.0261 77.1869C27.3181 77.0372 26.9319 77.3183 26.8672 78.0296C26.6717 77.4955 26.2853 77.2848 25.7084 77.3975C25.7084 77.6784 25.7084 77.9594 25.7084 78.2403C25.4977 78.2403 25.287 78.2403 25.0763 78.2403C25.0763 78.0296 25.0763 77.8189 25.0763 77.6082C24.7251 77.6082 24.3741 77.6082 24.0228 77.6082C24.0559 77.8975 24.0207 78.1786 23.9175 78.451C23.6676 77.9923 23.2814 77.7816 22.7587 77.8188C22.7917 78.1081 22.7565 78.3892 22.6533 78.6616C22.3798 78.2897 22.1342 77.9033 21.9159 77.5028C22.1437 77.2139 22.3194 76.8978 22.4426 76.5547C22.6339 76.9632 22.9499 77.1739 23.3907 77.1868C23.464 75.9446 23.7099 75.8744 24.1282 76.9761C24.3388 76.6952 24.5495 76.6952 24.7602 76.9761C24.8635 76.7037 24.8987 76.4226 24.8655 76.1333C25.0763 76.1333 25.2869 76.1333 25.4976 76.1333C25.4976 76.344 25.4976 76.5547 25.4976 76.7654C25.8488 76.7654 26.1999 76.7654 26.5511 76.7654C26.4958 76.454 26.5661 76.1732 26.7618 75.9226C26.9485 76.0964 27.0186 76.3072 26.9725 76.5547C27.3237 76.5547 27.6747 76.5547 28.026 76.5547C28.1665 75.712 28.3068 75.712 28.4474 76.5547C28.7986 76.5547 29.1497 76.5547 29.5009 76.5547C29.5009 76.2739 29.5009 75.9928 29.5009 75.712C29.854 75.8558 29.9945 76.137 29.9223 76.5547C30.2031 76.5547 30.4842 76.5547 30.765 76.5547C30.7189 76.3072 30.789 76.0965 30.9758 75.9226C31.1327 76.396 31.4136 76.7822 31.8186 77.0815C31.4922 77.3373 31.2465 77.6533 31.0811 78.0296C30.9793 77.8298 30.9444 77.6191 30.9758 77.3974C30.6949 77.3974 30.4139 77.3974 30.133 77.3974C30.0978 78.126 29.8871 78.1961 29.5009 77.6082ZM59.8409 45.2666C58.4329 45.4252 57.0985 45.8115 55.8377 46.4254C55.8143 46.5555 55.7441 46.6608 55.627 46.7415C55.2113 46.8458 54.7899 46.881 54.3629 46.8468C54.0222 46.9602 53.6709 47.0303 53.3093 47.0575C53.1166 45.5163 53.0814 43.9713 53.204 42.4223C53.3705 41.6579 53.827 41.2365 54.5735 41.1581C54.5377 40.8796 54.6079 40.6337 54.7843 40.4207C56.1009 39.6536 57.5056 39.2322 58.9981 39.1565C58.7712 39.8756 58.3147 40.4023 57.6287 40.7367C57.5269 40.9364 57.4919 41.1471 57.5233 41.3688C57.8697 41.4139 58.1857 41.3436 58.4714 41.1581C58.7954 42.2006 59.0765 43.2541 59.3142 44.3186C59.8974 44.4677 60.073 44.7837 59.8409 45.2666ZM68.2687 79.3991C68.8424 80.0432 69.334 80.7455 69.7435 81.5061C69.5099 81.8881 69.6504 82.0636 70.1649 82.0328C70.1303 82.599 70.1655 83.1608 70.2702 83.7183C71.0129 84.6094 70.9076 85.382 69.9542 86.036C69.9542 86.2467 69.9542 86.4574 69.9542 86.6681C67.5286 86.7373 65.1406 86.6671 62.7906 86.4574C62.6875 85.8322 62.4419 85.2706 62.0531 84.7719C61.913 82.2755 62.1589 79.8174 62.7906 77.3975C62.6435 76.3232 62.468 75.2697 62.2638 74.2371C64.1415 76.1155 66.143 77.8362 68.2687 79.3991ZM65.635 33.1517C65.8276 33.3949 66.0031 33.3597 66.1617 33.0464C65.8809 32.8357 65.8809 32.625 66.1617 32.4143C67.2944 31.7089 68.5586 31.0416 69.9542 30.4127C70.0777 30.4567 70.1831 30.5271 70.2703 30.6234C70.3797 30.4093 70.5554 30.269 70.797 30.202C71.407 30.2481 72.004 30.2481 72.5879 30.202C72.7976 30.3212 72.9731 30.4618 73.1146 30.6234C73.4707 30.6984 73.6814 30.9091 73.7467 31.2555C74.2389 31.5389 74.5901 31.9602 74.8002 32.5197C74.7821 32.7296 74.8524 32.905 75.0109 33.0464C74.8704 33.1869 74.7301 33.3273 74.5895 33.4678C74.7716 33.7073 74.9822 33.9882 75.2215 34.3106C75.0983 34.5849 74.958 34.8308 74.8002 35.048C75.1289 35.3912 75.0587 35.6371 74.5895 35.7855C74.7899 35.9368 74.8249 36.1122 74.6948 36.3122C73.9155 36.9999 73.0375 37.4915 72.0612 37.7871C72.0612 37.9276 71.991 37.9978 71.8504 37.9978C71.1162 38.2275 70.4138 38.2275 69.7435 37.9978C69.2838 38.5336 68.8274 38.5336 68.374 37.9978C68.0794 38.1139 67.7984 38.1841 67.5312 38.2085C67.4611 38.068 67.3908 37.9277 67.3206 37.7872C67.026 37.9032 66.745 37.9734 66.4778 37.9979C66.1213 37.6062 65.8052 37.1848 65.5297 36.7337C65.5999 36.5932 65.6702 36.4529 65.7404 36.3123C65.4838 36.3947 65.3081 36.2542 65.2137 35.8909C65.0129 35.2732 64.9076 34.6411 64.8976 33.9946C65.157 33.7379 65.4028 33.457 65.635 33.1517ZM63.6334 34.8373C63.9052 34.9548 64.0807 35.1656 64.1601 35.4694C64.4646 36.2384 64.6753 37.0111 64.7922 37.7871C63.6366 37.4247 62.4778 37.1086 61.3158 36.839C62.1034 36.168 62.8759 35.5007 63.6334 34.8373ZM20.8624 60.542C21.1285 60.2198 21.3393 59.8688 21.4945 59.4885C22.1239 60.0671 22.6856 60.7343 23.1801 61.4901C22.329 61.4174 21.5564 61.1013 20.8624 60.542ZM29.0795 53.6944C29.8287 53.3557 30.531 52.9694 31.1864 52.5356C32.1611 52.367 32.9689 52.6481 33.6094 53.3784C34.287 55.3583 34.5681 57.3949 34.4522 59.4885C32.6689 60.6437 30.8076 61.662 28.8688 62.5435C27.5323 62.3659 26.1981 62.2957 24.8656 62.3328C23.2201 60.6946 22.0263 58.7632 21.2838 56.5387C23.5993 54.8927 26.1978 53.9445 29.0795 53.6944ZM20.2303 54.4319C20.7316 54.6557 20.7316 54.9365 20.2303 55.2747C19.9931 54.9991 19.9931 54.718 20.2303 54.4319ZM12.9614 54.4319C13.8872 52.9221 15.1162 52.5356 16.6486 53.273C17.1996 53.402 17.5505 53.7181 17.702 54.2212C18.2717 54.2569 18.6229 54.5378 18.7555 55.0639C19.4847 55.3404 20.0114 55.8319 20.3357 56.5388C20.5424 57.0908 20.7881 57.6176 21.0732 58.1191C21.0083 58.4265 20.8678 58.6723 20.6518 58.8565C20.2997 59.9919 19.5973 60.3432 18.5448 59.91C18.2916 60.1007 18.0105 60.1007 17.7021 59.91C15.8981 59.41 14.3881 58.4269 13.1721 56.9603C12.9596 56.639 12.8542 56.2877 12.8561 55.9068C12.5897 55.428 12.6247 54.9365 12.9614 54.4319Z" fill="#2F4F2F" stroke="#FFD700" stroke-width="2" mask="url(#path-2-inside-1_1191_556)"/>
<g clip-path="url(#clip1_1191_556)">
<path d="M17.2806 60.6473C19.605 60.9292 21.7823 61.6315 23.8122 62.7542C24.5049 63.0404 24.8209 63.5671 24.7603 64.3345C25.4983 64.9334 26.2709 65.4954 27.078 66.02C27.6019 65.7769 27.9883 65.3907 28.2368 64.8612C30.4756 63.8577 32.7583 62.9797 35.0844 62.2275C35.1605 63.639 35.301 65.0435 35.5058 66.4414C35.7976 66.6629 36.0083 66.9437 36.1378 67.2842C36.5496 68.4485 36.8304 69.6425 36.9806 70.866C37.303 71.1652 37.6892 71.3759 38.1394 71.4982C38.4898 72.3401 38.9462 73.1127 39.509 73.8158C40.046 75.3242 40.4674 76.8692 40.7731 78.4511C41.7316 80.2513 42.8552 81.9368 44.1442 83.5078C44.5169 84.5539 44.6223 85.6073 44.4603 86.6682C41.2297 86.6682 37.9989 86.6682 34.7684 86.6682C33.4016 86.9114 31.9968 86.9465 30.5545 86.7735C30.7708 86.6654 30.9815 86.5601 31.1865 86.4575C32.4467 85.968 33.5705 85.2658 34.5576 84.3505C34.2053 83.3289 33.9596 82.2754 33.8201 81.1901C33.6727 79.2953 33.5673 77.3991 33.5041 75.5013C28.7262 73.4538 24.1962 73.8752 19.9143 76.7655C19.8791 76.941 19.8441 77.1167 19.8089 77.2922C20.4155 80.1014 20.7316 82.9458 20.757 85.8253C21.4391 86.2635 22.1765 86.5796 22.9693 86.7734C18.956 87.0129 14.9528 87.329 10.9597 87.7215C10.8997 88.4669 11.2509 88.8531 12.0132 88.8803C14.4554 89.2659 16.9136 89.4766 19.3875 89.5125C50.6426 90.2661 81.8956 90.196 113.147 89.3017C114.985 89.1949 116.811 88.9842 118.625 88.6696C118.935 88.52 119.076 88.2743 119.046 87.9322C116.804 87.652 114.557 87.4063 112.304 87.1947C113.463 86.5978 114.341 85.7199 114.937 84.5611C116.316 80.8254 115.227 78.1216 111.672 76.4493C107.943 75.4867 105.38 76.786 103.981 80.3472C103.352 83.0525 104.159 85.1946 106.404 86.7733C104.088 86.8786 101.77 86.9139 99.4514 86.8787C97.1328 86.9139 94.8151 86.8786 92.4986 86.7733C92.6132 86.6223 92.7537 86.5169 92.9199 86.4573C93.638 86.2746 94.3405 86.0289 95.0269 85.7198C100.263 82.7233 101.773 78.404 99.5568 72.7621C98.8807 72.4768 98.2135 72.512 97.5552 72.8674C97.0285 73.3942 96.5018 73.9209 95.975 74.4477C94.1803 77.7924 92.4244 81.1635 90.7076 84.561C90.2068 85.317 89.68 86.0544 89.1274 86.7733C88.7762 86.9138 88.4251 86.9138 88.0739 86.7733C89.0336 85.6028 89.9114 84.3739 90.7076 83.0861C92.0327 80.2324 93.4374 77.4232 94.9215 74.6583C95.5892 73.7734 96.3266 72.9658 97.1338 72.2353C97.7039 71.8333 98.336 71.6578 99.03 71.7086C98.805 70.7535 98.4539 69.8406 97.9765 68.9695C97.7659 68.8993 97.5551 68.829 97.3445 68.7588C89.4855 70.6492 83.305 74.9334 78.8033 81.6112C80.4615 83.9354 82.6388 85.586 85.3348 86.5625C84.3541 86.6676 83.371 86.7029 82.3851 86.6679C79.1513 86.7381 75.9207 86.6676 72.6931 86.4571C72.7193 86.3292 72.7894 86.2591 72.9039 86.2464C73.1449 85.9093 73.3908 85.5581 73.6413 85.1929C73.7035 83.2583 73.9142 81.3621 74.2734 79.5041C73.5195 79.0266 72.7117 78.9563 71.8504 79.2934C71.4442 78.9668 71.0579 78.6155 70.6916 78.2399C69.8488 76.9757 69.006 75.7115 68.1632 74.4474C67.3368 73.8762 66.5291 73.2791 65.7402 72.6565C66.0775 72.5989 66.3935 72.4936 66.6883 72.3404C67.3335 70.686 67.8954 69.0005 68.3739 67.2838C69.3519 66.1003 70.0544 64.7659 70.4808 63.2805C70.7701 61.8731 70.4541 60.6441 69.5327 59.5934C69.6296 59.3193 69.7 59.0384 69.7434 58.7506C69.0283 55.5274 68.923 52.2616 69.4273 48.9533C70.0693 48.8379 70.7365 48.8379 71.4289 48.9533C72.1548 48.9418 72.7869 48.731 73.3252 48.3212C74.7247 49.2323 76.1995 50.0401 77.7497 50.7442C78.0209 51.0413 78.2668 51.3573 78.4872 51.6923C78.7026 52.8294 78.7727 53.9531 78.6979 55.0634C79.129 54.5999 79.3397 54.038 79.33 53.3779C79.6108 53.097 79.8919 53.097 80.1728 53.3779C80.3982 54.0891 80.6439 54.7916 80.9102 55.4848C81.022 54.9372 81.0573 54.3755 81.0155 53.7993C81.376 54.3168 81.6569 54.8787 81.8583 55.4848C82.0417 55.3567 82.147 55.1812 82.1744 54.9581C81.3334 52.6356 81.5092 52.6004 82.7011 54.8528C82.8416 54.5719 82.8416 54.2909 82.7011 54.01C82.078 53.2647 82.2184 53.1946 83.1225 53.7993C83.1577 53.6939 83.1927 53.5885 83.2278 53.4832C82.9135 52.9232 82.4921 52.4668 81.9636 52.1137C82.3374 51.969 82.6887 51.7935 83.0171 51.587C82.1288 51.4353 81.286 51.1545 80.4888 50.7442C79.14 49.254 77.6651 47.9196 76.0642 46.741C73.589 46.2278 71.2011 45.4551 68.9006 44.4233C68.0837 44.2697 67.2759 44.3049 66.4776 44.5287C65.9363 44.4336 65.4448 44.223 65.0028 43.8965C64.8401 43.9271 64.6995 43.9972 64.5814 44.1073C64.2537 43.6979 64.0078 43.2413 63.8439 42.7378C64.4562 41.355 64.5264 39.9503 64.0546 38.5239C66.2756 38.94 68.5231 39.0803 70.7969 38.9453C72.5977 38.7683 74.1077 38.0309 75.3268 36.733C76.4756 34.2491 76.0893 32.0368 74.168 30.0961C72.1087 29.0951 70.0719 29.1653 68.0578 30.3068C65.6957 31.895 63.5184 33.7211 61.5263 35.7849C59.4114 37.4218 57.0588 38.5806 54.4681 39.2613C54.0878 38.8566 53.6664 38.716 53.2039 38.8399C52.5305 39.0532 51.8632 39.2988 51.2023 39.5774C50.91 40.4638 50.278 40.8852 49.3061 40.8416C48.7289 41.394 48.7994 41.8503 49.5167 42.211C50.0574 42.0281 50.5841 41.8175 51.0969 41.5789C51.2427 41.6895 51.3481 41.8301 51.413 42.0003C51.1191 43.1279 50.803 44.2518 50.4649 45.3714C50.3244 46.6356 50.3244 47.8997 50.4649 49.1639C50.8952 49.6072 51.4219 49.8531 52.0451 49.9014C53.8764 49.9991 55.7023 49.9991 57.5232 49.9014C57.9186 50.3756 58.2347 50.9024 58.4713 51.4816C59.2761 54.6277 60.0135 57.7882 60.6835 60.9629C60.6346 61.4471 60.4941 61.9036 60.2622 62.3324C60.4506 62.6265 60.5911 62.9426 60.6835 63.2805C60.3262 63.8464 59.9752 64.4081 59.63 64.966C59.3161 66.3583 59.0702 67.7628 58.8926 69.1799C58.4806 70.1761 58.0945 71.1944 57.7338 72.235C58.4452 74.0214 58.7614 75.8827 58.6819 77.8183C59.3053 79.7415 59.516 81.708 59.3139 83.7178C58.6214 84.0368 58.0597 84.5283 57.6283 85.1927C57.5582 85.1225 57.4878 85.0521 57.4177 84.9819C57.2422 85.1927 57.0665 85.4033 56.891 85.6141C56.2368 85.829 55.6047 86.0748 54.9947 86.3515C52.6037 86.5268 50.2159 86.4918 47.8311 86.2462C47.2861 84.6613 46.4784 83.2566 45.4081 82.0323C45.0569 80.5574 44.7059 79.0826 44.3547 77.6077C43.9333 76.9054 43.5119 76.203 43.0905 75.5007C43.0203 74.5878 42.95 73.6747 42.8798 72.7617C42.3983 71.9848 42.1524 71.1421 42.1423 70.2333C42.0736 69.3097 42.144 68.3967 42.353 67.4943C42.4809 67.5204 42.5511 67.5906 42.5637 67.705C43.3159 68.9152 44.1938 70.0391 45.1974 71.0761C45.9936 72.1765 46.6257 73.3706 47.0936 74.658C48.4323 75.9849 49.8368 76.0551 51.3075 74.8687C51.6673 75.9036 52.2645 76.7816 53.0984 77.5024C53.6982 77.7012 54.2249 77.5959 54.6786 77.1863C54.9668 76.5041 55.0369 75.8016 54.8893 75.0794C53.871 73.78 52.8525 72.4808 51.8343 71.1815C50.9967 70.891 50.3996 71.1367 50.0434 71.919C49.9733 71.8488 49.9028 71.7784 49.8327 71.7082C49.3868 69.2088 48.6495 66.821 47.6204 64.5446C47.7955 64.1289 47.8307 63.7075 47.7258 63.2805C47.1413 63.0304 46.5794 62.7495 46.0402 62.4377C46.2913 61.1171 45.7646 60.2039 44.46 59.6986C44.3237 58.5712 44.0429 57.4825 43.6172 56.4329C43.9054 55.892 44.2215 55.3652 44.5653 54.8526C44.7058 54.0801 44.7058 53.3076 44.5653 52.535C43.7682 51.3163 42.8201 50.2279 41.7209 49.2692C42.037 48.9531 42.3531 48.6371 42.669 48.3211C42.7017 47.8247 42.7017 47.3332 42.669 46.8462C43.1901 46.7155 43.7168 46.5752 44.2492 46.4248C43.8315 46.1126 43.4452 45.7613 43.0904 45.3713C43.106 44.0321 42.5089 43.084 41.2995 42.5269C39.7958 42.1046 38.5669 42.4908 37.6124 43.6857C37.3071 45.062 37.2017 46.4315 37.2963 47.7943C36.0321 47.8645 34.768 47.9348 33.5038 48.005C32.6088 48.4776 31.8364 49.1097 31.1861 49.9013C29.8843 50.4759 28.5497 50.9674 27.183 51.3762C25.8141 52.0955 24.4798 52.8681 23.1797 53.6939C22.1918 53.7552 21.2085 53.7552 20.2301 53.6939C19.9842 53.9397 19.7385 54.1855 19.4926 54.4313C18.1231 52.8505 16.4023 52.113 14.3305 52.219C12.2999 52.9879 11.5625 54.4278 12.1183 56.5383C13.3259 58.5324 15.0466 59.9019 17.2806 60.6473ZM29.5009 77.6082C29.1754 77.4077 28.8241 77.3375 28.4474 77.3975C28.4935 77.6451 28.4234 77.8558 28.2367 78.0296C28.0409 77.7791 27.9708 77.4982 28.0261 77.1869C27.3181 77.0372 26.9319 77.3183 26.8672 78.0296C26.6717 77.4955 26.2853 77.2848 25.7084 77.3975C25.7084 77.6784 25.7084 77.9594 25.7084 78.2403C25.4977 78.2403 25.287 78.2403 25.0763 78.2403C25.0763 78.0296 25.0763 77.8189 25.0763 77.6082C24.7251 77.6082 24.3741 77.6082 24.0228 77.6082C24.0559 77.8975 24.0207 78.1786 23.9175 78.451C23.6676 77.9923 23.2814 77.7816 22.7587 77.8188C22.7917 78.1081 22.7565 78.3892 22.6533 78.6616C22.3798 78.2897 22.1342 77.9033 21.9159 77.5028C22.1437 77.2139 22.3194 76.8978 22.4426 76.5547C22.6339 76.9632 22.9499 77.1739 23.3907 77.1868C23.464 75.9446 23.7099 75.8744 24.1282 76.9761C24.3388 76.6952 24.5495 76.6952 24.7602 76.9761C24.8635 76.7037 24.8987 76.4226 24.8655 76.1333C25.0763 76.1333 25.2869 76.1333 25.4976 76.1333C25.4976 76.344 25.4976 76.5547 25.4976 76.7654C25.8488 76.7654 26.1999 76.7654 26.5511 76.7654C26.4958 76.454 26.5661 76.1732 26.7618 75.9226C26.9485 76.0964 27.0186 76.3072 26.9725 76.5547C27.3237 76.5547 27.6747 76.5547 28.026 76.5547C28.1665 75.712 28.3068 75.712 28.4474 76.5547C28.7986 76.5547 29.1497 76.5547 29.5009 76.5547C29.5009 76.2739 29.5009 75.9928 29.5009 75.712C29.854 75.8558 29.9945 76.137 29.9223 76.5547C30.2031 76.5547 30.4842 76.5547 30.765 76.5547C30.7189 76.3072 30.789 76.0965 30.9758 75.9226C31.1327 76.396 31.4136 76.7822 31.8186 77.0815C31.4922 77.3373 31.2465 77.6533 31.0811 78.0296C30.9793 77.8298 30.9444 77.6191 30.9758 77.3974C30.6949 77.3974 30.4139 77.3974 30.133 77.3974C30.0978 78.126 29.8871 78.1961 29.5009 77.6082ZM59.8409 45.2666C58.4329 45.4252 57.0985 45.8115 55.8377 46.4254C55.8143 46.5555 55.7441 46.6608 55.627 46.7415C55.2113 46.8458 54.7899 46.881 54.3629 46.8468C54.0222 46.9602 53.6709 47.0303 53.3093 47.0575C53.1166 45.5163 53.0814 43.9713 53.204 42.4223C53.3705 41.6579 53.827 41.2365 54.5735 41.1581C54.5377 40.8796 54.6079 40.6337 54.7843 40.4207C56.1009 39.6536 57.5056 39.2322 58.9981 39.1565C58.7712 39.8756 58.3147 40.4023 57.6287 40.7367C57.5269 40.9364 57.4919 41.1471 57.5233 41.3688C57.8697 41.4139 58.1857 41.3436 58.4714 41.1581C58.7954 42.2006 59.0765 43.2541 59.3142 44.3186C59.8974 44.4677 60.073 44.7837 59.8409 45.2666ZM68.2687 79.3991C68.8424 80.0432 69.334 80.7455 69.7435 81.5061C69.5099 81.8881 69.6504 82.0636 70.1649 82.0328C70.1303 82.599 70.1655 83.1608 70.2702 83.7183C71.0129 84.6094 70.9076 85.382 69.9542 86.036C69.9542 86.2467 69.9542 86.4574 69.9542 86.6681C67.5286 86.7373 65.1406 86.6671 62.7906 86.4574C62.6875 85.8322 62.4419 85.2706 62.0531 84.7719C61.913 82.2755 62.1589 79.8174 62.7906 77.3975C62.6435 76.3232 62.468 75.2697 62.2638 74.2371C64.1415 76.1155 66.143 77.8362 68.2687 79.3991ZM65.635 33.1517C65.8276 33.3949 66.0031 33.3597 66.1617 33.0464C65.8809 32.8357 65.8809 32.625 66.1617 32.4143C67.2944 31.7089 68.5586 31.0416 69.9542 30.4127C70.0777 30.4567 70.1831 30.5271 70.2703 30.6234C70.3797 30.4093 70.5554 30.269 70.797 30.202C71.407 30.2481 72.004 30.2481 72.5879 30.202C72.7976 30.3212 72.9731 30.4618 73.1146 30.6234C73.4707 30.6984 73.6814 30.9091 73.7467 31.2555C74.2389 31.5389 74.5901 31.9602 74.8002 32.5197C74.7821 32.7296 74.8524 32.905 75.0109 33.0464C74.8704 33.1869 74.7301 33.3273 74.5895 33.4678C74.7716 33.7073 74.9822 33.9882 75.2215 34.3106C75.0983 34.5849 74.958 34.8308 74.8002 35.048C75.1289 35.3912 75.0587 35.6371 74.5895 35.7855C74.7899 35.9368 74.8249 36.1122 74.6948 36.3122C73.9155 36.9999 73.0375 37.4915 72.0612 37.7871C72.0612 37.9276 71.991 37.9978 71.8504 37.9978C71.1162 38.2275 70.4138 38.2275 69.7435 37.9978C69.2838 38.5336 68.8274 38.5336 68.374 37.9978C68.0794 38.1139 67.7984 38.1841 67.5312 38.2085C67.4611 38.068 67.3908 37.9277 67.3206 37.7872C67.026 37.9032 66.745 37.9734 66.4778 37.9979C66.1213 37.6062 65.8052 37.1848 65.5297 36.7337C65.5999 36.5932 65.6702 36.4529 65.7404 36.3123C65.4838 36.3947 65.3081 36.2542 65.2137 35.8909C65.0129 35.2732 64.9076 34.6411 64.8976 33.9946C65.157 33.7379 65.4028 33.457 65.635 33.1517ZM63.6334 34.8373C63.9052 34.9548 64.0807 35.1656 64.1601 35.4694C64.4646 36.2384 64.6753 37.0111 64.7922 37.7871C63.6366 37.4247 62.4778 37.1086 61.3158 36.839C62.1034 36.168 62.8759 35.5007 63.6334 34.8373ZM20.8624 60.542C21.1285 60.2198 21.3393 59.8688 21.4945 59.4885C22.1239 60.0671 22.6856 60.7343 23.1801 61.4901C22.329 61.4174 21.5564 61.1013 20.8624 60.542ZM29.0795 53.6944C29.8287 53.3557 30.531 52.9694 31.1864 52.5356C32.1611 52.367 32.9689 52.6481 33.6094 53.3784C34.287 55.3583 34.5681 57.3949 34.4522 59.4885C32.6689 60.6437 30.8076 61.662 28.8688 62.5435C27.5323 62.3659 26.1981 62.2957 24.8656 62.3328C23.2201 60.6946 22.0263 58.7632 21.2838 56.5387C23.5993 54.8927 26.1978 53.9445 29.0795 53.6944ZM20.2303 54.4319C20.7316 54.6557 20.7316 54.9365 20.2303 55.2747C19.9931 54.9991 19.9931 54.718 20.2303 54.4319ZM12.9614 54.4319C13.8872 52.9221 15.1162 52.5356 16.6486 53.273C17.1996 53.402 17.5505 53.7181 17.702 54.2212C18.2717 54.2569 18.6229 54.5378 18.7555 55.0639C19.4847 55.3404 20.0114 55.8319 20.3357 56.5388C20.5424 57.0908 20.7881 57.6176 21.0732 58.1191C21.0083 58.4265 20.8678 58.6723 20.6518 58.8565C20.2997 59.9919 19.5973 60.3432 18.5448 59.91C18.2916 60.1007 18.0105 60.1007 17.7021 59.91C15.8981 59.41 14.3881 58.4269 13.1721 56.9603C12.9596 56.639 12.8542 56.2877 12.8561 55.9068C12.5897 55.428 12.6247 54.9365 12.9614 54.4319Z" fill="white"/>
</g>
<path d="M55.6235 46.7418C55.7407 46.6611 55.8108 46.5558 55.8342 46.4258C55.3053 46.5158 54.8138 46.656 54.3594 46.8472C54.7864 46.8813 55.2078 46.8461 55.6235 46.7418Z" fill="#FFD700"/>
<path d="M95.8699 64.0209C93.5406 62.4021 90.9422 61.6647 88.0742 61.8086C90.6051 62.4188 92.9931 63.4021 95.2378 64.7584C95.5585 64.6128 95.7692 64.3669 95.8699 64.0209Z" fill="white"/>
<path d="M86.1719 62.7344C88.1056 63.0265 90.0071 63.5371 91.877 64.2686C92.3337 64.4759 92.7412 64.7292 93.1035 65.0254C90.3014 65.3839 87.4892 65.6554 84.667 65.8379L84.6494 65.8389L84.6328 65.8418C82.7431 66.0964 80.943 66.6141 79.2344 67.3945C80.2347 65.788 81.6355 64.5325 83.4482 63.624L83.4551 63.6201L83.4619 63.6172C84.3155 63.1578 85.2179 62.8644 86.1719 62.7344Z" fill="#2F4F2F" stroke="white"/>
<path d="M96.791 65.0605C97.5787 65.7497 98.297 66.5042 98.9492 67.3223C91.5853 68.3605 85.4054 71.6812 80.4297 77.2773L80.4141 77.2949L80.4004 77.3145C79.7065 78.2606 79.0122 79.2062 78.3184 80.1523C76.7097 76.7739 76.5827 73.3522 77.9355 69.8535C79.5731 68.9709 81.2945 68.313 83.1035 67.8838C87.0416 67.4671 90.9696 66.9769 94.8867 66.4111L94.9512 66.4014L95.0117 66.376C95.7198 66.0737 96.3129 65.6325 96.791 65.0605Z" fill="#2F4F2F" stroke="white"/>
<path d="M98.3945 68.7606C98.4207 68.8885 98.4908 68.9587 98.6052 68.9713C99.121 68.7663 99.6829 68.6961 100.291 68.7606C99.6892 68.4861 99.0571 68.4861 98.3945 68.7606Z" fill="white"/>
<path d="M98.9492 69.1162C99.3187 69.0062 99.7147 68.9654 100.14 68.9971C101.389 71.1082 101.815 73.3992 101.414 75.8828L101.412 75.8926L101.411 75.9014C101.401 76.0205 101.385 76.1387 101.37 76.2568C101.295 75.4274 101.194 74.6008 101.064 73.7773L101.06 73.7451L101.047 73.7158L100.504 72.4941C99.9954 71.3606 99.4762 70.2351 98.9492 69.1162Z" fill="#2F4F2F" stroke="white" stroke-width="0.5"/>
<path d="M35.5283 77.5996C36.2567 78.191 36.9274 78.8513 37.5439 79.5781C37.1038 80.4652 36.5962 81.3054 36.0176 82.0977C35.7815 80.6064 35.6181 79.1071 35.5283 77.5996Z" fill="#FFD700" stroke="#FFD700"/>
<path d="M18.1191 78.8232C18.5655 80.4333 18.7423 82.088 18.6494 83.79C17.8049 83.0684 17.0543 82.2588 16.3955 81.3604C16.8931 80.4553 17.4674 79.6098 18.1191 78.8232Z" fill="#FFD700" stroke="#FFD700"/>
</g>
<defs>
<linearGradient id="paint0_linear_1191_556" x1="19.0379" y1="19.0379" x2="110.962" y2="110.962" gradientUnits="userSpaceOnUse">
<stop stop-color="#2F4F2F"/>
<stop offset="1" stop-color="#2F4F2F"/>
</linearGradient>
<clipPath id="clip0_1191_556">
<rect width="130" height="130" fill="white"/>
</clipPath>
<clipPath id="clip1_1191_556">
<rect width="44" height="28" fill="white" transform="translate(75.2109 58.8379)"/>
</clipPath>
</defs>
</svg>
